<?xml version="1.0" standalone="no"?>
<!DOCTYPE svg PUBLIC "-//W3C//DTD SVG 20010904//EN"
 "http://www.w3.org/TR/2001/REC-SVG-20010904/DTD/svg10.dtd">
<svg version="1.0" xmlns="http://www.w3.org/2000/svg"
 width="365.000000pt" height="812.000000pt" viewBox="0 0 365.000000 812.000000"
 preserveAspectRatio="xMidYMid meet">

<g transform="translate(0.000000,812.000000) scale(0.100000,-0.100000)"
fill="#000000" stroke="none">
<path d="M2606 8104 c-9 -8 -16 -22 -16 -29 0 -11 -8 -13 -29 -9 -24 5 -32 1
-46 -19 -9 -14 -15 -36 -13 -49 2 -18 -4 -25 -27 -33 -16 -5 -36 -23 -45 -38
-14 -27 -14 -29 14 -53 27 -24 27 -26 11 -44 -23 -25 -13 -67 20 -82 19 -9 30
-7 60 10 28 17 41 19 61 12 31 -12 67 -4 89 20 13 15 15 27 8 62 -7 37 -12 43
-37 46 -28 4 -46 -10 -46 -35 0 -20 32 -45 51 -40 23 6 24 -6 2 -28 -21 -22
-71 -13 -95 16 -26 31 -22 74 10 110 67 74 162 7 162 -114 0 -99 -17 -146 -74
-207 -111 -121 -171 -260 -182 -422 -4 -51 -11 -99 -17 -105 -5 -7 -22 -13
-37 -13 -35 0 -50 -19 -57 -70 -4 -30 -10 -40 -24 -40 -48 0 -65 -78 -30 -136
22 -35 81 -86 162 -137 52 -33 57 -39 63 -83 3 -26 6 -59 6 -73 l-1 -26 -15
27 c-18 33 -62 58 -104 58 -25 0 -30 -4 -30 -25 0 -18 5 -25 20 -25 11 0 20 5
20 10 0 20 27 9 58 -23 29 -30 72 -119 72 -149 0 -6 -13 7 -29 28 -59 83 -138
122 -155 77 -10 -25 19 -50 38 -34 12 10 22 6 56 -25 45 -40 69 -80 81 -131 7
-36 -6 -46 -16 -13 -4 11 -28 43 -55 70 -40 42 -55 50 -84 50 -30 0 -36 -4
-36 -20 0 -23 31 -41 38 -22 19 59 138 -103 157 -213 l6 -40 -29 45 c-34 54
-50 68 -91 80 -44 12 -95 -5 -126 -42 -24 -29 -27 -38 -23 -90 6 -80 38 -113
105 -109 50 2 86 94 51 129 -31 31 -87 -3 -72 -43 5 -12 14 -15 35 -11 22 4
27 2 22 -10 -3 -8 -14 -19 -25 -25 -16 -9 -26 -7 -47 8 -52 39 -29 153 34 169
44 11 74 -4 105 -53 26 -41 90 -211 90 -239 0 -6 -23 -14 -50 -17 -126 -15
-246 -108 -290 -225 -27 -70 -37 -213 -21 -296 22 -118 87 -222 158 -252 71
-30 177 -6 221 51 33 42 44 95 32 151 -26 117 -107 172 -190 129 -39 -20 -60
-63 -60 -120 0 -40 5 -52 31 -76 36 -33 97 -40 123 -13 23 23 20 67 -7 92 -27
26 -55 28 -83 7 -29 -22 -37 -18 -29 13 10 42 34 62 75 62 56 0 100 -56 100
-129 0 -81 -106 -152 -180 -121 -68 28 -116 117 -107 197 16 144 183 242 322
189 89 -34 165 -177 165 -311 0 -192 -143 -294 -485 -346 -71 -11 -147 -24
-168 -30 -85 -22 -151 -122 -128 -192 19 -57 52 -72 156 -72 78 0 97 4 146 28
79 38 172 111 262 205 42 45 77 78 77 73 0 -20 -92 -131 -168 -202 -112 -105
-463 -342 -447 -302 11 29 25 125 19 134 -8 13 -32 11 -37 -3 -2 -7 2 -21 10
-30 13 -14 13 -23 3 -55 -15 -46 -45 -89 -70 -103 -17 -9 -17 -7 -5 35 18 59
17 125 -2 132 -22 9 -35 -18 -17 -38 18 -20 18 -46 -1 -100 -16 -45 -38 -75
-67 -90 -16 -8 -16 -6 -1 36 20 61 11 135 -18 135 -23 0 -26 -35 -4 -44 22 -8
18 -53 -8 -109 -19 -41 -40 -61 -137 -131 -124 -90 -165 -103 -95 -30 62 63
97 143 98 219 1 73 -14 102 -58 121 -45 18 -79 17 -142 -5 l-53 -18 -6 36
c-20 111 -100 158 -197 117 -47 -19 -104 -90 -124 -153 l-17 -53 -13 32 c-37
87 -99 133 -169 125 -93 -10 -136 -74 -136 -197 l1 -77 -37 18 c-22 12 -57 19
-90 19 -133 0 -205 -101 -169 -237 l14 -53 -24 0 c-64 0 -163 -74 -184 -138
-20 -60 4 -132 67 -202 l34 -38 -44 -21 c-53 -26 -91 -78 -107 -146 -16 -70 0
-123 50 -168 67 -61 153 -61 267 -2 l64 33 20 -25 c11 -14 20 -30 20 -34 0 -5
-25 -9 -56 -9 -31 0 -71 -7 -90 -16 -41 -20 -74 -77 -74 -129 0 -30 -8 -45
-44 -80 -74 -71 -74 -140 -2 -229 41 -50 42 -53 30 -88 -12 -36 -18 -88 -15
-147 1 -24 11 -44 39 -71 41 -42 92 -60 165 -60 45 0 47 -1 47 -27 0 -83 40
-138 110 -154 118 -27 200 66 237 266 18 100 36 111 53 33 15 -71 33 -96 87
-120 51 -22 127 -20 203 7 22 8 40 11 40 7 0 -4 7 -38 15 -75 26 -122 75 -172
162 -165 34 2 41 1 28 -7 -50 -29 -110 -82 -145 -126 l-39 -50 -14 33 c-19 46
-72 95 -123 114 -33 12 -67 15 -141 12 -86 -3 -105 -7 -146 -32 -88 -51 -181
-204 -249 -411 l-32 -98 -13 99 c-37 302 -122 418 -232 319 -24 -22 -49 -35
-65 -35 -81 0 -133 -59 -121 -137 13 -88 116 -296 283 -573 l76 -124 -3 -83
c-5 -196 31 -418 88 -538 l28 -60 6 35 c4 19 16 92 27 162 38 235 107 462 181
593 92 163 273 299 469 351 96 26 242 25 300 -2 131 -61 233 -239 234 -409 0
-188 -102 -377 -237 -435 -125 -54 -299 6 -356 123 -51 106 -45 211 17 279 42
47 74 64 141 79 110 23 176 -27 168 -129 -3 -43 -10 -59 -34 -83 -51 -52 -136
-50 -164 3 -11 20 -10 20 12 4 67 -46 152 13 135 96 -10 51 -32 68 -89 68 -42
0 -54 -5 -81 -32 -39 -39 -51 -91 -36 -148 15 -56 56 -80 134 -80 112 0 187
71 194 184 3 52 0 66 -20 96 -84 124 -282 111 -408 -27 -103 -112 -107 -248
-12 -366 17 -21 34 -52 38 -70 12 -57 51 -121 103 -170 99 -93 215 -127 437
-127 295 0 511 73 675 228 93 87 106 115 27 56 -73 -55 -180 -106 -257 -124
-78 -18 -226 -7 -346 26 -133 37 -243 38 -338 6 -84 -29 -143 -31 -181 -6 -29
18 -90 94 -82 101 2 3 21 -7 43 -21 165 -109 452 -11 696 238 66 67 178 223
192 265 3 12 10 21 14 21 21 0 142 -212 165 -287 7 -21 13 -16 66 51 63 77
114 124 195 175 71 45 85 42 85 -16 0 -60 18 -97 49 -101 42 -6 52 39 26 113
-8 21 -13 40 -12 42 2 1 36 -7 77 -17 123 -32 170 -25 170 26 0 41 -22 48
-136 41 -99 -6 -106 -6 -99 11 4 9 15 40 23 69 14 47 14 54 -2 77 -19 30 -38
33 -60 11 -18 -19 -36 -78 -36 -122 0 -18 -4 -33 -9 -33 -22 0 -122 132 -218
286 -10 18 -16 14 -70 -37 -55 -54 -139 -119 -152 -119 -3 0 -6 44 -6 98 0 86
-3 104 -29 159 -47 103 -147 183 -291 234 l-50 17 -7 56 c-13 103 -76 184
-160 207 -44 11 -167 8 -203 -6 -16 -7 -15 -3 7 17 33 31 54 72 63 121 4 20 9
37 11 37 3 0 28 -12 57 -26 71 -37 160 -43 205 -15 89 57 96 173 16 278 -23
31 -24 34 -7 39 65 19 107 66 118 134 6 35 9 38 28 31 44 -17 125 -22 164 -12
86 23 132 92 133 195 0 56 -2 61 -40 97 l-39 37 18 39 c42 88 33 169 -25 222
-34 31 -39 33 -95 29 l-59 -4 0 48 c0 58 -21 112 -48 127 -38 21 -104 13 -159
-19 -28 -16 -54 -34 -58 -40 -3 -5 -25 11 -49 35 -39 41 -47 45 -90 45 -76 0
-151 -48 -175 -113 -15 -40 -14 -137 3 -185 l15 -40 -49 -12 c-86 -21 -160
-104 -160 -180 0 -35 2 -35 -75 -6 -76 29 -171 17 -240 -30 -21 -14 -38 -24
-39 -22 -2 2 -8 30 -15 63 -28 128 -92 245 -156 285 -28 17 -47 21 -95 18 -37
-2 -60 1 -60 7 0 29 33 132 59 183 84 166 257 261 424 232 35 -6 68 -15 75
-19 8 -5 0 -30 -28 -87 -56 -111 -74 -188 -68 -300 4 -70 11 -104 32 -150 33
-72 62 -104 93 -104 29 0 29 12 -3 107 -51 148 -32 309 53 452 82 138 211 253
492 438 97 64 241 159 320 211 444 293 640 541 641 807 0 33 -13 156 -30 272
-52 376 -51 417 11 511 l28 42 -57 0 c-70 0 -125 -24 -185 -80 l-45 -41 -7
117 c-15 230 12 388 80 477 65 85 133 98 161 32 23 -55 18 -100 -14 -136 -47
-53 -116 -37 -110 24 4 36 23 47 31 17 10 -38 77 -20 77 21 0 21 -36 49 -63
49 -33 0 -67 -45 -67 -90 0 -53 27 -80 79 -80 123 0 150 229 31 255 -37 8
-110 -25 -140 -62 l-20 -26 0 51 c0 47 6 61 74 164 137 209 173 303 125 329
-12 6 -30 9 -41 6 -14 -4 -22 1 -28 19 -12 32 -36 40 -73 26 -37 -14 -53 -6
-34 16 26 30 54 96 67 156 8 37 11 123 9 230 -2 94 1 201 5 237 5 39 4 80 -2
101 -8 30 -6 41 9 64 23 35 25 97 4 114 -9 7 -27 10 -45 6 -24 -4 -30 -2 -30
12 0 26 -29 62 -50 62 -10 0 -26 -7 -34 -16z m64 -41 c14 -47 -1 -96 -27 -91
-22 4 -43 75 -32 106 14 36 46 28 59 -15z m-85 -43 c19 -37 19 -56 -1 -64 -22
-9 -64 20 -64 43 0 57 40 70 65 21z m170 -4 c14 -22 15 -28 1 -61 l-15 -36
-30 22 c-32 23 -31 39 7 82 19 22 18 22 37 -7z m-216 -75 c12 -8 12 -14 1 -40
-10 -24 -19 -31 -40 -31 -15 0 -35 9 -45 20 -17 19 -17 21 0 40 19 21 60 26
84 11z m0 -118 c11 -25 10 -29 -10 -46 -26 -21 -48 -19 -63 6 -9 15 -6 23 17
43 36 30 41 30 56 -3z m168 -387 c-6 -110 -34 -195 -91 -279 -46 -68 -54 -73
-80 -54 -17 12 -17 19 -6 92 16 106 53 201 113 293 43 66 50 73 59 57 6 -10 8
-55 5 -109z m-62 -346 c6 -19 -8 -165 -25 -245 -7 -35 -8 -30 -9 38 -2 111
-21 98 -22 -15 0 -102 -9 -97 -29 20 -7 39 -17 72 -22 72 -11 0 -10 -7 7 -91
9 -40 13 -74 11 -76 -7 -7 -46 106 -46 133 0 13 -7 41 -15 61 -21 49 -19 60
11 80 26 17 27 17 50 -12 17 -21 24 -25 24 -14 0 18 37 69 50 69 5 0 12 -9 15
-20z m113 -33 l3 -36 35 17 c46 21 59 4 38 -47 -22 -53 -83 -159 -95 -167 -8
-4 -8 0 0 14 13 24 14 42 4 42 -5 0 -16 -20 -26 -45 -20 -47 -75 -130 -83
-123 -7 8 34 118 61 164 14 24 21 45 16 49 -6 3 -29 -32 -51 -77 -23 -46 -39
-74 -36 -63 52 214 93 321 119 312 7 -2 13 -20 15 -40z m-300 -52 c11 -14 30
-62 42 -107 12 -46 33 -102 46 -125 13 -23 20 -44 15 -47 -11 -7 -101 89 -101
109 0 8 -4 15 -10 15 -27 0 -2 -50 54 -109 l41 -44 -33 19 c-19 10 -47 34 -64
53 -16 18 -32 31 -35 27 -11 -10 26 -55 73 -86 25 -18 43 -34 40 -37 -10 -10
-156 108 -182 146 -13 20 -24 46 -24 58 0 28 28 56 48 48 18 -7 32 11 32 43 0
27 17 62 30 62 5 0 17 -11 28 -25z m359 -1020 c1 -5 -2 -17 -7 -25 -9 -13 -12
-12 -25 4 -8 10 -12 23 -9 28 7 11 36 6 41 -7z m-27 -73 c0 -12 -8 -9 -31 15
-20 19 -29 36 -24 44 10 15 55 -33 55 -59z m0 -66 c0 -26 -13 -19 -58 34 -57
66 -45 90 15 27 23 -25 43 -53 43 -61z m-63 12 c48 -47 66 -78 46 -78 -14 0
-29 14 -72 63 -39 46 -50 67 -34 67 4 0 31 -23 60 -52z m-39 -28 c33 -38 39
-50 25 -50 -23 0 -93 69 -86 86 8 22 15 18 61 -36z m-49 -24 c35 -36 40 -44
26 -50 -12 -4 -32 7 -64 36 -56 51 -59 58 -29 58 15 0 40 -16 67 -44z m-55
-25 c34 -35 37 -42 26 -56 -12 -14 -20 -10 -72 42 -48 48 -55 59 -41 64 23 8
40 -1 87 -50z m-60 -30 c79 -80 55 -89 -34 -12 -63 54 -70 68 -35 70 6 1 37
-25 69 -58z m-45 -28 c36 -31 68 -58 70 -60 3 -2 0 -8 -6 -14 -8 -8 -32 5 -87
46 -75 57 -83 65 -69 78 13 14 27 6 92 -50z m321 23 c0 -2 3 -11 6 -20 5 -12
0 -16 -22 -16 -43 0 -113 -39 -137 -76 -16 -25 -29 -34 -49 -34 -35 0 -35 7 2
58 30 42 51 58 105 79 29 11 95 17 95 9z m-359 -63 c71 -53 96 -83 69 -83 -8
0 -133 84 -164 111 -8 7 0 29 11 29 3 0 41 -26 84 -57z m-33 -41 c65 -46 72
-56 46 -66 -11 -4 -37 8 -71 31 -65 45 -77 58 -69 79 7 18 8 17 94 -44z m-60
-34 c25 -18 51 -36 56 -40 8 -5 7 -11 -1 -19 -16 -16 -125 54 -117 76 8 20 8
20 62 -17z m-17 -54 c30 -19 38 -29 30 -37 -14 -14 -84 24 -89 47 -5 23 12 20
59 -10z m-13 -52 c17 -11 20 -18 11 -28 -17 -20 -59 3 -59 33 0 25 1 25 48 -5z
m-11 -66 c-6 -17 -31 -13 -35 6 -2 12 2 15 18 11 11 -3 19 -11 17 -17z m-17
-43 c0 -5 -5 -15 -10 -23 -8 -12 -10 -11 -10 8 0 12 5 22 10 22 6 0 10 -3 10
-7z m300 -514 c0 -6 -4 -7 -10 -4 -5 3 -10 11 -10 16 0 6 5 7 10 4 6 -3 10
-11 10 -16z m-94 -44 c3 -14 3 -37 -1 -52 -7 -27 -8 -26 -20 17 -7 25 -16 53
-20 64 -7 16 -6 17 13 7 12 -6 25 -23 28 -36z m51 29 c3 -8 1 -25 -5 -37 l-11
-22 0 22 c-1 12 -4 28 -7 37 -3 9 -1 16 5 16 7 0 14 -7 18 -16z m-115 -35 c19
-37 24 -104 8 -114 -5 -3 -12 7 -15 22 -8 37 -25 101 -32 120 -12 31 22 7 39
-28z m-111 -52 c12 -47 7 -110 -11 -132 -20 -24 -28 -8 -19 36 10 45 4 99 -17
140 -7 15 -10 30 -6 33 11 12 41 -32 53 -77z m43 64 c24 -26 42 -137 26 -156
-21 -26 -30 -17 -30 30 0 25 -9 67 -19 95 -20 53 -10 68 23 31z m-124 -41 c21
-42 26 -112 10 -154 -17 -45 -30 -29 -30 37 0 47 -6 72 -24 104 -25 44 -24 53
5 53 12 0 26 -15 39 -40z m-863 -279 c19 -45 12 -103 -28 -228 -24 -73 -34
-93 -49 -93 -14 0 -17 5 -13 23 13 56 35 117 49 127 18 15 18 30 1 30 -16 0
-53 -77 -66 -135 l-9 -40 -1 51 c-1 55 24 154 39 154 6 0 10 7 10 15 0 30 -22
14 -42 -32 -13 -28 -23 -78 -26 -120 -5 -83 -18 -87 -27 -10 -6 48 0 79 30
150 4 10 3 17 -4 17 -23 0 -41 -68 -41 -150 0 -67 -3 -80 -16 -80 -15 0 -16
11 -12 93 8 143 54 238 128 265 37 14 61 3 77 -37z m-363 -32 c37 -29 64 -87
91 -193 24 -94 24 -106 0 -106 -18 0 -38 72 -33 117 3 24 0 33 -10 33 -14 0
-14 -36 0 -134 2 -10 -2 -21 -8 -23 -11 -4 -77 195 -72 217 2 7 -3 15 -11 18
-17 6 -10 -40 25 -148 28 -88 29 -100 9 -100 -17 0 -64 88 -67 125 -1 14 -9
25 -16 25 -18 0 -10 -37 23 -105 23 -46 23 -51 8 -62 -31 -24 -41 -13 -61 65
-40 154 -36 216 18 265 36 32 68 34 104 6z m631 -63 c28 -20 22 -74 -15 -144
-41 -78 -110 -155 -128 -144 -11 7 -7 17 18 46 18 20 38 36 46 36 16 0 19 16
4 25 -5 3 -30 -15 -56 -40 -25 -26 -48 -45 -50 -42 -7 7 63 93 102 125 22 19
32 32 25 37 -13 8 -126 -104 -136 -134 -3 -12 -13 -21 -21 -21 -29 0 16 93 63
130 18 14 23 24 16 31 -13 13 -69 -50 -95 -108 -21 -47 -44 -61 -27 -15 21 55
69 128 111 169 62 60 107 76 143 49z m-887 -192 c48 -24 112 -88 112 -113 0
-5 -9 -15 -19 -21 -17 -8 -26 -4 -59 27 -21 21 -50 54 -65 73 -20 26 -27 30
-27 17 0 -10 25 -45 56 -78 48 -49 55 -61 44 -74 -7 -8 -16 -15 -20 -15 -15 0
-120 102 -120 115 0 15 -18 30 -26 22 -11 -11 28 -67 76 -109 42 -37 48 -47
37 -56 -19 -16 -73 21 -106 71 -28 43 -49 39 -24 -5 17 -28 50 -60 86 -83 14
-9 15 -12 2 -29 -13 -18 -16 -18 -39 -3 -14 9 -39 38 -57 63 -39 57 -48 117
-25 162 9 18 18 32 19 32 1 0 20 7 42 15 53 19 53 19 113 -11z m462 -101 l-1
-48 -29 35 c-38 45 -38 60 0 60 29 0 30 -1 30 -47z m90 37 c22 0 28 -15 20
-58 l-5 -34 -32 46 c-37 52 -40 61 -17 52 9 -3 24 -6 34 -6z m-201 -63 l1 -28
-30 34 c-36 41 -36 45 -7 49 25 3 35 -13 36 -55z m65 1 c38 -52 46 -69 46
-106 0 -39 -2 -43 -15 -32 -45 38 -73 87 -80 143 -4 31 -5 57 -2 57 3 0 26
-28 51 -62z m145 -58 c4 -8 4 -35 1 -59 l-5 -44 -37 55 c-33 46 -38 62 -38
109 l0 54 36 -50 c19 -28 39 -57 43 -65z m90 99 c22 -8 30 -16 27 -26 -3 -8
-6 -21 -6 -29 0 -24 -14 -15 -43 26 -30 43 -28 46 22 29z m-399 -46 l0 -38
-27 28 c-24 23 -26 29 -13 37 29 19 40 11 40 -27z m96 -60 c8 -18 14 -47 14
-65 l0 -33 -45 47 c-36 37 -45 54 -45 82 0 19 -3 43 -7 53 -11 31 68 -49 83
-84z m299 12 c3 -11 2 -33 -3 -49 l-8 -30 -22 36 c-14 22 -22 51 -22 79 l0 44
25 -30 c14 -16 27 -39 30 -50z m83 22 c17 -24 19 -33 10 -53 -14 -30 -18 -30
-41 1 -13 19 -16 34 -11 61 3 19 10 32 14 27 3 -4 16 -21 28 -36z m-478 -47
c4 -8 11 -37 15 -65 l7 -50 -37 35 c-46 44 -51 53 -60 115 l-7 50 37 -35 c20
-19 40 -42 45 -50z m504 74 c9 -3 16 -12 16 -20 0 -20 -13 -17 -28 6 -13 22
-12 23 12 14z m-600 -26 c12 -45 7 -52 -19 -28 -19 18 -22 26 -14 37 16 19 26
16 33 -9z m649 -30 c-10 -12 -19 -15 -21 -8 -7 20 7 40 23 34 14 -6 14 -9 -2
-26z m-669 -27 c33 -34 66 -111 47 -111 -3 0 -27 20 -53 44 -38 34 -48 51 -48
75 0 17 4 31 8 31 4 0 25 -17 46 -39z m-74 9 c0 -5 -2 -10 -4 -10 -3 0 -8 5
-11 10 -3 6 -1 10 4 10 6 0 11 -4 11 -10z m17 -95 l6 -39 -41 33 c-43 33 -52
57 -30 79 18 18 57 -25 65 -73z m383 -17 c10 -16 6 -18 -29 -18 -44 0 -43 -2
-56 85 l-6 40 41 -45 c22 -25 45 -53 50 -62z m238 36 c-21 -46 -57 -8 -38 41
l12 30 18 -23 c16 -19 17 -27 8 -48z m72 62 c0 -3 -4 -8 -10 -11 -5 -3 -10 -1
-10 4 0 6 5 11 10 11 6 0 10 -2 10 -4z m-250 -50 c45 -67 36 -98 -18 -60 -17
12 -22 25 -22 60 0 24 2 44 5 44 2 0 18 -20 35 -44z m99 -39 c-12 -41 -15 -42
-32 -15 -9 15 -13 37 -9 63 l5 39 22 -28 c19 -23 21 -34 14 -59z m-274 -43
c-39 -16 -51 -4 -59 61 l-6 50 47 -49 48 -50 -30 -12z m-512 45 c43 -22 55
-42 37 -64 -10 -13 -17 -13 -48 1 -20 8 -47 25 -59 36 -13 12 -26 18 -30 15
-10 -11 26 -44 73 -66 45 -22 49 -27 36 -48 -9 -14 -103 25 -138 58 -14 13
-24 17 -28 10 -9 -14 61 -63 113 -81 41 -13 45 -20 33 -52 -7 -16 -10 -16 -48
1 -22 10 -57 33 -76 50 -20 17 -39 27 -42 22 -9 -13 50 -60 110 -88 42 -19 51
-27 47 -43 -6 -24 -13 -24 -57 -6 -110 46 -166 172 -107 240 42 48 107 54 184
15z m167 -33 c4 -20 6 -36 4 -36 -12 0 -74 35 -74 42 0 5 7 20 17 34 14 22 18
23 30 11 8 -8 18 -31 23 -51z m183 -19 c9 -11 17 -28 17 -38 0 -16 -3 -18 -18
-10 -43 23 -82 69 -82 97 l0 28 33 -29 c17 -16 40 -38 50 -48z m97 -9 c0 -5
-7 -11 -16 -15 -22 -8 -52 25 -60 67 l-7 35 42 -40 c22 -21 41 -43 41 -47z
m371 23 c-18 -32 -31 -25 -19 10 7 20 14 27 20 21 6 -6 6 -17 -1 -31z m-588
-2 c24 -20 37 -39 37 -55 0 -24 0 -24 -34 -7 -26 12 -37 25 -44 54 -5 22 -7
39 -3 39 3 0 23 -14 44 -31z m-143 -31 c0 -7 3 -24 7 -37 5 -21 3 -23 -18 -16
-32 10 -31 9 -18 39 13 27 29 35 29 14z m102 -57 c4 -28 3 -30 -21 -25 -36 9
-49 24 -57 63 l-7 33 40 -21 c31 -15 42 -27 45 -50z m162 -12 c-15 -25 -64 7
-64 42 0 19 2 18 35 -7 19 -14 32 -30 29 -35z m-70 -23 c7 -27 4 -29 -30 -16
-32 12 -44 26 -44 52 0 17 2 17 34 1 19 -9 37 -25 40 -37z m-165 -20 c4 -17 7
-33 5 -34 -8 -11 -73 24 -78 42 -11 41 -8 45 29 33 27 -8 37 -18 44 -41z m92
-34 c7 -34 3 -37 -34 -23 -19 8 -47 53 -47 77 0 2 17 -3 37 -10 30 -10 39 -19
44 -44z m109 48 c0 -5 -4 -10 -10 -10 -5 0 -10 5 -10 10 0 6 5 10 10 10 6 0
10 -4 10 -10z m-43 -46 c2 -6 -3 -19 -12 -29 -13 -17 -16 -18 -25 -5 -5 8 -10
25 -10 37 0 19 3 21 22 14 12 -4 23 -12 25 -17z m-233 -16 c9 -34 8 -38 -9
-38 -18 0 -30 24 -21 45 8 22 23 18 30 -7z m98 -43 c9 -36 8 -37 -30 -24 -20
7 -34 21 -41 41 -6 17 -11 32 -11 34 0 2 17 -3 37 -10 27 -9 39 -20 45 -41z
m80 -8 c14 -22 9 -47 -9 -47 -27 0 -41 13 -49 44 -7 28 -6 29 22 22 16 -4 32
-13 36 -19z m-154 -41 c17 -34 15 -35 -25 -24 -28 7 -33 13 -33 38 0 26 2 28
23 21 12 -4 28 -20 35 -35z m92 -26 c18 -33 12 -40 -22 -28 -18 6 -34 11 -35
12 -1 1 -4 13 -8 28 -7 27 -7 28 24 17 17 -6 36 -19 41 -29z m-179 -4 c5 -16
5 -34 2 -39 -7 -12 -110 -2 -128 13 -10 8 -15 8 -20 -1 -12 -19 17 -29 86 -29
49 0 68 -4 72 -15 7 -17 -43 -30 -120 -29 -51 0 -76 -14 -30 -18 33 -2 37 -2
105 5 50 5 62 4 62 -7 0 -10 -24 -20 -70 -30 -38 -9 -73 -15 -77 -14 -5 2 -8
-1 -8 -7 0 -13 64 -7 121 10 24 7 46 9 49 4 13 -21 -120 -81 -180 -81 -75 0
-115 43 -115 124 0 36 6 47 44 83 47 45 97 64 160 62 35 -2 41 -6 47 -31z
m1313 -6 c29 -35 41 -100 31 -166 -9 -62 -14 -74 -32 -74 -13 0 -15 13 -11 85
5 78 4 85 -13 85 -26 0 -32 -17 -15 -42 29 -41 17 -148 -15 -148 -18 0 -29
107 -20 180 11 82 3 106 -26 77 -16 -15 -16 -18 0 -35 13 -15 15 -31 11 -83
-4 -35 -2 -81 4 -101 16 -58 -5 -45 -23 14 -18 61 -19 100 -4 115 14 14 3 33
-17 33 -19 0 -29 -27 -16 -43 5 -6 12 -34 15 -62 3 -27 9 -58 12 -68 5 -13 3
-16 -8 -11 -36 13 -53 184 -23 230 35 52 111 60 150 14z m-1084 -11 c0 -23
-16 -25 -24 -3 -10 25 -7 34 9 28 8 -4 15 -15 15 -25z m1365 11 c24 -26 17
-98 -18 -173 -26 -56 -50 -78 -67 -61 -15 15 26 93 55 104 27 10 32 45 7 45
-14 0 -28 -22 -64 -97 -21 -44 -48 -64 -48 -36 0 28 73 156 92 161 26 7 20 42
-7 42 -14 0 -21 -8 -23 -25 -4 -30 -22 -52 -22 -27 0 10 -8 17 -19 17 -20 0
-53 -59 -80 -143 -7 -20 -18 -37 -26 -37 -25 0 23 148 63 194 49 55 124 72
157 36z m-1509 -15 c18 -5 40 -42 30 -52 -6 -6 -70 18 -78 29 -14 22 -9 40 10
34 9 -2 27 -7 38 -11z m83 -26 c17 -6 31 -15 31 -19 0 -5 3 -15 6 -24 5 -14 2
-14 -27 -4 -41 13 -35 9 -43 36 -8 26 -9 25 33 11z m-35 -72 c3 -12 3 -23 1
-25 -8 -8 -74 20 -79 34 -11 29 -6 32 33 22 27 -7 41 -17 45 -31z m1336 -39
c-33 -69 -68 -102 -56 -52 14 57 47 114 66 114 18 0 17 -5 -10 -62z m-1285 42
c23 -9 25 -13 15 -25 -14 -17 -40 -20 -40 -6 0 5 -3 16 -6 25 -7 19 -4 19 31
6z m-61 -50 c29 -11 33 -27 13 -54 -13 -17 -15 -16 -35 16 -32 51 -28 58 22
38z m1668 -17 c9 -8 22 -27 28 -43 25 -60 -56 -163 -157 -199 -39 -15 -38 -15
-47 22 -6 25 -3 29 30 43 24 10 50 13 75 9 35 -6 39 -4 39 14 0 28 -14 33 -47
17 -42 -21 -104 -39 -110 -32 -11 10 30 47 79 72 26 13 49 28 53 34 3 5 15 10
26 10 15 0 20 6 17 23 -4 29 -26 28 -41 -3 -7 -13 -26 -31 -42 -39 -17 -9 -47
-26 -68 -39 -34 -21 -38 -21 -35 -6 5 26 66 65 97 62 17 -2 26 2 29 15 4 20
-30 37 -36 19 -2 -7 -21 -21 -41 -32 -21 -10 -43 -26 -50 -34 -7 -9 -18 -13
-23 -10 -16 10 53 75 107 100 53 26 86 25 117 -3z m-1453 -38 c16 -8 45 -34
65 -57 36 -41 36 -43 16 -52 -22 -10 -24 -18 -11 -44 15 -29 50 -147 44 -152
-7 -8 -50 49 -76 100 -14 30 -21 61 -20 93 1 39 -2 47 -17 47 -24 0 -35 -17
-21 -34 6 -7 18 -35 26 -62 8 -27 28 -70 44 -96 34 -53 26 -63 -14 -20 -39 40
-75 116 -75 157 0 28 -4 35 -20 35 -13 0 -20 -7 -20 -20 0 -11 4 -20 8 -20 4
0 14 -17 21 -37 7 -21 29 -63 48 -93 l34 -55 -40 45 c-57 65 -102 143 -108
189 -11 78 44 114 116 76z m1146 -84 c40 -23 75 -77 75 -115 0 -17 -9 -51 -20
-75 -17 -37 -23 -42 -43 -37 -12 3 -53 6 -91 6 l-69 0 77 80 c79 83 95 120 52
120 -26 0 -85 -59 -126 -125 l-24 -40 -13 75 c-7 40 -15 80 -17 87 -6 15 26
31 84 43 42 9 75 3 115 -19z m-308 -18 c53 -25 79 -88 64 -159 -12 -63 -50
-154 -63 -154 -24 0 -48 23 -48 45 0 36 18 75 35 75 17 0 21 35 5 45 -14 9
-39 -12 -39 -33 0 -9 -6 -37 -13 -62 -10 -34 -17 -45 -30 -42 -14 3 -18 14
-18 48 0 49 23 114 39 114 6 0 11 9 11 21 0 32 -44 22 -47 -11 -2 -14 -6 -58
-9 -97 -6 -74 -15 -88 -34 -54 -16 31 -12 69 11 92 23 23 18 52 -8 47 -15 -3
-18 -15 -19 -83 0 -65 -3 -81 -16 -83 -20 -4 -30 36 -31 117 -1 99 33 161 99
181 45 13 73 11 111 -7z m-688 -120 c23 -69 26 -93 11 -93 -28 0 -77 144 -57
168 13 17 18 10 46 -75z m-331 45 c46 -22 152 -118 152 -137 0 -23 -30 -23
-66 0 -23 14 -44 38 -55 65 -31 69 -109 115 -109 63 0 -17 5 -20 32 -17 30 3
35 -1 62 -51 17 -32 42 -61 63 -73 18 -11 32 -23 29 -26 -6 -6 -148 88 -159
106 -4 6 -17 12 -28 12 -29 0 -20 -34 10 -38 24 -4 161 -90 161 -101 0 -4 -5
-12 -12 -19 -9 -9 -22 -6 -57 15 -142 81 -206 177 -148 218 26 19 62 14 125
-17z m1627 -62 c43 -18 58 -48 52 -102 -6 -59 -29 -91 -76 -105 -33 -10 -49
-8 -108 9 -61 19 -70 25 -81 55 -17 47 -15 57 9 57 34 0 79 -32 79 -57 0 -30
18 -39 38 -19 16 15 15 18 -13 41 -17 13 -45 30 -62 37 -43 16 -42 28 4 28 37
0 121 -41 136 -67 11 -17 33 -17 40 1 6 16 -17 41 -31 32 -5 -3 -24 4 -43 16
-19 12 -56 27 -84 34 l-50 13 74 -2 c48 -2 76 -7 79 -15 7 -21 42 -14 42 8 0
18 -7 20 -67 21 -38 1 -76 1 -85 0 -10 -1 -18 2 -18 8 0 22 117 27 165 7z
m-949 -56 c46 -20 124 -86 124 -105 0 -7 -11 -20 -24 -29 -24 -15 -26 -15 -55
21 -17 21 -31 48 -31 60 0 16 -6 23 -20 23 -32 0 -23 -27 25 -78 49 -51 52
-65 13 -70 -37 -4 -88 42 -88 79 0 22 -5 29 -20 29 -11 0 -20 -6 -20 -14 0
-22 62 -87 98 -102 47 -21 39 -34 -18 -34 -65 0 -103 32 -98 83 2 27 -1 33
-19 35 -39 6 -24 -44 31 -105 l19 -23 -20 0 c-36 0 -113 115 -113 169 0 29 31
60 75 76 44 15 80 11 141 -15z m-759 -65 c53 -16 114 -52 121 -72 9 -28 -101
-5 -112 23 -3 8 -13 14 -21 14 -25 0 -15 -44 10 -47 103 -13 125 -17 125 -23
0 -10 -52 -20 -100 -20 -43 0 -130 34 -130 50 0 6 -10 10 -22 8 -36 -5 -28
-32 12 -38 19 -4 45 -12 57 -18 12 -7 56 -12 97 -12 61 0 76 -3 76 -15 0 -29
-171 -14 -244 20 -65 31 -67 102 -4 130 43 18 73 18 135 0z m428 -23 c43 -15
54 -25 77 -67 15 -27 26 -50 25 -51 -1 -1 -33 6 -72 16 -121 32 -195 23 -195
-24 0 -34 42 -49 155 -54 l100 -4 -42 -45 c-43 -46 -43 -46 -95 -39 -128 17
-210 93 -194 179 6 33 40 73 81 95 30 17 103 14 160 -6z m1002 -6 c47 -24 60
-72 35 -129 -23 -51 -42 -68 -42 -37 0 16 -6 20 -27 18 -16 -1 -45 4 -66 11
-25 9 -58 11 -93 6 -66 -8 -73 8 -10 24 57 14 119 14 133 0 6 -6 16 -8 22 -5
13 8 15 33 3 40 -8 5 -157 -18 -194 -30 -9 -2 -19 -1 -22 4 -8 14 96 54 130
50 24 -2 30 1 32 20 3 17 -2 22 -17 22 -12 0 -21 -4 -21 -9 0 -5 -10 -12 -22
-16 -13 -3 -44 -16 -70 -27 -27 -12 -51 -18 -55 -15 -11 12 30 49 82 74 41 20
61 23 110 20 34 -2 75 -12 92 -21z m-404 -37 c116 -32 170 -172 104 -271 -77
-113 -251 -99 -308 26 -45 99 1 207 106 244 39 14 53 14 98 1z m304 -116 c29
-9 53 -20 53 -25 0 -4 8 -8 17 -8 14 0 15 -2 4 -12 -16 -17 -158 -16 -188 0
-33 18 -28 40 10 51 45 13 44 13 104 -6z m-1194 -17 c9 -22 -55 -40 -109 -31
-40 6 -44 4 -44 -14 0 -23 15 -26 52 -12 39 14 118 23 118 13 0 -16 -137 -55
-169 -49 -19 4 -33 1 -41 -8 -25 -30 18 -48 46 -20 9 8 26 15 40 15 13 0 47 9
76 20 28 11 54 17 57 15 9 -9 -42 -55 -84 -75 -23 -11 -53 -20 -68 -20 -20 0
-27 -5 -27 -20 0 -13 7 -20 20 -20 11 0 20 4 20 10 0 5 17 17 38 25 20 9 54
30 75 46 56 45 60 24 5 -26 -56 -51 -125 -85 -172 -85 -26 0 -40 7 -60 31 -66
78 -2 176 134 205 74 17 87 16 93 0z m606 -22 c24 -5 31 -12 31 -29 0 -41 -88
-43 -138 -4 l-24 18 29 6 c15 4 33 8 38 10 17 6 31 5 64 -1z m-145 -38 c-7
-17 13 -31 46 -32 114 -3 140 -5 140 -14 0 -12 -25 -18 -112 -28 -52 -7 -68
-5 -72 5 -7 18 -35 16 -43 -3 -11 -29 11 -33 107 -18 117 17 130 17 130 1 0
-29 -131 -80 -145 -58 -12 20 -45 13 -45 -10 0 -18 4 -20 48 -14 26 4 73 19
105 34 44 22 60 25 68 15 7 -9 0 -20 -28 -43 -105 -86 -211 -92 -272 -15 -38
48 -22 116 39 168 36 30 42 32 34 12z m652 -22 c64 -31 144 -137 144 -193 0
-31 -47 -80 -85 -87 -19 -3 -51 0 -71 6 -42 14 -148 113 -142 132 2 6 14 18
26 26 20 13 23 12 42 -20 14 -23 18 -42 14 -65 -5 -29 -3 -33 14 -33 12 0 23
4 26 9 6 8 -36 96 -55 116 -13 14 -11 35 4 35 15 0 59 -45 75 -76 6 -11 7 -26
2 -34 -4 -7 -6 -19 -3 -27 6 -16 29 -17 39 -2 9 16 -35 97 -73 132 -22 21 -29
35 -23 41 15 15 59 -22 97 -79 36 -55 60 -72 75 -57 17 17 1 44 -24 40 -16 -2
-28 7 -47 41 -15 25 -41 51 -58 60 -18 9 -33 24 -33 34 0 21 12 22 56 1z
m-996 -59 c0 -26 -39 -94 -60 -105 -27 -14 -25 -8 11 61 31 58 49 74 49 44z
m20 -42 c-20 -59 -60 -134 -69 -128 -12 7 -34 -22 -26 -35 8 -13 45 -13 45 1
0 6 13 39 29 73 16 33 33 73 36 89 4 15 11 27 16 27 24 0 -37 -177 -67 -197
-28 -18 -31 -38 -8 -47 20 -8 34 1 34 21 0 9 11 44 24 77 13 34 27 78 31 99 4
20 12 37 17 37 11 0 4 -41 -19 -115 -33 -106 -78 -165 -125 -165 -37 0 -63 39
-55 83 7 45 28 94 34 80 7 -20 43 -16 43 4 0 19 62 144 68 138 2 -2 -2 -21 -8
-42z m650 -118 c0 -42 -5 -59 -21 -74 -24 -22 -18 -41 12 -41 17 0 19 8 19 85
0 69 3 85 15 85 21 0 20 -81 -1 -143 -20 -60 -16 -102 11 -102 27 0 33 35 7
42 -19 5 -20 7 -6 46 8 23 16 66 18 97 4 48 7 55 26 58 22 4 22 1 18 -57 -3
-37 -11 -67 -21 -79 -23 -26 -22 -52 3 -52 16 0 20 6 19 28 0 15 4 45 10 67 6
22 11 56 11 75 2 63 19 2 19 -70 1 -117 -51 -185 -136 -178 -75 6 -96 90 -58
227 16 54 19 59 36 50 15 -8 19 -21 19 -64z m257 -395 c17 -10 37 -29 44 -42
19 -35 13 -102 -15 -163 -32 -70 -119 -165 -146 -158 -17 4 -13 13 31 66 137
164 151 247 42 247 -30 0 -49 6 -63 20 -26 26 -46 25 -107 -6 -76 -37 -143
-148 -173 -286 -10 -43 -18 -58 -33 -62 -12 -3 -23 -3 -26 0 -10 9 29 137 62
203 39 81 120 163 179 184 64 23 166 21 205 -3z m-597 -41 c92 -21 125 -77
124 -209 -1 -131 -16 -168 -79 -202 -28 -15 -53 -28 -56 -28 -3 0 11 33 32 74
68 136 73 217 16 260 -25 18 -28 19 -68 3 -29 -11 -47 -13 -60 -7 -30 16 -84
11 -106 -10 -37 -34 -48 -86 -46 -220 0 -69 7 -160 15 -203 12 -66 12 -80 1
-84 -33 -13 -106 125 -123 232 -24 149 31 289 137 352 37 21 114 46 163 52 3
0 25 -4 50 -10z m-646 -54 c22 -22 54 -114 92 -263 33 -131 43 -212 25 -212
-18 0 -42 72 -56 165 -8 53 -19 104 -25 115 -5 10 -10 28 -10 40 0 24 -26 38
-43 21 -8 -8 -5 -17 10 -33 28 -31 42 -78 53 -173 7 -60 17 -91 40 -128 17
-27 29 -52 26 -54 -10 -10 -76 128 -97 202 -29 106 -78 205 -101 205 -24 0
-23 -27 2 -40 27 -14 55 -73 80 -165 21 -78 43 -129 86 -197 13 -21 24 -48 24
-60 -1 -21 -3 -20 -31 12 -41 47 -64 95 -78 159 -21 101 -67 181 -104 181 -27
0 -17 -34 11 -38 28 -4 48 -42 72 -137 22 -87 40 -125 87 -182 24 -31 33 -51
31 -70 -3 -24 -11 -14 -64 77 -190 324 -242 500 -148 500 15 0 26 10 34 30 12
28 44 60 62 60 3 0 13 -7 22 -15z m1086 -4 c8 -17 14 -18 44 -9 97 30 85 -42
-31 -194 -70 -91 -84 -67 -22 36 16 27 27 51 24 54 -9 9 -23 -9 -60 -79 -19
-35 -35 -56 -35 -47 0 24 29 97 52 131 11 15 18 33 15 40 -6 19 -64 -79 -78
-134 -8 -29 -18 -49 -27 -49 -18 0 -8 51 23 107 13 24 19 45 15 48 -12 7 -56
-80 -65 -128 -4 -21 -13 -37 -21 -37 -24 0 60 213 104 263 20 23 49 22 62 -2z
m-547 -113 l25 -31 27 21 c15 12 38 22 51 22 21 0 24 -5 24 -38 0 -64 -87
-292 -111 -292 -16 0 -3 93 21 147 10 24 15 45 11 48 -17 10 -51 -93 -51 -154
0 -73 -16 -89 -26 -24 -4 30 -1 72 10 121 17 81 16 98 -5 60 -7 -13 -16 -74
-19 -138 -5 -100 -6 -109 -14 -71 -5 25 -12 76 -16 115 l-7 71 -1 -80 c-1 -44
3 -99 7 -122 9 -45 -2 -60 -13 -20 -14 49 -18 243 -6 300 11 54 37 97 59 97 5
0 21 -14 34 -32z m1029 -36 c89 -93 98 -214 23 -281 -50 -43 -168 -75 -178
-48 -4 10 8 18 36 27 50 15 115 46 140 68 24 21 21 55 -8 82 -17 16 -25 34
-25 57 0 96 -66 143 -154 109 -60 -23 -89 -47 -127 -106 -29 -44 -59 -65 -59
-41 0 23 100 133 149 163 78 49 135 40 203 -30z m-82 -40 c18 -15 21 -24 16
-49 -4 -18 -14 -37 -22 -44 -21 -17 -17 -29 10 -29 13 0 34 -9 47 -19 24 -19
24 -19 5 -40 -20 -22 -102 -51 -142 -51 -36 0 -37 27 -2 39 17 6 39 11 49 11
11 0 19 5 19 10 0 14 -27 12 -75 -5 -59 -21 -64 -1 -6 26 27 13 50 28 51 33 0
13 -50 -3 -82 -26 -47 -33 -47 -10 0 33 23 22 42 42 42 44 0 14 -26 0 -64 -35
-24 -23 -47 -37 -50 -32 -9 14 56 91 104 123 50 34 69 36 100 11z m-1271 -204
c1 -22 -4 -28 -19 -28 -21 0 -21 8 -3 75 l6 20 8 -20 c4 -11 8 -32 8 -47z m1
-68 c0 -23 -4 -30 -20 -30 -26 0 -28 46 -2 53 9 3 18 5 20 6 1 0 2 -12 2 -29z
m1879 -17 c28 -59 109 -173 122 -173 23 0 5 -21 -44 -48 -29 -17 -84 -54 -122
-83 -47 -36 -70 -48 -73 -39 -13 38 -67 128 -102 169 l-39 47 74 49 c41 26 91
65 111 86 21 22 41 39 44 39 3 0 16 -21 29 -47z m-1839 5 c0 -5 -4 -8 -10 -8
-5 0 -10 10 -10 23 0 18 2 19 10 7 5 -8 10 -18 10 -22z m1383 -45 c4 -20 4
-39 2 -42 -6 -5 -65 49 -65 60 0 4 10 10 23 12 12 2 25 5 28 6 4 0 9 -16 12
-36z m745 15 c17 -17 15 -39 -9 -103 -27 -72 -49 -74 -49 -5 0 51 22 120 37
120 5 0 14 -5 21 -12z m-2108 -17 c0 -19 -23 -35 -34 -24 -14 15 -5 43 14 43
13 0 20 -7 20 -19z m-53 -6 c7 -19 4 -22 -22 -27 -14 -2 -21 3 -23 20 -3 17 2
22 18 22 11 0 23 -7 27 -15z m1253 8 c0 -5 -9 -19 -20 -33 l-20 -25 0 33 c0
25 4 32 20 32 11 0 20 -3 20 -7z m112 -40 c26 -26 48 -56 48 -66 0 -18 -3 -17
-32 7 -64 52 -74 53 -113 16 -19 -19 -38 -31 -41 -27 -7 7 72 117 83 117 4 0
29 -21 55 -47z m-1302 -29 c0 -33 -33 -30 -38 4 -3 17 2 22 17 22 16 0 21 -6
21 -26z m-57 -5 c3 -13 0 -22 -9 -26 -20 -7 -38 11 -31 31 9 23 34 20 40 -5z
m91 6 c3 -8 1 -15 -4 -15 -6 0 -10 7 -10 15 0 8 2 15 4 15 2 0 6 -7 10 -15z
m-145 -37 c1 -5 -6 -8 -14 -8 -15 0 -21 31 -8 44 7 6 20 -17 22 -36z m1414
-28 c33 -30 44 -45 40 -60 -5 -19 -8 -18 -49 15 l-44 36 -37 -30 c-38 -31 -60
-29 -49 5 6 17 72 73 87 74 3 0 27 -18 52 -40z m-1236 15 c3 -12 -14 -42 -20
-35 -3 3 -8 16 -12 28 -6 19 -4 23 11 20 9 -1 19 -7 21 -13z m-107 -37 c0 -11
-8 -18 -20 -18 -11 0 -20 4 -20 9 0 5 -3 16 -6 24 -3 10 1 17 13 19 20 4 33
-9 33 -34z m54 26 c3 -9 4 -20 0 -25 -7 -12 -34 -12 -34 0 0 5 -3 16 -6 25 -4
11 0 16 14 16 11 0 23 -7 26 -16z m-116 -32 c4 -26 -22 -31 -32 -6 -10 26 -7
36 12 32 9 -2 18 -13 20 -26z m136 -21 c9 -14 -4 -41 -19 -41 -15 0 -28 27
-19 41 3 5 11 9 19 9 8 0 16 -4 19 -9z m-60 -17 c10 -26 7 -34 -14 -34 -25 0
-38 29 -19 41 20 12 26 11 33 -7z m1320 -23 c30 -30 36 -43 29 -56 -9 -15 -14
-12 -41 21 l-31 37 -43 -39 c-38 -34 -43 -36 -47 -19 -2 13 11 31 40 57 24 20
46 38 49 38 3 0 23 -18 44 -39z m780 -8 c20 -59 21 -93 1 -93 -20 0 -33 27
-41 88 -5 43 -4 52 9 52 9 0 21 -18 31 -47z m-2160 10 c7 -17 -12 -36 -26 -27
-4 3 -8 14 -8 25 0 23 25 25 34 2z m-45 -35 c1 -5 -6 -8 -14 -8 -15 0 -21 31
-8 44 7 6 20 -17 22 -36z m125 -4 c10 -26 7 -34 -14 -34 -25 0 -38 29 -19 41
20 12 26 11 33 -7z m-60 -20 c7 -19 -1 -34 -18 -34 -14 0 -28 35 -18 44 11 11
30 6 36 -10z m1349 -22 c26 -27 27 -29 9 -45 -17 -15 -19 -15 -36 14 l-18 31
-34 -33 c-20 -19 -34 -27 -34 -19 0 17 59 80 75 80 6 0 23 -13 38 -28z m-1400
-3 c3 -12 0 -22 -8 -25 -20 -8 -35 4 -35 27 0 26 36 25 43 -2z m110 -29 c-3
-11 -9 -17 -14 -14 -14 8 -10 34 5 34 9 0 12 -7 9 -20z m-35 -14 c9 -20 8 -25
-4 -30 -23 -9 -24 -8 -33 17 -5 14 -4 25 3 29 17 12 22 10 34 -16z m-54 -18
c4 -15 0 -27 -12 -36 -15 -11 -18 -9 -26 14 -6 19 -5 29 5 35 21 13 26 11 33
-13z m1336 -18 c8 -14 8 -26 0 -40 -14 -26 -30 -26 -30 -1 0 19 -2 19 -35 5
-47 -19 -38 3 13 33 20 12 38 22 39 23 1 0 7 -9 13 -20z m-1390 -27 c0 -7 -4
-13 -10 -13 -5 0 -10 12 -10 28 0 21 2 24 10 12 5 -8 10 -21 10 -27z m120 5
c0 -7 -4 -19 -9 -27 -11 -17 -25 3 -17 24 7 18 26 20 26 3z m-42 -33 c6 -14 8
-25 3 -25 -5 0 -16 -3 -24 -6 -18 -7 -31 37 -14 48 19 12 23 10 35 -17z m-59
-24 c11 -20 5 -31 -16 -31 -7 0 -13 11 -13 25 0 29 15 33 29 6z m73 -46 c-6
-33 -19 -40 -27 -15 -7 23 1 40 19 40 9 0 12 -9 8 -25z m-44 -19 c11 -25 7
-36 -14 -36 -13 0 -26 38 -18 52 9 14 20 9 32 -16z m-47 -59 c-8 -8 -11 -3
-11 19 1 25 2 27 11 11 8 -14 8 -22 0 -30z m69 -14 c-1 -27 -1 -27 -15 -9 -14
19 -12 36 6 36 5 0 9 -12 9 -27z m-29 -25 c10 -18 8 -24 -7 -35 -17 -12 -20
-11 -28 6 -10 22 -2 51 13 51 6 0 16 -10 22 -22z m11 -83 c-2 -19 -8 -35 -12
-35 -15 0 -22 41 -10 55 20 24 26 17 22 -20z"/>
<path d="M2653 7444 c-8 -21 13 -42 28 -27 13 13 5 43 -11 43 -6 0 -13 -7 -17
-16z"/>
<path d="M2615 7360 c-4 -7 -3 -16 3 -22 14 -14 45 -2 40 15 -6 16 -34 21 -43
7z"/>
<path d="M2577 7263 c-14 -13 -6 -33 13 -33 13 0 20 7 20 20 0 19 -20 27 -33
13z"/>
<path d="M1584 2866 c-44 -19 -64 -53 -64 -106 1 -67 45 -110 113 -110 54 0
107 52 107 104 0 52 -25 95 -65 112 -42 17 -51 17 -91 0z"/>
<path d="M2609 1494 c-13 -14 -50 -42 -81 -61 l-58 -36 32 -35 c17 -20 42 -60
55 -89 l24 -53 37 30 c20 16 63 44 94 63 l57 34 -34 33 c-19 18 -47 57 -62 87
-15 29 -31 53 -34 53 -3 0 -16 -12 -30 -26z"/>
<path d="M2798 4780 c-41 -73 -165 -217 -259 -299 -189 -168 -394 -301 -637
-417 -188 -89 -280 -171 -334 -294 -25 -57 -44 -186 -34 -225 l8 -30 12 40
c44 141 79 169 371 290 227 95 337 152 423 221 128 103 253 266 356 467 50 99
130 286 124 292 -2 2 -15 -18 -30 -45z m-488 -552 c-23 -19 -70 -25 -70 -9 0
5 19 20 43 34 36 22 42 23 46 9 2 -9 -7 -24 -19 -34z m-119 -56 c-12 -23 -45
-37 -62 -27 -6 4 5 17 28 30 43 26 49 26 34 -3z m208 15 c8 -10 3 -20 -22 -43
-59 -55 -67 -60 -78 -43 -33 53 60 134 100 86z m-299 -56 c0 -24 -37 -53 -65
-49 l-29 3 40 27 c42 29 54 33 54 19z m150 -31 c28 -28 25 -47 -12 -70 -42
-25 -42 -25 -56 5 -31 68 18 115 68 65z m-260 -40 c0 -19 -40 -50 -64 -50 -40
0 -39 18 1 39 42 22 63 26 63 11z m152 -27 c8 -10 18 -23 21 -29 7 -13 -23
-36 -61 -48 -19 -6 -25 -2 -36 26 -18 42 -6 68 33 68 15 0 35 -8 43 -17z
m-312 -53 c0 -10 -32 -30 -49 -30 -19 0 -12 17 12 28 28 14 37 14 37 2z m188
-6 c30 -21 28 -41 -8 -59 -38 -20 -50 -13 -50 29 0 50 17 59 58 30z m-108 -62
c19 -16 20 -19 7 -30 -8 -7 -31 -15 -50 -19 -41 -6 -58 19 -31 48 21 24 46 24
74 1z"/>
<path d="M2743 4461 c-111 -226 -219 -363 -352 -441 -36 -21 -142 -73 -236
-115 -219 -99 -296 -139 -330 -176 l-29 -29 190 0 c207 0 249 7 356 61 140 71
245 197 318 386 46 118 153 434 148 438 -2 1 -31 -55 -65 -124z m-277 -533 c4
-21 1 -35 -10 -46 -14 -15 -16 -15 -16 -1 0 9 -13 35 -30 57 -27 38 -28 42
-12 51 22 13 58 -20 68 -61z m-89 25 c7 -10 23 -35 34 -57 l21 -39 -22 -21
c-18 -17 -23 -18 -28 -7 -2 8 -17 38 -33 67 -25 49 -26 55 -11 64 23 13 23 13
39 -7z m-26 -101 c11 -33 7 -62 -8 -62 -4 0 -23 30 -42 66 -28 54 -32 67 -20
75 17 11 54 -30 70 -79z m-71 6 c35 -62 37 -84 10 -91 -12 -3 -20 0 -20 8 0 6
-13 38 -28 69 -16 30 -27 58 -24 61 15 15 35 0 62 -47z m-39 -59 c11 -34 10
-42 -2 -50 -23 -14 -39 -10 -39 9 0 10 -11 41 -25 68 -30 58 -29 52 -7 57 23
6 59 -34 73 -84z"/>
<path d="M958 3730 c-26 -27 -30 -36 -25 -68 8 -47 38 -72 88 -72 48 0 79 30
79 76 0 46 -9 63 -41 79 -42 22 -67 18 -101 -15z"/>
<path d="M1060 3530 c-28 -28 -27 -84 2 -104 53 -37 108 -8 108 57 0 60 -68
89 -110 47z"/>
<path d="M2896 3434 c-13 -13 -16 -43 -15 -177 1 -183 -14 -265 -71 -377 -77
-153 -239 -259 -471 -309 l-94 -21 90 6 c250 16 386 84 532 268 144 182 203
381 158 534 -23 78 -89 117 -129 76z"/>
<path d="M1160 3353 c-39 -14 -53 -69 -24 -97 22 -23 81 -21 94 3 28 53 -16
113 -70 94z"/>
<path d="M131 3316 c-9 -11 -10 -20 -2 -34 8 -14 7 -37 -1 -79 -19 -95 -16
-344 5 -443 36 -165 121 -325 229 -426 49 -46 98 -82 98 -70 0 2 -42 46 -94
98 -80 80 -100 107 -139 188 -25 52 -55 131 -67 175 -28 104 -37 291 -21 421
11 87 16 102 39 121 22 18 25 25 16 40 -14 23 -47 28 -63 9z"/>
<path d="M2709 3290 c-30 -17 -60 -109 -85 -262 -14 -83 -31 -163 -39 -178
-27 -52 -109 -110 -204 -145 -49 -18 -20 -18 58 0 219 52 381 242 381 446 0
102 -56 171 -111 139z"/>
<path d="M12 3188 c-14 -14 -16 -40 -3 -53 5 -6 11 -73 14 -150 5 -164 30
-263 102 -406 72 -146 220 -347 240 -327 5 4 -10 27 -33 52 -118 128 -224 322
-268 491 -34 132 -40 316 -11 338 25 18 19 61 -8 65 -11 1 -26 -3 -33 -10z"/>
<path d="M190 3105 c-64 -68 -14 -321 102 -520 59 -100 175 -213 265 -259 92
-46 103 -46 33 0 -109 71 -198 179 -240 290 -11 31 -34 141 -50 244 -30 190
-52 270 -74 270 -7 0 -23 -11 -36 -25z"/>
<path d="M53 2583 c-17 -6 -16 -48 0 -62 8 -6 19 -29 26 -50 25 -84 160 -253
233 -292 36 -19 17 7 -42 59 -67 60 -140 156 -165 220 -15 37 -16 47 -4 68 20
39 -9 74 -48 57z"/>
<path d="M2835 883 c-114 -157 -311 -293 -523 -362 -362 -118 -699 -45 -889
191 -20 26 -39 46 -41 44 -1 -2 8 -33 21 -69 112 -307 422 -424 841 -316 276
71 507 258 613 496 13 31 23 59 21 63 -2 4 -21 -17 -43 -47z"/>
</g>
</svg>
