<?xml version="1.0" standalone="no"?>
<!DOCTYPE svg PUBLIC "-//W3C//DTD SVG 20010904//EN"
 "http://www.w3.org/TR/2001/REC-SVG-20010904/DTD/svg10.dtd">
<svg version="1.0" xmlns="http://www.w3.org/2000/svg"
 width="327.000000pt" height="814.000000pt" viewBox="0 0 327.000000 814.000000"
 preserveAspectRatio="xMidYMid meet">

<g transform="translate(0.000000,814.000000) scale(0.100000,-0.100000)"
fill="#000000" stroke="none">
<path d="M2700 7898 c-50 -34 -72 -71 -78 -126 -5 -58 7 -86 51 -112 118 -72
271 58 178 151 -55 54 -131 28 -131 -46 0 -29 6 -39 33 -55 l32 -20 -33 0
c-22 0 -41 8 -59 26 -21 21 -25 32 -20 66 10 76 69 107 160 83 171 -44 160
-288 -15 -336 -46 -12 -89 -9 -160 11 -38 11 -57 12 -92 2 -37 -9 -51 -9 -80
3 -44 19 -83 19 -118 1 -19 -10 -45 -13 -87 -9 -66 6 -113 -7 -135 -38 -12
-18 -16 -18 -49 -4 -20 8 -58 15 -85 15 -63 0 -118 -38 -151 -104 -19 -40 -27
-47 -45 -41 -88 26 -122 28 -157 11 -69 -33 -72 -48 -80 -358 -4 -152 -10
-296 -13 -320 -4 -24 -25 -112 -48 -195 l-41 -153 -36 0 c-20 0 -46 -3 -58 -6
-20 -5 -23 -2 -23 19 0 30 -24 57 -50 57 -11 0 -24 9 -30 20 -8 14 -21 20 -45
20 -30 0 -35 3 -35 24 0 30 -22 48 -52 45 -14 -2 -32 5 -46 19 -24 24 -43 27
-73 11 -16 -8 -25 -7 -38 5 -24 21 -44 20 -66 -4 l-18 -20 -22 20 c-39 37 -93
22 -121 -33 -13 -25 -17 -58 -16 -149 1 -112 0 -118 -19 -118 -16 0 -19 -4
-13 -22 13 -45 43 -94 81 -138 l40 -44 -22 -46 c-13 -25 -28 -69 -34 -98 -14
-68 -14 -214 0 -283 6 -30 12 -121 14 -204 2 -89 9 -174 18 -209 10 -38 13
-85 10 -130 -4 -62 -2 -77 19 -116 67 -124 294 -136 363 -20 26 46 26 124 -1
170 -43 75 -160 105 -209 55 -24 -24 -31 -57 -19 -90 17 -44 136 -62 169 -25
22 24 35 12 35 -33 0 -43 -17 -67 -63 -88 -124 -56 -247 11 -247 134 0 46 3
52 58 106 75 76 130 92 214 64 87 -30 166 -82 254 -168 216 -212 354 -559 354
-889 0 -129 -17 -213 -62 -304 -33 -67 -125 -170 -175 -195 -30 -16 -133 -40
-140 -33 -2 2 14 25 37 51 45 52 49 80 11 80 -31 0 -60 -39 -76 -101 -10 -42
-16 -49 -50 -61 -21 -7 -40 -11 -43 -8 -3 2 12 23 32 45 51 57 47 91 -9 70
-28 -11 -55 -62 -55 -104 0 -19 -11 -31 -42 -50 -23 -14 -44 -23 -46 -21 -6 5
25 60 42 74 20 17 21 47 1 54 -29 12 -56 -25 -62 -86 -5 -48 -10 -61 -33 -77
-16 -11 -31 -20 -34 -20 -12 0 -6 36 9 56 31 42 5 103 -30 68 -13 -14 -16 -32
-13 -87 3 -64 1 -71 -21 -85 l-23 -16 7 60 c5 49 3 63 -9 73 -39 32 -60 -45
-36 -129 9 -31 7 -37 -12 -52 -13 -10 -26 -18 -30 -18 -5 0 -7 29 -5 64 2 70
-5 86 -31 70 -23 -15 -27 -73 -8 -119 16 -37 16 -37 -19 -73 l-35 -37 0 52 c0
67 -7 83 -36 83 -21 0 -24 -5 -24 -36 0 -20 10 -56 22 -80 18 -36 19 -48 10
-69 -17 -36 -31 -31 -38 15 -7 44 -26 65 -49 56 -31 -11 -16 -85 27 -132 18
-21 18 -23 2 -58 -10 -20 -21 -36 -25 -36 -9 0 -19 38 -19 72 0 21 -6 29 -26
34 -53 13 -55 -40 -3 -114 28 -41 29 -45 16 -82 -10 -31 -16 -37 -25 -28 -7 7
-12 24 -12 40 0 18 -8 33 -25 44 -31 20 -45 11 -45 -31 0 -32 13 -48 64 -80
14 -9 14 -16 4 -50 -6 -22 -13 -42 -15 -45 -7 -9 -23 25 -23 50 0 31 -17 50
-42 50 -47 0 -22 -87 31 -110 29 -12 31 -15 25 -54 -9 -58 -19 -63 -33 -17
-12 43 -42 61 -66 41 -34 -28 -6 -89 50 -110 22 -8 25 -16 25 -57 l0 -48 -33
39 c-28 33 -37 38 -60 32 -59 -14 -18 -86 58 -100 34 -7 35 -8 35 -54 l-1 -47
-28 33 c-22 26 -35 33 -57 30 -67 -7 -25 -79 55 -93 33 -5 40 -11 58 -54 l20
-49 -45 20 c-35 16 -49 18 -68 9 -13 -6 -24 -17 -24 -25 0 -25 31 -39 97 -45
38 -3 68 -11 70 -18 3 -8 -11 -10 -49 -7 -57 5 -84 -5 -75 -29 6 -16 71 -32
90 -21 6 4 -1 -8 -18 -27 -16 -19 -31 -36 -32 -38 -2 -2 -12 7 -23 21 -11 14
-32 29 -46 32 -62 16 -57 -50 5 -79 35 -15 39 -20 30 -37 -10 -19 -11 -18 -36
6 -34 34 -73 35 -73 2 0 -28 33 -56 67 -56 20 0 21 -3 12 -29 l-10 -29 -38 21
c-36 20 -71 19 -71 -3 0 -19 40 -50 65 -50 22 0 25 -4 25 -34 0 -34 -1 -35
-47 -38 -44 -3 -48 -5 -48 -28 0 -24 3 -25 52 -24 49 2 52 0 62 -27 10 -28 9
-29 -24 -29 -46 0 -65 -9 -65 -30 0 -23 28 -33 88 -29 46 3 92 -12 92 -31 0
-6 -9 -10 -20 -10 -32 0 -90 -27 -97 -46 -3 -9 0 -20 8 -25 27 -17 66 -9 109
22 42 31 42 31 75 13 l33 -18 -36 -26 c-49 -35 -65 -57 -58 -75 10 -28 48 -16
93 30 60 63 105 60 68 -5 -8 -14 -14 -37 -15 -52 0 -23 4 -28 24 -28 33 0 56
35 56 87 0 34 4 43 22 49 15 4 24 2 26 -6 8 -23 55 -61 71 -58 29 6 19 50 -16
74 -30 20 -31 23 -16 35 9 8 37 14 62 14 40 0 46 3 49 23 3 20 0 22 -46 22
-41 0 -51 3 -55 20 -4 15 1 22 18 26 45 11 42 64 -4 64 -15 0 -36 -7 -47 -15
-10 -8 -36 -15 -57 -15 -69 0 -94 -30 -67 -81 15 -27 64 -25 84 3 16 22 16 22
16 -10 0 -28 -5 -35 -32 -46 -34 -15 -85 -6 -100 16 -14 23 -9 102 10 138 60
121 253 65 323 -95 62 -140 20 -320 -138 -596 -87 -151 -103 -200 -103 -309 0
-88 19 -161 56 -215 34 -51 27 -92 -26 -145 -68 -68 -171 -72 -224 -9 -29 35
-33 67 -11 108 26 51 81 56 119 10 28 -32 29 -38 20 -63 -10 -25 -20 -19 -19
12 0 24 -3 27 -35 27 -32 0 -35 -3 -38 -32 -6 -57 68 -82 112 -37 18 18 21 76
6 105 -13 23 -61 49 -93 49 -25 0 -37 28 -37 87 0 20 -3 23 -22 17 -35 -11
-88 -34 -88 -38 0 -2 16 -24 36 -48 28 -33 33 -44 21 -46 -43 -9 -141 72 -173
143 l-23 50 0 -55 c-1 -112 36 -178 120 -207 51 -18 66 -43 26 -43 -13 0 -47
7 -76 16 -29 8 -55 14 -57 11 -2 -2 5 -31 17 -64 l20 -61 42 19 c55 25 92 24
130 -3 22 -16 50 -24 94 -26 54 -4 69 -1 108 23 40 23 97 85 107 117 3 8 19 5
51 -7 35 -13 65 -16 124 -13 117 7 210 55 248 129 12 23 22 27 77 31 78 7 151
42 201 97 41 46 44 41 20 -35 -13 -43 -14 -59 -5 -79 27 -60 80 -9 67 65 -6
35 -6 35 10 12 16 -22 16 -27 -4 -78 -15 -41 -18 -60 -11 -79 12 -31 35 -41
55 -25 13 11 14 8 9 -18 -11 -56 40 -99 65 -54 7 12 8 5 4 -25 -6 -47 7 -73
37 -73 10 0 21 7 24 16 9 25 7 90 -5 121 l-10 28 25 -24 c30 -29 32 -46 9
-117 -15 -49 -15 -54 1 -78 45 -70 85 12 52 106 -12 34 -12 36 3 29 9 -5 25
-18 35 -30 17 -19 17 -23 2 -67 -27 -79 -18 -124 25 -124 32 0 40 75 14 136
l-14 35 30 -18 c50 -29 52 -36 30 -98 -21 -60 -16 -100 14 -111 42 -16 62 75
30 136 -9 17 -13 30 -10 30 3 0 31 -13 63 -29 62 -31 211 -81 243 -81 37 0 19
15 -33 28 -58 13 -210 85 -229 108 -10 12 -4 14 35 14 62 0 108 24 104 53 -5
38 -59 35 -114 -7 -26 -20 -50 -36 -55 -36 -4 0 -21 11 -36 25 l-28 24 50 1
c65 0 100 18 100 50 0 21 -5 26 -33 28 -25 3 -42 -5 -76 -32 -23 -20 -47 -36
-53 -36 -5 0 -20 11 -33 25 l-23 25 49 0 c82 0 145 53 95 80 -31 16 -43 12
-100 -30 l-54 -41 -29 28 -29 28 58 6 c69 7 103 25 103 56 0 16 -8 25 -27 29
-28 8 -46 -1 -108 -50 l-36 -29 -24 29 -23 29 55 6 c30 4 66 12 79 19 27 15
33 55 8 64 -31 12 -53 5 -94 -29 -23 -19 -47 -35 -54 -35 -13 0 -56 41 -56 53
0 4 27 7 59 7 49 0 65 5 88 24 24 20 25 26 14 40 -23 27 -69 20 -114 -19 -22
-19 -46 -35 -53 -35 -10 0 -44 41 -44 55 0 3 21 5 46 5 57 0 114 25 114 51 0
23 -35 43 -62 36 -20 -6 -20 -5 1 14 26 24 26 35 2 49 -33 17 -58 11 -101 -25
-62 -52 -70 -47 -49 32 22 86 24 245 3 333 -24 106 -28 223 -10 330 18 104 64
213 98 231 18 9 19 8 13 -10 -11 -36 3 -60 40 -67 48 -9 74 3 92 41 19 40 11
94 -17 120 -32 29 -107 30 -160 3 -83 -43 -120 -149 -120 -348 l0 -104 -41 69
-42 68 6 131 c8 189 51 336 107 366 16 8 18 6 16 -22 -2 -43 38 -65 88 -48 63
20 74 117 19 160 -52 41 -167 15 -211 -47 -47 -66 -56 -117 -57 -311 l0 -183
-22 28 c-21 25 -23 39 -23 135 0 204 38 406 93 501 32 54 104 108 77 58 -28
-54 0 -91 70 -91 42 0 52 4 74 31 32 38 35 99 6 146 -23 39 -49 47 -134 41
-75 -5 -120 -31 -161 -93 -52 -80 -60 -130 -60 -365 0 -118 3 -235 7 -260 5
-28 5 -39 -1 -30 -16 26 -80 372 -93 498 -13 136 -6 176 67 381 32 91 37 114
33 174 -4 64 -6 72 -39 102 -98 89 -252 26 -294 -120 -47 -160 24 -482 176
-804 27 -57 49 -106 49 -108 0 -20 -197 244 -265 356 -202 332 -223 635 -66
956 94 192 279 406 379 439 116 39 232 -26 281 -159 36 -96 24 -180 -36 -246
-44 -49 -97 -67 -151 -51 -76 23 -125 112 -97 178 13 31 58 64 87 64 7 0 2 -6
-12 -13 -29 -15 -45 -54 -36 -90 5 -20 16 -29 45 -37 69 -18 114 13 114 81 0
106 -149 135 -219 43 -42 -55 -44 -124 -4 -192 78 -133 246 -169 415 -89 146
70 221 176 232 332 4 63 -11 174 -31 225 -5 13 9 18 78 28 93 14 146 32 176
62 28 28 26 58 -4 66 -21 5 -23 9 -14 24 13 21 4 50 -15 50 -7 0 -55 -20 -106
-45 l-93 -45 7 27 c3 15 7 28 8 29 1 0 29 6 62 13 106 23 165 65 165 118 0 12
-9 27 -20 33 -11 6 -17 16 -14 25 4 8 3 22 0 30 -5 14 -9 14 -38 -1 -18 -9
-52 -30 -75 -45 -23 -16 -44 -29 -47 -29 -3 0 -6 13 -6 29 0 27 5 31 53 47 28
9 73 27 99 40 72 36 100 91 59 114 -11 5 -21 20 -23 32 -5 38 -46 34 -117 -12
-34 -22 -61 -35 -59 -28 3 7 31 28 62 47 32 19 79 53 104 77 40 36 45 45 36
61 -6 10 -22 19 -36 21 -16 2 -28 11 -31 23 -9 32 -40 22 -92 -31 -27 -27 -51
-47 -54 -45 -3 3 32 41 78 83 76 72 82 81 79 113 -2 28 -7 35 -29 37 -17 2
-29 11 -32 23 -9 36 -48 19 -83 -34 -29 -44 -33 -47 -39 -28 -5 17 5 34 44 77
72 79 80 134 20 142 -13 2 -28 10 -32 18 -12 22 -31 17 -62 -16 -19 -19 -32
-27 -38 -21 -7 7 8 27 41 56 54 49 67 73 57 105 -4 14 -15 20 -36 20 -17 0
-37 7 -46 15 -22 22 -44 15 -69 -22 -20 -29 -23 -31 -35 -17 -12 14 -10 19 9
33 69 48 92 74 92 102 0 22 -7 32 -25 41 -14 6 -25 18 -25 25 0 10 -9 13 -27
11 -21 -2 -37 -16 -62 -55 -19 -29 -36 -52 -37 -50 0 1 -4 25 -8 52 l-6 50 50
27 c27 15 57 39 66 53 22 33 12 73 -21 81 -14 3 -25 12 -25 20 0 23 -46 16
-63 -8 l-16 -23 0 30 c-1 55 93 185 172 239 53 36 139 66 188 66 26 0 27 1 18
33 -21 75 -80 117 -165 117 l-51 0 66 68 c38 40 82 98 104 140 l38 72 -58 0
c-32 0 -85 -7 -118 -14 l-60 -14 30 20 c68 48 146 140 185 221 43 90 65 178
74 307 9 112 23 171 57 249 33 72 33 75 17 65 -7 -4 -8 -3 -4 5 4 6 11 9 16 6
4 -3 15 6 24 20 28 43 -2 28 -66 -32 -95 -91 -209 -271 -340 -538 -76 -155
-117 -273 -147 -421 -26 -126 -38 -325 -29 -480 6 -108 35 -315 55 -384 5 -20
-5 -14 -60 35 -83 74 -82 72 -82 385 0 177 5 262 18 345 54 332 123 535 244
718 25 37 42 71 38 75 -4 4 -46 9 -94 10 -73 3 -96 0 -139 -18 -63 -27 -138
-105 -176 -182 -16 -32 -35 -58 -43 -58 -9 0 -13 6 -10 14 3 7 15 45 26 83
l21 69 92 61 c114 75 196 110 204 88 9 -23 44 -19 44 5 0 46 -114 9 -251 -81
-77 -51 -90 -56 -84 -37 13 43 42 73 109 109 72 39 145 65 208 75 34 6 38 4
38 -15 0 -14 6 -21 20 -21 13 0 20 7 20 20 0 49 -117 33 -258 -35 -94 -45
-104 -42 -50 16 25 27 167 84 248 100 l45 8 -51 -4 c-29 -2 -86 -17 -128 -33
l-76 -30 21 29 c21 30 62 46 191 74 37 8 51 13 33 14 -16 0 -61 -8 -100 -19
-38 -10 -71 -17 -73 -15 -1 1 15 14 35 28 35 23 64 31 198 51 17 3 -1 3 -40 0
-38 -2 -81 -7 -95 -10 -25 -6 -24 -6 5 20 46 41 68 46 196 46 114 0 119 -1
119 -21 0 -14 5 -19 18 -17 9 2 17 12 17 23 0 19 -8 20 -138 23 l-139 3 25 19
c14 11 40 20 59 21 24 0 28 2 15 8 -16 6 -16 9 -5 18 38 30 82 43 155 45 l78
2 -70 5 -70 6 32 18 c22 11 57 18 110 19 l78 1 -60 7 -60 6 40 17 c22 10 65
31 96 47 47 25 68 30 127 30 83 0 102 -6 102 -31 0 -23 35 -26 43 -5 10 25
-19 37 -105 44 l-83 7 46 23 c25 12 64 22 87 22 36 0 44 -4 52 -25 12 -32 43
-34 38 -2 -2 18 -13 24 -58 33 -50 9 -53 11 -33 22 12 7 42 12 67 12 39 0 46
-3 46 -20 0 -13 7 -20 20 -20 13 0 20 7 20 20 0 20 -14 26 -75 33 l-30 3 45
23 c25 12 74 42 110 67 36 24 72 44 81 44 8 0 36 13 61 29 56 36 95 109 104
198 6 55 4 66 -20 106 -35 61 -106 97 -191 97 -48 0 -70 -5 -95 -22z m-216
-403 c34 -23 39 -24 59 -10 25 18 67 18 160 2 l68 -12 -48 -31 c-77 -50 -143
-86 -143 -79 0 3 7 20 16 36 8 17 14 42 12 57 -8 67 -72 0 -73 -76 0 -46 -1
-47 -50 -74 -27 -15 -53 -28 -56 -28 -3 0 3 27 14 59 24 72 18 111 -17 111
-17 0 -28 -10 -41 -36 -16 -35 -16 -68 1 -131 5 -19 -3 -26 -65 -57 -39 -20
-71 -35 -71 -33 0 2 9 30 20 62 24 70 26 138 4 159 -20 21 -30 20 -53 -3 -35
-35 -46 -94 -32 -164 7 -34 13 -66 14 -71 2 -9 -184 -117 -191 -111 -1 1 5 33
13 71 35 150 18 249 -43 242 -34 -4 -62 -52 -69 -120 -4 -44 0 -67 27 -136 18
-45 31 -84 29 -85 -99 -71 -149 -110 -159 -123 -7 -8 -25 -23 -40 -34 l-27
-19 18 82 c26 116 25 226 -2 261 -39 50 -101 23 -115 -50 -10 -53 2 -153 25
-213 12 -28 21 -72 21 -96 0 -39 -8 -55 -60 -126 -33 -44 -60 -76 -60 -71 0 6
7 44 16 84 10 46 18 158 22 309 6 201 10 239 25 263 35 53 83 55 173 6 l50
-28 11 41 c26 97 127 180 189 157 16 -6 41 -23 55 -36 l27 -26 15 23 c38 54
102 73 145 44 20 -15 24 -14 59 10 47 32 80 32 127 0z m-204 -643 c0 -9 -25
-33 -50 -48 -8 -4 -4 6 10 23 25 32 40 41 40 25z m-44 -80 c-7 -12 -46 -23
-46 -13 0 9 43 31 49 25 1 -1 0 -7 -3 -12z m-16 -41 c0 -10 -50 -25 -58 -17
-3 3 6 10 19 15 31 13 39 13 39 2z m-10 -40 c0 -5 -12 -14 -27 -19 -16 -5 -37
-13 -47 -18 -33 -13 -7 16 28 32 37 16 46 17 46 5z m-10 -39 c0 -5 -23 -16
-51 -25 -57 -18 -58 -12 -1 14 43 20 52 22 52 11z m-5 -41 c-7 -12 -115 -44
-123 -37 -2 3 1 8 9 11 102 37 125 42 114 26z m-368 -129 c4 -55 2 -75 -13
-103 l-19 -34 -6 67 c-4 48 -13 78 -32 106 l-26 40 37 9 c46 12 51 4 59 -85z
m363 90 c0 -5 -32 -18 -70 -29 -46 -14 -70 -17 -67 -9 2 6 30 19 63 28 71 20
74 20 74 10z m-1339 -43 c11 -5 24 -22 30 -36 l9 -25 21 26 c54 69 87 -18 58
-156 -12 -57 -36 -96 -26 -43 3 17 9 48 13 69 11 60 -11 36 -25 -29 -7 -30
-17 -55 -23 -55 -10 0 -8 21 8 103 3 15 1 27 -4 27 -5 0 -13 -21 -16 -47 -4
-27 -9 -56 -12 -65 -8 -26 -25 -22 -20 5 12 60 15 107 7 107 -5 0 -13 -29 -16
-65 -5 -45 -12 -65 -21 -65 -10 0 -15 18 -16 68 l-2 67 -3 -65 c-4 -58 -13
-79 -35 -80 -21 0 3 210 27 247 18 26 19 27 46 12z m892 -21 c26 -35 37 -146
16 -159 -23 -15 -26 -11 -33 41 -5 35 -16 60 -36 83 -27 32 -28 35 -12 51 22
22 40 17 65 -16z m447 22 c0 -5 -17 -14 -37 -19 -21 -6 -60 -17 -86 -25 -34
-10 -47 -11 -44 -3 2 6 35 22 73 34 78 25 94 27 94 13z m-1109 -21 c6 -12 8
-37 4 -58 l-6 -36 19 34 c10 19 26 39 35 45 22 14 47 -10 47 -46 0 -40 -89
-228 -107 -228 -10 0 -6 16 17 55 17 30 27 55 21 55 -6 0 -22 -20 -37 -45 -35
-61 -42 -51 -10 13 14 28 22 53 18 56 -5 3 -20 -20 -35 -50 -15 -29 -31 -54
-37 -54 -16 0 -12 17 15 69 13 27 21 52 17 55 -3 4 -21 -21 -39 -56 -39 -77
-42 -55 -8 72 36 131 60 166 86 119z m1109 -18 c0 -6 -5 -13 -11 -17 -22 -13
-189 -52 -189 -44 0 13 14 20 98 45 89 26 102 29 102 16z m-507 -32 c25 -34
35 -118 16 -130 -23 -15 -29 -10 -29 21 0 34 -20 79 -44 100 -13 10 -14 16 -5
27 17 19 38 13 62 -18z m495 -21 c-5 -14 -196 -63 -206 -54 -10 11 6 18 95 41
105 28 116 29 111 13z m-922 -32 c3 -8 1 -24 -6 -35 l-11 -21 32 19 c39 24 49
20 49 -18 0 -22 -9 -34 -40 -55 -22 -14 -40 -31 -40 -36 0 -5 -6 -7 -13 -4 -8
3 -28 -14 -48 -40 -19 -25 -38 -46 -42 -46 -9 0 -5 8 35 67 30 45 33 53 19 53
-5 0 -23 -22 -40 -50 -27 -43 -51 -64 -51 -44 0 19 75 159 101 189 34 38 47
43 55 21z m914 -20 c0 -22 -15 -28 -119 -47 -123 -23 -124 -23 -112 -1 6 11
41 24 103 39 114 26 128 27 128 9z m-20 -60 c-8 -8 -64 -29 -125 -47 -60 -17
-116 -34 -124 -37 -10 -4 -9 2 3 26 11 22 25 33 49 37 17 3 64 12 102 19 39 8
79 14 90 15 17 1 17 -1 5 -13z m-652 -29 c12 -13 11 -69 -8 -403 l-23 -389
-29 -24 c-32 -26 -88 -116 -88 -143 0 -17 -17 -34 -26 -26 -7 8 -72 326 -94
461 -52 316 1 499 153 538 42 10 97 3 115 -14z m283 6 c-5 -10 -45 -36 -88
-58 -63 -32 -84 -49 -108 -87 -17 -27 -38 -47 -48 -47 -17 -1 -16 2 5 40 45
82 160 165 231 168 14 1 16 -3 8 -16z m353 -27 c-3 -8 -66 -35 -139 -59 -129
-43 -133 -44 -123 -22 8 18 34 30 127 58 134 41 142 42 135 23z m-1122 -49
c32 -14 80 -47 108 -73 45 -42 50 -51 50 -89 0 -39 -4 -45 -37 -65 -35 -21
-39 -21 -104 -6 -38 8 -87 25 -110 36 -75 39 -171 142 -181 195 -4 26 31 35
132 31 66 -2 98 -9 142 -29z m741 3 c-3 -12 -27 -31 -58 -45 -32 -15 -62 -39
-76 -60 -23 -33 -39 -40 -46 -19 -6 18 59 85 111 114 61 35 76 37 69 10z
m-551 -37 c-11 -21 -22 -45 -24 -53 -5 -13 -7 -12 -13 2 -4 11 3 29 20 53 35
45 40 44 17 -2z m902 23 c-3 -8 -17 -19 -32 -25 -35 -13 -223 -81 -227 -81 -2
0 -1 9 2 20 4 14 34 29 122 59 131 44 143 47 135 27z m-45 -63 c-15 -17 -42
-30 -160 -73 -67 -25 -76 -27 -72 -11 3 12 41 30 121 59 64 22 119 41 121 41
2 1 -3 -6 -10 -16z m-49 -57 c0 -14 -103 -76 -147 -89 -50 -15 -53 -15 -53 2
0 14 23 27 93 53 96 37 107 41 107 34z m-415 -49 c37 -18 75 -61 75 -84 0 -31
-6 -29 -52 12 -21 20 -52 38 -68 42 -23 4 -30 11 -30 29 0 21 3 24 28 18 15
-4 36 -11 47 -17z m-573 -68 l58 -12 -44 -33 c-89 -68 -142 -142 -215 -304 -9
-20 -10 -7 -7 65 7 118 32 198 89 278 14 21 25 27 41 23 11 -3 47 -11 78 -17z
m574 -8 c41 -31 73 -76 61 -88 -4 -4 -22 8 -40 25 -18 17 -47 36 -65 43 -21 7
-32 18 -32 30 0 28 30 24 76 -10z m488 15 c-3 -7 -71 -44 -151 -82 -179 -85
-168 -81 -155 -58 6 11 75 49 154 86 157 73 160 74 152 54z m-87 -2 c-8 -9
-198 -94 -208 -94 -19 0 4 27 34 39 111 45 189 69 174 55z m-143 -13 c3 -4 -6
-13 -20 -20 -37 -16 -46 -14 -34 9 11 20 44 27 54 11z m-704 -15 c0 -2 3 -11
6 -20 4 -11 0 -16 -12 -16 -11 0 -33 -9 -51 -20 -31 -19 -52 -13 -37 11 14 24
94 62 94 45z m914 -31 c-4 -10 -59 -42 -128 -75 -148 -70 -166 -76 -166 -57 0
12 290 160 298 153 1 -2 -1 -11 -4 -21z m-894 -43 c0 -20 -64 -57 -81 -47 -28
18 14 65 58 65 16 0 23 -6 23 -18z m-117 -45 c14 -27 17 -48 12 -77 -8 -49
-25 -53 -25 -5 0 24 -9 45 -30 69 -28 32 -29 35 -13 45 26 15 36 9 56 -32z
m956 6 c-12 -14 -227 -123 -244 -123 -4 0 -5 7 -3 16 3 15 247 136 257 128 2
-2 -2 -11 -10 -21z m-993 -60 c18 -43 15 -77 -8 -81 -14 -3 -18 3 -18 23 0 14
-11 37 -25 51 -28 28 -30 35 -13 52 17 17 47 -4 64 -45z m622 -19 c-2 -20 -12
-29 -39 -38 -20 -7 -50 -23 -68 -35 -24 -17 -31 -19 -31 -7 0 29 93 104 133
106 5 0 7 -12 5 -26z m282 -4 c-28 -23 -143 -90 -153 -90 -4 0 -7 6 -7 13 0 8
39 32 88 55 101 47 105 48 72 22z m30 -34 c0 -7 -192 -118 -196 -113 -13 12
14 36 84 74 66 36 112 52 112 39z m66 -3 c-15 -16 -261 -161 -265 -157 -3 2 0
9 6 15 20 20 238 148 252 149 8 0 11 -3 7 -7z m54 -13 c8 -5 12 -11 10 -13
-16 -12 -319 -187 -325 -187 -3 0 -5 7 -3 15 2 12 279 192 298 194 3 0 12 -3
20 -9z m-440 -25 c0 -18 -5 -25 -19 -25 -10 0 -39 -11 -65 -25 -53 -28 -63
-14 -18 27 57 54 102 64 102 23z m-430 5 c0 -21 -7 -23 -62 -21 -97 4 -176
-46 -213 -135 -17 -42 -40 -46 -30 -6 15 64 90 143 152 162 40 12 153 12 153
0z m930 -47 c0 -8 -12 -13 -33 -13 -30 0 -80 -12 -142 -35 -11 -4 16 15 60 43
73 45 82 48 98 34 9 -8 17 -21 17 -29z m-923 -10 c4 -10 -7 -11 -39 -7 -84 12
-122 -8 -199 -103 -13 -17 -29 -16 -29 0 0 17 66 94 93 109 49 26 166 27 174
1z m23 -47 c0 -8 -24 -39 -54 -69 -46 -45 -58 -66 -76 -126 -19 -62 -25 -71
-46 -71 -29 0 -29 -4 -4 71 31 92 84 163 145 197 27 15 35 15 35 -2z m632 -54
c-24 -20 -59 -55 -78 -77 l-34 -40 2 34 c3 31 10 39 73 78 39 23 72 43 75 43
3 0 -14 -17 -38 -38z m-622 -17 c0 -17 -9 -29 -30 -40 -36 -18 -58 -50 -74
-107 -16 -53 -42 -67 -31 -17 12 55 46 119 82 155 40 40 53 43 53 9z m370 -35
c0 -13 -13 -25 -42 -38 -56 -24 -106 -76 -120 -124 -10 -34 -14 -37 -37 -32
-41 10 -43 17 -15 72 30 61 75 98 147 123 66 23 67 23 67 -1z m-552 -1 c-2 -6
-26 -13 -53 -16 -27 -2 -70 -13 -95 -24 -53 -24 -53 -24 -58 -10 -7 20 99 61
156 61 35 0 52 -4 50 -11z m-20 -41 c-3 -7 -26 -16 -52 -20 -27 -4 -62 -18
-82 -33 -30 -23 -34 -24 -34 -8 0 21 29 41 85 59 53 17 88 17 83 2z m586 -146
c4 -57 6 -105 4 -108 -3 -2 -40 12 -84 32 -83 38 -91 59 -10 24 26 -11 50 -20
53 -20 2 0 3 41 1 90 -2 76 -1 90 12 88 11 -3 17 -27 24 -106z m261 -37 c38 0
25 -45 -23 -82 -24 -18 -47 -33 -52 -33 -12 0 -18 61 -9 94 5 16 16 38 26 48
18 20 18 20 28 -4 6 -13 19 -23 30 -23z m-565 5 c28 -7 34 -33 9 -38 -9 -2
-39 11 -65 28 l-49 31 40 -7 c22 -4 51 -10 65 -14z m98 -54 c3 -24 0 -26 -31
-26 -42 0 -71 27 -35 32 15 2 22 9 20 20 -2 14 1 16 20 9 15 -5 24 -18 26 -35z
m50 2 c5 -7 12 -29 13 -48 l4 -35 -40 3 c-22 2 -46 9 -53 16 -11 11 -8 14 17
19 25 5 31 12 31 32 0 27 11 32 28 13z m66 -34 c10 -10 16 -33 16 -65 l0 -49
-44 0 c-35 0 -48 5 -61 23 -15 21 -15 22 20 25 34 3 35 5 35 43 0 42 9 48 34
23z m74 -108 l3 -66 -41 0 c-48 0 -80 14 -80 35 0 11 12 15 41 15 l40 0 -7 57
-7 57 24 -16 c21 -13 24 -25 27 -82z m72 -78 l0 -78 -49 0 c-45 0 -53 3 -75
33 -15 19 -26 37 -26 41 0 4 23 4 50 0 l50 -7 0 68 0 68 25 -23 c23 -21 25
-31 25 -102z m243 94 c-3 -14 1 -19 19 -18 18 1 24 -5 26 -24 2 -21 -6 -32
-40 -56 -66 -47 -66 -47 -83 -20 -18 27 -13 43 32 104 26 35 54 44 46 14z
m-204 -46 c8 -9 10 -37 6 -82 -10 -114 -10 -114 -55 -114 -27 0 -45 7 -60 22
-30 32 -25 38 30 31 l50 -6 0 82 c0 80 6 95 29 67z m50 -168 l-14 -93 -44 -3
c-37 -3 -48 1 -63 20 -26 34 -23 38 31 38 l48 0 7 53 c3 28 6 68 6 87 l0 34
22 -21 c21 -22 21 -24 7 -115z m216 52 c5 -17 10 -18 26 -9 27 14 49 5 49 -21
0 -21 -74 -100 -95 -100 -6 0 -20 17 -29 38 -14 30 -15 43 -6 67 18 46 44 58
55 25z m-155 -59 c-1 -43 -17 -171 -22 -177 -2 -2 -28 -1 -57 3 -44 5 -54 10
-66 34 -8 15 -15 30 -15 34 0 3 22 5 49 5 55 0 52 -4 67 105 4 28 9 54 12 59
10 17 32 -28 32 -63z m35 -148 l-17 -93 -53 0 c-35 0 -59 5 -69 16 -30 29 -19
37 43 31 l59 -5 7 77 c3 42 9 87 12 100 l6 24 15 -29 c13 -25 13 -38 -3 -121z
m195 47 c0 -16 4 -18 23 -11 64 23 63 -30 -1 -100 l-49 -53 -16 49 c-22 62
-21 71 4 106 24 34 39 37 39 9z m-142 -20 c9 -24 6 -44 -17 -112 l-28 -83 -58
2 c-32 1 -59 3 -60 5 -2 2 -6 15 -10 30 l-7 28 60 -6 60 -7 16 71 c9 39 16 78
16 86 0 27 17 18 28 -14z m20 -206 c-23 -53 -36 -73 -48 -70 -8 3 -39 8 -67
11 -29 4 -53 11 -53 15 0 5 -3 16 -6 25 -6 15 1 16 57 13 l63 -3 23 65 c13 36
26 72 29 80 4 10 11 2 20 -23 13 -37 12 -43 -18 -113z m212 51 c0 -23 2 -25
21 -14 17 9 24 8 36 -4 21 -20 8 -41 -68 -112 -62 -56 -63 -57 -72 -34 -13 37
-2 94 30 144 31 50 53 58 53 20z m-160 -56 c0 -35 -55 -149 -72 -149 -6 0 -38
7 -70 16 -39 11 -59 23 -64 36 -9 29 -1 31 70 21 l65 -9 26 63 c28 65 45 74
45 22z m22 -85 c1 -23 -10 -46 -45 -92 l-47 -61 -59 21 c-51 18 -60 25 -63 50
-5 33 -6 33 71 9 68 -21 65 -23 105 57 15 30 29 52 31 50 3 -2 5 -18 7 -34z
m183 -34 c-6 -18 -2 -20 34 -20 73 0 46 -36 -91 -124 l-58 -37 0 47 c0 41 6
53 46 100 47 55 81 72 69 34z m-165 -66 c0 -13 -92 -133 -102 -134 -4 0 -32
11 -61 24 -42 18 -55 30 -59 50 -6 30 -3 31 43 12 75 -30 73 -31 119 30 32 42
45 53 51 43 5 -8 9 -19 9 -25z m-53 -162 l-54 -54 -57 36 c-37 24 -56 42 -56
56 0 19 2 18 62 -7 l61 -27 43 50 c24 27 44 54 45 59 1 6 4 -5 6 -24 4 -30 -2
-40 -50 -89z m259 42 c-5 -19 -3 -24 14 -24 11 0 24 -8 27 -17 10 -25 -56 -77
-130 -101 l-62 -20 -3 49 c-3 56 5 67 92 119 55 32 71 30 62 -6z m-206 -56 c0
-28 -9 -40 -60 -82 l-61 -48 -54 36 c-54 35 -65 55 -46 85 8 12 18 8 58 -17
28 -18 54 -32 59 -32 6 0 30 20 54 45 24 25 45 45 47 45 2 0 3 -15 3 -32z
m-12 -114 c-7 -15 -39 -44 -70 -66 l-57 -40 -48 34 c-29 21 -49 43 -51 57 -6
41 12 44 65 12 28 -17 54 -31 59 -31 5 1 32 21 59 45 52 46 69 42 43 -11z
m192 -33 c-14 -27 -13 -31 9 -31 26 0 34 -15 27 -46 -8 -29 -84 -69 -155 -80
l-44 -7 8 39 c9 49 14 55 87 104 67 44 84 50 68 21z m-200 -47 c-10 -44 -18
-51 -91 -92 l-56 -32 -56 40 -56 40 14 33 c16 37 21 37 77 -3 22 -17 46 -30
52 -29 6 0 34 18 61 39 28 21 53 39 56 39 4 1 3 -15 -1 -35z m-204 -106 c44
-33 59 -40 72 -32 91 56 112 65 112 51 0 -39 -22 -64 -83 -96 l-65 -34 -60 53
c-55 48 -59 55 -50 76 6 13 13 24 15 24 2 0 29 -19 59 -42z m33 -128 c6 0 35
14 64 30 63 35 67 36 60 11 -6 -25 -25 -41 -93 -79 l-55 -30 -69 62 -69 62 18
28 18 27 58 -56 c31 -30 62 -55 68 -55z m391 91 c-5 -11 -20 -27 -32 -35 -22
-16 -21 -16 20 -16 50 0 56 -18 17 -49 -28 -22 -143 -51 -201 -51 -34 0 -36 1
-29 27 10 42 23 53 119 100 101 49 122 53 106 24z m-489 -117 l70 -65 64 36
c36 20 65 34 65 32 0 -3 -7 -21 -15 -41 -11 -26 -28 -42 -65 -61 -27 -14 -55
-25 -61 -25 -7 0 -47 33 -89 74 -72 70 -75 75 -60 95 8 11 16 20 18 21 1 0 34
-30 73 -66z m-41 -69 c41 -41 83 -75 93 -75 10 0 36 9 57 20 45 23 49 16 20
-40 -20 -39 -54 -70 -76 -70 -7 0 -24 20 -38 44 -33 56 -99 113 -147 128 l-38
11 22 28 c11 16 23 29 27 29 3 0 39 -34 80 -75z m-502 -174 c-2 -8 -9 -16 -15
-19 -9 -2 -13 8 -13 35 1 36 1 37 16 18 8 -11 13 -26 12 -34z m-52 -59 c-15
-15 -16 -12 -16 34 0 65 13 78 23 24 7 -34 5 -46 -7 -58z m-26 19 c0 -26 -7
-56 -15 -67 -13 -17 -14 -13 -15 47 0 36 3 69 6 72 15 14 24 -7 24 -52z m-60
-135 c-7 -7 -10 14 -10 70 0 105 14 119 18 18 2 -44 -2 -82 -8 -88z m-20 53
c0 -68 -3 -90 -12 -86 -20 7 -14 177 7 177 3 0 5 -41 5 -91z m-40 -9 c0 -40
-4 -70 -10 -70 -6 0 -10 30 -10 70 0 40 4 70 10 70 6 0 10 -30 10 -70z m-35
-58 c-11 -12 -25 14 -25 47 0 56 14 59 22 5 4 -27 5 -50 3 -52z m-45 31 c0
-36 0 -36 -19 -17 -17 17 -17 21 -3 37 21 23 22 22 22 -20z m-29 -37 c10 -21
15 -23 35 -16 19 8 24 6 24 -6 0 -12 7 -14 30 -9 22 5 32 3 36 -9 8 -20 -36
-126 -51 -126 -24 0 -24 14 0 46 32 42 33 67 3 62 -17 -2 -27 -15 -38 -45 -10
-29 -20 -43 -32 -43 -25 0 -22 12 7 40 31 29 34 70 5 70 -11 0 -23 -7 -27 -17
-5 -14 -8 -13 -14 5 -17 46 -55 14 -73 -61 -6 -27 -31 -34 -31 -9 0 16 94 142
106 142 5 0 14 -11 20 -24z m-28 -108 c-4 -19 -12 -28 -24 -28 -25 0 -24 8 3
37 26 27 28 26 21 -9z m27 -54 c73 -16 83 -22 71 -42 -6 -10 -16 -9 -44 3 -20
8 -70 18 -111 22 -57 4 -73 9 -69 19 7 19 67 18 153 -2z m13 -51 c36 -11 47
-19 47 -35 0 -14 -5 -18 -16 -14 -35 14 -158 27 -190 21 -24 -4 -34 -2 -34 7
0 18 12 34 30 41 22 8 107 -2 163 -20z m-7 -54 c26 -7 44 -17 44 -26 0 -11
-11 -13 -62 -6 -35 4 -91 7 -125 7 -59 -1 -77 8 -56 29 10 11 150 8 199 -4z
m26 -57 c6 -6 8 -15 4 -19 -8 -8 -243 -9 -251 -1 -3 3 -2 13 1 23 6 16 19 17
121 13 67 -3 118 -9 125 -16z m-232 -92 c0 -58 -1 -60 -26 -60 -25 0 -26 2
-19 36 18 99 45 113 45 24z m58 -8 c3 -61 3 -62 -24 -62 -27 0 -27 1 -21 55 6
61 13 78 30 72 7 -2 13 -30 15 -65z m60 -5 c3 -67 -1 -73 -32 -61 -20 8 -23
103 -4 122 23 23 33 5 36 -61z m52 -3 c0 -57 -2 -65 -17 -62 -14 2 -19 15 -21
56 -3 52 11 88 29 76 5 -3 9 -34 9 -70z m51 1 c-11 -73 -14 -80 -30 -70 -24
14 -8 132 18 138 9 2 18 2 19 1 2 -1 -1 -33 -7 -69z m473 -54 c52 -82 69 -120
47 -107 -13 8 -121 184 -121 197 0 21 19 -3 74 -90z m-40 -1 c58 -94 61 -100
48 -100 -11 0 -122 163 -122 179 0 28 22 4 74 -79z m69 30 c20 -33 37 -70 37
-82 0 -16 -15 0 -50 55 -55 86 -55 87 -37 87 6 0 29 -27 50 -60z m-108 -41
c32 -44 54 -83 51 -86 -7 -8 -2 -13 -65 75 -46 64 -60 92 -47 92 3 0 30 -36
61 -81z m135 40 c15 -28 5 -23 -15 7 -9 15 -12 23 -6 20 6 -4 16 -16 21 -27z
m-160 -60 c37 -51 49 -74 41 -82 -13 -13 -7 -18 -64 67 -39 59 -49 86 -32 86
2 0 27 -32 55 -71z m-31 -28 c42 -61 47 -71 32 -71 -8 0 -91 113 -91 124 0 19
22 -1 59 -53z m-471 37 c89 -8 122 -15 122 -25 0 -7 -6 -13 -12 -13 -37 0
-244 34 -252 41 -13 12 -5 12 142 -3z m446 -63 c33 -51 37 -66 11 -47 -29 20
-70 102 -51 102 2 0 20 -25 40 -55z m-470 26 c136 -21 146 -25 146 -47 0 -17
0 -17 -115 -4 -177 19 -173 18 -167 45 2 14 5 25 7 25 1 0 59 -9 129 -19z
m432 -38 c15 -21 18 -33 6 -33 -5 0 -14 11 -20 25 -13 29 -5 33 14 8z m-413
-27 c118 -13 133 -17 124 -33 -9 -14 -287 19 -287 34 0 16 13 16 163 -1z m657
-8 c0 -29 -19 -40 -68 -42 -38 -1 -57 -7 -75 -25 -21 -19 -28 -21 -47 -11 -12
7 -35 10 -51 8 -22 -3 -30 0 -35 15 -3 10 -1 24 5 30 12 12 64 12 86 -1 11 -6
31 -1 62 15 50 25 123 31 123 11z m367 -232 c50 -58 16 -166 -52 -166 -63 0
-82 38 -44 91 l20 29 -30 0 c-43 0 -102 -56 -134 -127 -30 -69 -56 -188 -66
-310 l-7 -88 -8 87 c-19 199 26 402 102 471 59 53 178 60 219 13z m-1002 -30
c91 -10 100 -13 97 -31 -2 -11 -6 -22 -8 -24 -6 -7 -228 31 -241 42 -22 17
-14 27 20 26 17 0 77 -6 132 -13z m181 -48 c17 -33 16 -33 -3 -15 -52 46 -58
-2 -6 -55 l36 -37 -24 -20 -24 -19 -33 39 c-36 42 -87 56 -80 22 3 -15 27 -35
83 -68 16 -10 16 -12 -3 -35 l-19 -24 -32 27 c-36 30 -91 37 -91 12 0 -17 40
-39 87 -49 30 -7 31 -9 21 -32 -13 -28 -17 -29 -54 -9 -37 19 -94 20 -94 2 0
-19 44 -37 88 -37 37 0 38 -1 34 -34 l-4 -34 -66 2 c-58 1 -67 -2 -70 -18 -4
-17 2 -18 62 -14 63 4 66 3 66 -19 0 -15 -6 -23 -18 -23 -10 0 -36 -9 -57 -20
l-40 -21 -23 27 c-30 34 -24 79 15 111 22 18 25 25 15 35 -19 19 -15 66 7 80
15 9 18 19 14 40 -5 25 -2 30 24 40 24 9 28 16 25 37 -5 34 28 64 68 63 27 -1
30 2 30 32 0 18 3 36 7 39 16 17 44 5 59 -25z m-213 -9 c42 -7 77 -16 77 -21
0 -16 -50 -19 -116 -6 -52 10 -70 18 -72 32 -3 13 1 17 15 13 10 -3 53 -11 96
-18z m256 -78 c0 -14 -1 -14 -6 -1 -3 8 -10 24 -15 35 -9 20 -9 20 6 1 9 -11
16 -27 15 -35z m-237 23 c31 -9 9 -34 -25 -28 -66 11 -75 14 -81 30 -5 14 0
15 41 10 27 -4 56 -9 65 -12z m8 -54 c0 -19 -51 -23 -68 -6 -15 15 -13 16 26
16 23 0 42 -4 42 -10z m247 -40 c-81 -53 -137 -148 -137 -232 0 -29 -4 -38
-16 -38 -14 0 -16 8 -11 57 8 75 56 170 113 223 43 39 46 41 59 23 13 -16 12
-20 -8 -33z m-297 -15 c0 -17 -4 -18 -37 -9 -33 9 -28 24 7 24 20 0 30 -5 30
-15z m333 -2 c4 -3 -2 -12 -13 -20 -11 -8 -20 -20 -20 -28 0 -7 -9 -17 -20
-20 -11 -3 -20 -14 -20 -23 0 -10 -9 -23 -21 -30 -13 -8 -19 -21 -17 -36 1
-13 -2 -29 -9 -37 -6 -8 -12 -23 -14 -33 -7 -35 -24 -16 -21 22 4 65 31 118
82 166 49 46 61 52 73 39z m-349 -34 c18 -17 -4 -22 -44 -10 -47 14 -44 36 3
26 18 -4 36 -11 41 -16z m1086 1 c41 -41 14 -130 -39 -130 -50 0 -65 27 -36
66 22 29 18 37 -12 29 -32 -7 -79 -48 -98 -85 -18 -35 -43 -133 -54 -216 -9
-62 -9 -55 -7 61 4 144 18 200 64 248 35 37 56 46 115 46 34 1 52 -4 67 -19z
m-696 -31 c13 -23 15 -34 7 -42 -15 -15 -66 35 -58 57 10 25 31 19 51 -15z
m-412 -5 c4 -3 8 -9 8 -14 0 -9 -87 13 -98 26 -8 7 76 -3 90 -12z m-47 -25
c45 -11 82 -39 53 -39 -29 0 -128 23 -128 30 0 22 16 24 75 9z m416 -8 c19
-16 21 -22 12 -32 -17 -17 -63 7 -63 33 0 23 22 23 51 -1z m63 -75 c-19 -19
-34 -43 -34 -55 0 -16 -6 -21 -25 -21 -14 0 -25 5 -25 10 0 27 30 79 61 104
29 25 34 26 45 12 9 -14 6 -22 -22 -50z m-475 33 c37 -8 50 -14 42 -22 -12
-12 -141 19 -141 35 0 6 10 8 23 4 12 -3 46 -10 76 -17z m378 -4 c31 -21 19
-49 -16 -40 -34 8 -45 20 -38 39 8 20 26 20 54 1z m-358 -51 c9 -9 -122 6
-133 16 -4 5 -5 13 -2 18 6 10 120 -19 135 -34z m-21 -25 c12 -5 22 -16 22
-25 0 -12 -6 -15 -22 -11 -13 3 -49 9 -80 12 -54 7 -70 19 -51 38 8 8 97 -2
131 -14z m377 1 c0 -10 -12 -16 -37 -18 -33 -3 -38 0 -38 18 0 18 5 21 38 18
25 -2 37 -8 37 -18z m-422 -46 c31 -4 65 -13 74 -20 16 -12 15 -13 -12 -14
-16 0 -60 3 -97 7 -59 5 -68 9 -68 26 0 15 5 18 23 13 13 -3 49 -8 80 -12z
m347 -25 c11 -19 10 -20 -17 -6 -15 8 -35 17 -43 20 -8 3 -1 6 17 6 23 1 36
-5 43 -20z m54 -1 c15 -57 -7 -65 -30 -10 -12 29 -11 32 5 32 11 0 21 -10 25
-22z m56 -32 c0 -25 -4 -47 -9 -51 -13 -7 -17 2 -26 53 -6 38 -5 42 14 42 18
0 21 -6 21 -44z m859 18 c42 -54 17 -124 -45 -124 -43 0 -54 22 -31 62 16 27
16 28 -8 28 -33 0 -79 -42 -103 -94 -19 -40 -46 -152 -56 -236 -2 -19 -3 24
-2 95 2 110 6 138 24 180 38 84 79 114 159 115 33 0 46 -5 62 -26z m-811 -35
c2 -25 -2 -58 -8 -75 -11 -27 -12 -28 -25 -10 -10 13 -11 25 -4 43 5 13 9 40
9 59 0 53 24 37 28 -17z m-485 25 c43 -4 67 -10 64 -18 -5 -15 -49 -19 -124
-11 -54 6 -63 9 -63 27 0 16 5 19 28 14 15 -3 58 -8 95 -12z m537 -53 c0 -61
-14 -117 -36 -140 -22 -24 -28 29 -10 83 9 26 16 62 16 81 0 24 5 35 15 35 12
0 15 -13 15 -59z m53 24 c17 -42 -35 -215 -74 -251 -18 -17 -19 -16 -19 18 0
20 7 41 15 48 20 17 45 103 45 157 0 30 4 43 14 43 8 0 16 -7 19 -15z m57 -38
c0 -7 -7 -42 -14 -78 -17 -80 -51 -150 -100 -204 l-35 -40 -1 28 c0 17 12 43
30 65 43 54 70 123 77 196 5 60 7 64 24 55 11 -5 19 -15 19 -22z m-615 3 c0
-11 -15 -16 -62 -18 -54 -3 -63 0 -73 18 -11 20 -10 21 62 18 57 -2 73 -6 73
-18z m655 -37 c0 -43 -30 -145 -62 -211 -28 -56 -154 -209 -164 -199 -13 12
34 98 77 144 62 66 107 159 115 240 5 46 10 60 20 56 8 -3 14 -16 14 -30z
m-662 -5 c-7 -20 -94 -23 -101 -3 -5 12 3 15 49 15 40 0 55 -4 52 -12z m704
-39 c-10 -91 -89 -251 -168 -338 -42 -47 -132 -116 -141 -108 -3 3 35 45 84
94 115 114 164 203 198 366 8 40 31 28 27 -14z m-712 -9 c0 -23 -4 -24 -32 -9
-17 9 -18 13 -7 20 23 15 39 10 39 -11z m746 -43 c-16 -114 -98 -253 -206
-348 -62 -55 -180 -135 -180 -122 1 16 27 39 98 87 120 80 219 225 259 380 20
75 38 77 29 3z m84 -86 c0 -86 -17 -131 -66 -178 -24 -24 -44 -52 -44 -63 0
-54 -65 -124 -125 -136 -26 -4 -35 -11 -35 -26 0 -38 -41 -99 -86 -128 -77
-48 -199 -60 -199 -19 0 10 18 15 71 19 88 6 136 36 179 109 21 35 40 54 61
61 56 19 100 78 105 145 3 31 10 44 32 58 43 27 67 89 67 176 0 73 0 74 20 56
15 -14 20 -31 20 -74z m45 -11 c-3 -5 -10 -10 -16 -10 -5 0 -9 5 -9 10 0 6 7
10 16 10 8 0 12 -4 9 -10z m5 -50 c0 -13 -7 -20 -20 -20 -22 0 -23 1 -14 24 9
23 34 20 34 -4z m34 5 c3 -8 1 -15 -4 -15 -6 0 -10 7 -10 15 0 8 2 15 4 15 2
0 6 -7 10 -15z m26 -55 c0 -13 -7 -20 -20 -20 -13 0 -20 7 -20 20 0 13 7 20
20 20 13 0 20 -7 20 -20z m-50 -9 c0 -10 -9 -21 -19 -24 -24 -6 -31 0 -31 25
0 13 7 18 25 18 18 0 25 -5 25 -19z m90 -58 c0 -7 -4 -13 -10 -13 -5 0 -10 12
-10 28 0 21 2 24 10 12 5 -8 10 -21 10 -27z m-32 5 c-5 -34 -38 -37 -38 -4 0
20 5 26 21 26 15 0 20 -5 17 -22z m-58 -13 c0 -18 -5 -25 -20 -25 -20 0 -28
28 -13 43 15 16 33 6 33 -18z m-57 -27 c-2 -5 -8 -8 -14 -8 -11 0 -12 33 -2
44 8 8 23 -25 16 -36z m-33 8 c0 -15 -24 -28 -34 -19 -7 7 13 33 25 33 5 0 9
-6 9 -14z m150 -25 c0 -10 -7 -22 -15 -25 -20 -7 -32 23 -14 35 21 13 29 11
29 -10z m-53 -7 c3 -9 0 -20 -8 -25 -21 -13 -29 -11 -29 9 0 33 26 44 37 16z
m-57 -14 c0 -11 -7 -20 -15 -20 -15 0 -21 21 -8 33 12 13 23 7 23 -13z m-40
-10 c0 -13 -7 -20 -20 -20 -19 0 -27 20 -13 33 13 14 33 6 33 -13z m-54 -27
c-11 -11 -19 6 -11 24 8 17 8 17 12 0 3 -10 2 -21 -1 -24z m287 -30 c27 -106
24 -113 -51 -113 -64 0 -65 8 -19 98 23 45 44 82 47 82 3 0 13 -30 23 -67z
m-83 39 c0 -5 -7 -17 -15 -28 -14 -18 -14 -18 -15 9 0 17 5 27 15 27 8 0 15
-4 15 -8z m-50 -27 c0 -18 -5 -25 -20 -25 -20 0 -28 28 -13 43 15 16 33 6 33
-18z m-55 -10 c0 -10 -6 -20 -12 -22 -8 -3 -13 5 -13 22 0 17 5 25 13 23 6 -3
12 -13 12 -23z m-47 -7 c-5 -32 -28 -35 -28 -4 0 17 5 26 16 26 10 0 14 -7 12
-22z m-48 -7 c0 -21 -26 -36 -36 -20 -9 15 3 39 21 39 8 0 15 -9 15 -19z m-50
-21 c0 -5 -5 -10 -11 -10 -5 0 -7 5 -4 10 3 6 8 10 11 10 2 0 4 -4 4 -10z
m196 -25 c-3 -8 -10 -15 -16 -15 -14 0 -12 37 3 43 15 5 21 -8 13 -28z m-46 0
c0 -16 -6 -25 -15 -25 -15 0 -21 31 -8 43 13 14 23 6 23 -18z m-50 11 c0 -2 3
-11 6 -20 4 -12 0 -16 -15 -16 -14 0 -21 6 -21 20 0 11 7 20 15 20 8 0 15 -2
15 -4z m-50 -26 c0 -13 -7 -20 -20 -20 -19 0 -27 20 -13 33 13 14 33 6 33 -13z
m-50 -4 c0 -8 -7 -16 -15 -20 -10 -4 -15 1 -15 14 0 11 7 20 15 20 8 0 15 -6
15 -14z m-50 -11 c0 -8 -7 -15 -15 -15 -8 0 -15 7 -15 15 0 8 7 15 15 15 8 0
15 -7 15 -15z m-50 -10 c0 -8 -4 -15 -9 -15 -13 0 -22 16 -14 24 11 11 23 6
23 -9z m257 -11 c2 -5 -3 -19 -11 -29 -14 -19 -15 -19 -21 -2 -4 9 -4 24 -1
33 6 16 27 15 33 -2z m-107 -19 c0 -18 -5 -25 -20 -25 -25 0 -27 37 -2 43 9 3
18 5 20 6 1 0 2 -10 2 -24z m60 0 c0 -18 -5 -25 -20 -25 -15 0 -20 7 -20 25 0
18 5 25 20 25 15 0 20 -7 20 -25z m-110 -5 c0 -11 -7 -20 -15 -20 -8 0 -15 9
-15 20 0 11 7 20 15 20 8 0 15 -9 15 -20z m-100 -10 c0 -13 -7 -20 -20 -20
-19 0 -27 20 -13 33 13 14 33 6 33 -13z m48 3 c-5 -25 -28 -28 -28 -4 0 12 6
21 16 21 9 0 14 -7 12 -17z m312 -42 c-2 -28 -67 -71 -107 -71 -38 0 -40 4
-15 35 16 20 20 21 28 7 13 -19 44 -9 44 14 0 9 -9 18 -20 21 -16 4 -18 9 -9
19 9 11 17 10 45 -3 19 -9 34 -19 34 -22z m-153 -6 c-4 -8 -13 -15 -22 -15
-21 0 -19 28 3 32 22 5 26 2 19 -17z m247 -30 c-4 -23 -9 -32 -14 -25 -10 16
-40 5 -40 -14 0 -22 19 -30 36 -15 13 11 14 9 8 -17 -9 -40 -18 -48 -48 -40
-36 9 -64 53 -48 75 7 9 19 30 27 48 10 22 23 33 42 35 39 5 45 -4 37 -47z
m-454 19 c0 -8 -9 -14 -20 -14 -22 0 -28 26 -7 33 16 6 27 -1 27 -19z m50 12
c0 -20 -19 -31 -32 -18 -6 6 -7 15 -4 21 10 16 36 13 36 -3z m50 0 c0 -20 -19
-31 -32 -18 -6 6 -7 15 -4 21 10 16 36 13 36 -3z m50 -1 c0 -8 -9 -15 -20 -15
-11 0 -20 7 -20 15 0 8 9 15 20 15 11 0 20 -7 20 -15z m-210 -10 c0 -8 -7 -15
-16 -15 -14 0 -14 3 -4 15 7 8 14 15 16 15 2 0 4 -7 4 -15z m56 -36 c9 -15
-11 -33 -30 -26 -9 4 -13 13 -10 22 7 17 30 20 40 4z m54 -3 c0 -20 -19 -31
-32 -18 -6 6 -7 15 -4 21 10 16 36 13 36 -3z m50 -1 c0 -8 -9 -15 -20 -15 -20
0 -26 11 -13 23 12 13 33 7 33 -8z m50 0 c0 -8 -9 -15 -20 -15 -20 0 -26 11
-13 23 12 13 33 7 33 -8z m-260 -10 c0 -8 -4 -15 -10 -15 -5 0 -10 7 -10 15 0
8 5 15 10 15 6 0 10 -7 10 -15z m48 3 c-6 -18 -28 -21 -28 -4 0 9 7 16 16 16
9 0 14 -5 12 -12z m-62 -75 c-14 -14 -23 4 -13 27 l10 25 5 -23 c2 -13 1 -26
-2 -29z m59 21 c0 -10 -8 -20 -17 -22 -18 -3 -26 27 -11 42 12 11 28 0 28 -20z
m63 -2 c3 -18 -1 -22 -22 -22 -19 0 -26 5 -26 18 0 39 43 43 48 4z m50 0 c3
-17 -2 -22 -17 -22 -16 0 -21 6 -21 26 0 33 33 30 38 -4z m52 3 c0 -18 -5 -25
-20 -25 -20 0 -28 28 -13 43 15 16 33 6 33 -18z m40 21 c0 -2 -7 -9 -15 -16
-12 -10 -15 -10 -15 4 0 9 7 16 15 16 8 0 15 -2 15 -4z m-480 -27 c-7 -11 -14
-18 -17 -15 -8 8 5 36 17 36 7 0 7 -6 0 -21z m43 1 c-3 -11 -12 -20 -20 -20
-11 0 -11 4 -3 20 6 11 15 20 19 20 5 0 7 -9 4 -20z m47 13 c0 -5 -4 -15 -10
-23 -11 -18 -25 -7 -17 15 6 15 27 21 27 8z m40 -13 c0 -11 -7 -20 -15 -20
-15 0 -21 21 -8 33 12 13 23 7 23 -13z m50 0 c0 -13 -7 -20 -19 -20 -14 0 -18
5 -14 20 3 11 12 20 19 20 8 0 14 -9 14 -20z m494 -22 c26 -40 26 -43 10 -55
-10 -7 -32 -13 -50 -13 -37 0 -74 38 -74 76 0 19 6 23 38 27 20 2 40 4 43 5 3
1 18 -17 33 -40z m-123 -81 c21 -17 21 -18 4 -37 -10 -11 -30 -20 -44 -20 -25
0 -91 33 -91 46 0 3 21 31 47 61 l48 56 7 -44 c5 -26 16 -51 29 -62z m-531 49
c0 -15 -18 -31 -26 -23 -7 7 7 37 17 37 5 0 9 -6 9 -14z m53 -6 c-3 -11 -12
-20 -19 -20 -8 0 -14 9 -14 20 0 13 7 20 19 20 14 0 18 -5 14 -20z m45 3 c-5
-25 -28 -28 -28 -4 0 12 6 21 16 21 9 0 14 -7 12 -17z m52 -3 c0 -13 -7 -20
-20 -20 -22 0 -23 1 -14 24 9 23 34 20 34 -4z m40 0 c0 -11 -4 -20 -10 -20 -5
0 -10 9 -10 20 0 11 5 20 10 20 6 0 10 -9 10 -20z m60 0 c0 -13 -7 -20 -20
-20 -13 0 -20 7 -20 20 0 13 7 20 20 20 13 0 20 -7 20 -20z m63 0 c-3 -11 -14
-20 -24 -20 -12 0 -19 7 -19 20 0 14 7 20 24 20 19 0 23 -4 19 -20z m55 3 c-5
-26 -38 -29 -38 -4 0 15 6 21 21 21 14 0 19 -5 17 -17z m32 13 c0 -3 -4 -8
-10 -11 -5 -3 -10 -1 -10 4 0 6 5 11 10 11 6 0 10 -2 10 -4z m314 -67 c-19
-39 -101 -119 -120 -119 -7 0 -21 11 -30 25 -15 23 -15 27 -1 49 10 15 29 25
55 29 21 4 47 16 57 27 10 11 27 20 37 20 18 0 18 -2 2 -31z m-734 1 c0 -20
-25 -38 -36 -27 -8 7 15 47 26 47 6 0 10 -9 10 -20z m60 -5 c0 -20 -5 -25 -26
-25 -14 0 -23 3 -21 8 2 4 7 15 10 25 10 27 37 21 37 -8z m50 13 c0 -20 -16
-41 -28 -37 -6 3 -6 13 -1 27 9 23 29 30 29 10z m50 -13 c0 -18 -5 -25 -20
-25 -21 0 -24 8 -14 34 10 25 34 19 34 -9z m40 0 c0 -14 -4 -25 -10 -25 -11 0
-14 33 -3 43 11 11 13 8 13 -18z m68 3 c-4 -30 -48 -39 -48 -10 0 10 3 22 7
25 3 4 15 7 25 7 14 0 19 -6 16 -22z m62 3 c0 -19 -25 -35 -40 -26 -4 3 -6 14
-3 25 7 26 43 27 43 1z m566 -46 c-22 -19 -42 -35 -46 -35 -3 0 -14 13 -23 29
l-17 30 47 4 c27 2 55 4 63 5 8 1 -3 -14 -24 -33z m-476 -57 c-21 -60 -56 -76
-116 -53 -24 9 -44 20 -44 24 0 4 19 21 43 38 23 17 53 41 66 52 l25 22 20
-21 c19 -19 20 -22 6 -62z m441 -30 c105 -149 218 -267 364 -384 31 -24 -4 -5
-68 39 -132 88 -265 224 -360 366 -30 45 -34 58 -25 75 11 20 12 20 22 2 6
-10 36 -54 67 -98z m-675 55 c-11 -11 -19 6 -11 24 8 17 8 17 12 0 3 -10 2
-21 -1 -24z m77 30 c11 -10 -13 -33 -34 -33 -18 0 -26 20 -12 33 8 9 38 9 46
0z m-283 -7 c0 -2 -3 -11 -6 -20 -9 -23 -24 -20 -24 4 0 11 7 20 15 20 8 0 15
-2 15 -4z m70 0 c0 -20 -16 -36 -36 -36 -26 0 -27 1 -18 24 5 14 54 24 54 12z
m40 -16 c-12 -23 -30 -27 -30 -7 0 17 10 27 27 27 11 0 11 -5 3 -20z m60 5 c0
-8 -9 -15 -20 -15 -11 0 -20 7 -20 15 0 8 9 15 20 15 11 0 20 -7 20 -15z m403
-50 c15 -32 15 -33 -6 -39 -12 -3 -36 -6 -54 -6 -27 0 -33 5 -43 35 -6 19 -9
38 -7 42 3 5 25 7 50 5 39 -3 46 -8 60 -37z m-523 0 c0 -10 -10 -15 -32 -15
-31 1 -32 1 -14 15 25 19 46 19 46 0z m50 -5 c0 -11 -7 -20 -15 -20 -15 0 -21
21 -8 33 12 13 23 7 23 -13z m63 0 c-3 -11 -14 -20 -24 -20 -12 0 -19 7 -19
20 0 14 7 20 24 20 19 0 23 -4 19 -20z m45 8 c-6 -18 -28 -21 -28 -4 0 9 7 16
16 16 9 0 14 -5 12 -12z m-170 -60 c-3 -23 -48 -41 -48 -20 0 6 -3 17 -6 26
-5 13 1 16 26 16 27 0 31 -3 28 -22z m52 8 c0 -8 -7 -16 -15 -20 -15 -5 -21
14 -8 27 11 12 23 8 23 -7z m170 -21 c14 -41 6 -72 -20 -80 -23 -7 -47 4 -79
38 l-23 26 48 25 c27 14 52 25 56 26 3 0 12 -16 18 -35z m162 -15 c16 0 17 -3
8 -20 -15 -29 -81 -90 -96 -90 -23 0 -46 45 -38 75 8 31 37 46 78 40 16 -3 37
-5 48 -5z m-305 -50 c3 -29 -21 -65 -37 -55 -8 5 -8 11 1 21 6 7 9 21 5 29 -7
20 -36 19 -36 -1 0 -14 -2 -14 -16 -3 -14 12 -12 15 17 25 47 17 64 13 66 -16z
m783 -24 c0 -12 -5 -28 -10 -36 -7 -11 -10 -6 -10 22 0 20 -3 45 -6 55 -5 16
-4 16 10 -1 9 -11 16 -29 16 -40z m-720 -36 c0 -15 -7 -20 -25 -20 -27 0 -32
9 -13 28 18 18 38 14 38 -8z m83 3 c29 -15 30 -17 12 -24 -41 -16 -60 -10 -60
16 0 29 5 30 48 8z m701 -54 l-9 -33 -11 53 -11 52 20 -20 c17 -16 19 -25 11
-52z"/>
<path d="M1340 6171 c-13 -25 -13 -48 0 -56 5 -3 7 0 4 9 -7 19 13 56 31 56
20 0 19 -29 -2 -52 -9 -10 -11 -18 -5 -18 14 0 32 33 32 59 0 28 -45 29 -60 2z"/>
<path d="M1260 6050 c-13 -25 -10 -62 7 -67 19 -7 55 36 51 60 -4 30 -43 35
-58 7z m50 -3 c0 -20 -30 -58 -41 -52 -13 9 -11 39 3 53 16 16 38 15 38 -1z"/>
<path d="M1382 6048 c-15 -15 -16 -64 -1 -73 14 -9 49 24 48 44 0 10 -3 8 -9
-6 -11 -27 -40 -31 -40 -5 0 27 16 46 34 39 9 -4 16 -2 16 3 0 14 -34 12 -48
-2z"/>
<path d="M1277 5932 c-22 -24 -22 -61 0 -69 10 -4 23 2 35 17 36 45 3 94 -35
52z m43 -10 c0 -11 -9 -27 -20 -37 -17 -16 -20 -16 -26 -2 -7 20 13 57 31 57
8 0 15 -8 15 -18z"/>
<path d="M1372 5898 c-7 -7 -12 -25 -12 -40 0 -21 5 -28 20 -28 23 0 55 44 46
65 -7 18 -37 20 -54 3z m43 -8 c9 -14 -13 -50 -30 -50 -18 0 -20 31 -3 48 15
15 25 15 33 2z"/>
<path d="M1286 5788 c-21 -29 -20 -57 1 -65 21 -8 55 33 51 61 -4 29 -33 31
-52 4z m40 -2 c7 -19 -13 -56 -31 -56 -17 0 -19 23 -5 51 13 22 28 25 36 5z"/>
<path d="M1402 5758 c-14 -14 -16 -64 -3 -72 25 -16 73 47 56 73 -8 15 -38 14
-53 -1z m43 -8 c9 -14 -23 -62 -35 -55 -14 9 -12 39 2 53 15 15 25 15 33 2z"/>
<path d="M1317 5652 c-24 -27 -22 -72 3 -72 26 0 54 43 45 70 -8 25 -27 26
-48 2z m39 -6 c7 -19 -13 -56 -31 -56 -18 0 -20 41 -3 58 16 16 27 15 34 -2z"/>
<path d="M1397 5594 c-14 -14 -7 -26 8 -14 16 13 35 6 35 -15 0 -18 -25 -26
-39 -12 -8 8 -11 8 -11 0 0 -19 33 -25 49 -8 12 12 13 19 5 33 -12 19 -36 27
-47 16z"/>
<path d="M1324 5506 c-10 -26 4 -48 28 -44 17 2 23 10 23 28 0 18 -6 26 -23
28 -13 2 -25 -3 -28 -12z m46 -16 c0 -11 -6 -20 -14 -20 -18 0 -29 16 -21 30
11 18 35 11 35 -10z"/>
<path d="M825 6181 c49 -51 161 -108 233 -116 66 -9 69 6 10 65 -62 62 -110
83 -203 88 l-80 4 40 -41z"/>
<path d="M1623 1194 c-3 -8 -1 -20 6 -27 14 -14 47 15 37 32 -10 16 -36 13
-43 -5z"/>
<path d="M1524 926 c-7 -19 3 -36 22 -36 10 0 14 8 12 22 -4 26 -26 36 -34 14z"/>
<path d="M1386 864 c-4 -10 -2 -22 3 -27 14 -14 43 0 39 20 -4 24 -34 28 -42
7z"/>
<path d="M1522 788 c2 -13 10 -23 18 -23 8 0 16 10 18 23 3 17 -2 22 -18 22
-16 0 -21 -5 -18 -22z"/>
<path d="M1247 744 c-16 -16 -7 -44 14 -44 15 0 20 5 17 22 -3 22 -19 33 -31
22z"/>
<path d="M1400 725 c0 -8 9 -15 20 -15 11 0 20 7 20 15 0 8 -9 15 -20 15 -11
0 -20 -7 -20 -15z"/>
<path d="M1084 639 c-9 -15 12 -33 30 -26 9 4 16 13 16 22 0 17 -35 21 -46 4z"/>
<path d="M1222 598 c2 -13 10 -23 18 -23 8 0 16 10 18 23 3 17 -2 22 -18 22
-16 0 -21 -5 -18 -22z"/>
<path d="M2722 7378 c2 -12 10 -23 18 -23 22 0 19 39 -3 43 -15 3 -18 -1 -15
-20z"/>
<path d="M1152 7364 c-16 -11 -34 -14 -58 -9 -30 5 -39 2 -65 -24 -17 -18 -41
-31 -55 -31 -37 0 -89 -25 -108 -51 -21 -31 -20 -39 5 -39 26 0 84 -59 121
-122 33 -58 62 -77 127 -85 39 -4 56 -12 67 -29 18 -26 104 -234 104 -250 0
-5 -26 14 -57 43 -69 64 -178 120 -252 129 -63 8 -63 8 -8 -85 47 -79 108
-143 167 -175 47 -25 60 -28 117 -23 l64 5 -3 -89 c-2 -75 -1 -89 12 -87 12 3
15 22 15 95 l1 92 37 25 c46 31 51 32 77 6 25 -25 26 -72 1 -94 -22 -20 -52
-18 -59 3 -3 8 0 11 6 7 17 -10 42 5 42 25 0 13 -7 19 -24 19 -31 0 -50 -24
-42 -54 11 -45 77 -42 101 5 22 42 18 67 -15 100 l-30 30 23 42 c18 35 22 58
22 137 0 54 -6 111 -14 133 l-13 39 -25 -24 c-32 -30 -78 -129 -94 -203 -14
-66 -28 -103 -29 -72 0 9 -11 45 -25 78 l-25 61 36 41 c37 44 48 71 42 108 -3
25 -33 38 -49 22 -5 -5 -13 -33 -19 -63 -14 -73 -25 -81 -46 -36 l-18 36 32
31 c18 18 39 54 49 86 10 33 28 64 45 78 29 24 126 65 155 65 13 0 10 7 -11
29 -34 36 -102 56 -157 47 -36 -6 -43 -3 -61 19 -23 30 -71 34 -106 9z m71
-12 c-2 -6 -46 -77 -99 -157 l-97 -146 -19 31 -19 31 82 117 c45 64 89 122 97
129 17 14 58 10 55 -5z m37 -20 c0 -14 -139 -224 -164 -247 -14 -13 -26 -31
-26 -40 0 -17 -16 -20 -25 -5 -8 13 193 312 205 305 6 -4 10 -9 10 -13z m-185
-19 c-10 -16 -38 -57 -62 -92 -24 -35 -42 -65 -40 -67 2 -2 31 37 65 86 35 50
70 90 79 90 11 0 13 -4 6 -12 -5 -7 -38 -52 -72 -100 -34 -49 -66 -88 -71 -88
-5 0 -11 9 -15 20 -4 13 8 44 36 92 52 91 58 98 76 98 13 0 13 -4 -2 -27z
m298 11 c6 -6 -134 -194 -160 -216 -33 -27 -20 8 37 99 72 114 99 140 123 117z
m-133 -114 c-43 -70 -67 -100 -81 -100 -10 0 -19 2 -19 4 0 3 27 48 61 100 52
81 82 111 98 100 2 -2 -25 -48 -59 -104z m175 104 c14 -6 13 -9 -6 -30 -27
-29 -14 -32 16 -4 19 18 24 18 40 6 18 -13 17 -15 -23 -25 -23 -7 -46 -10 -50
-7 -11 7 -86 -65 -121 -116 -18 -27 -37 -48 -42 -48 -6 0 2 17 18 38 86 114
146 192 148 192 2 0 11 -3 20 -6z m-445 -41 c0 -5 -9 -23 -21 -42 -15 -24 -23
-31 -31 -23 -8 8 -8 16 2 27 7 8 10 18 7 21 -3 3 -10 -4 -17 -15 -11 -21 -40
-29 -40 -11 0 14 47 43 59 36 5 -4 12 -2 16 4 7 12 25 14 25 3z m13 -43 c-24
-43 -43 -63 -43 -45 0 8 31 68 42 83 26 31 26 7 1 -38z m285 -136 c-7 -15 -14
-21 -16 -15 -2 7 2 18 8 26 18 22 21 18 8 -11z m190 -112 c0 -22 -7 -33 -29
-46 -17 -10 -28 -20 -26 -23 3 -2 17 3 31 13 47 30 40 6 -8 -27 -25 -18 -44
-35 -42 -37 3 -2 21 8 41 23 35 27 55 29 39 3 -5 -7 -7 -21 -6 -30 2 -12 -15
-26 -57 -48 -76 -38 -80 -26 -6 19 31 19 54 36 51 38 -2 2 -23 -7 -46 -22 -41
-26 -65 -30 -36 -6 8 7 13 18 10 25 -3 7 2 18 10 25 8 7 13 18 10 26 -3 7 10
24 28 39 18 14 28 26 21 26 -7 0 -10 7 -7 15 10 24 21 17 22 -13z m-377 -181
c1 -24 1 -24 7 -4 11 37 34 12 30 -33 l-3 -39 -32 49 c-36 55 -40 68 -18 60 8
-4 15 -18 16 -33z m374 9 c-10 -16 -125 -72 -125 -61 0 5 24 23 53 40 52 31
84 40 72 21z m-318 -77 c-2 -16 -4 -5 -4 22 0 28 2 40 4 28 2 -13 2 -35 0 -50z
m34 5 l2 -43 6 40 c6 39 6 39 21 19 8 -12 20 -22 25 -22 6 -1 13 -16 16 -34
l6 -33 2 30 c2 17 5 24 8 18 2 -7 11 -13 19 -13 15 0 41 -46 31 -56 -6 -6 -59
9 -119 35 -35 15 -38 19 -38 58 0 56 20 56 21 1z m264 22 c-10 -16 -95 -53
-102 -46 -8 8 -6 9 52 39 51 26 62 27 50 7z m-50 -70 c-33 -34 -55 -39 -55
-11 0 12 13 23 38 33 20 8 39 13 41 11 3 -2 -8 -17 -24 -33z"/>
<path d="M1101 7229 c-51 -72 -90 -133 -88 -135 2 -2 45 55 96 127 51 72 91
132 89 135 -2 2 -46 -55 -97 -127z"/>
<path d="M2380 7183 c86 -8 97 -12 96 -36 -1 -16 5 -22 19 -22 13 0 20 7 20
20 0 26 -52 44 -120 43 -36 -1 -40 -2 -15 -5z"/>
<path d="M2360 7121 c26 -4 35 -11 35 -26 0 -13 7 -20 20 -20 11 0 20 7 20 15
0 19 -43 40 -80 39 -29 -2 -29 -2 5 -8z"/>
<path d="M2287 7073 c24 -3 33 -10 35 -26 4 -26 31 -30 36 -5 4 21 -35 39 -76
36 -24 -1 -23 -2 5 -5z"/>
<path d="M2138 7023 c90 -3 102 -6 100 -21 -2 -11 5 -18 20 -20 31 -5 29 26
-4 38 -14 6 -69 9 -122 8 l-97 -2 103 -3z"/>
<path d="M2045 6902 c11 -4 20 -14 20 -22 0 -8 9 -15 20 -15 13 0 20 7 20 20
0 16 -7 20 -40 22 -25 1 -33 -1 -20 -5z"/>
<path d="M1971 6863 c16 -2 29 -12 32 -24 7 -27 42 -21 42 6 0 17 -7 20 -50
21 -27 1 -38 0 -24 -3z"/>
<path d="M1942 6788 c4 -30 43 -33 43 -3 0 13 -8 21 -23 23 -20 3 -23 0 -20
-20z"/>
<path d="M856 4769 c46 -49 117 -164 149 -238 137 -326 79 -618 -180 -915
l-68 -78 44 22 c136 69 275 205 338 330 127 255 47 574 -206 825 -72 71 -132
114 -77 54z"/>
<path d="M1044 4714 c51 -87 107 -221 156 -369 40 -119 43 -139 44 -235 1
-124 -23 -217 -78 -299 -19 -28 -31 -51 -27 -51 23 0 135 85 164 126 55 75 72
135 71 244 0 82 -4 106 -32 175 -39 98 -124 231 -224 351 -99 117 -118 132
-74 58z"/>
<path d="M1384 4720 c-12 -4 -31 -21 -44 -37 -19 -24 -21 -37 -18 -98 3 -58
14 -93 60 -200 31 -71 63 -158 72 -191 22 -84 20 -188 -3 -266 l-20 -63 34 39
c45 54 102 172 125 259 41 163 34 308 -20 423 -30 61 -97 134 -124 134 -8 0
-20 2 -28 4 -7 3 -23 1 -34 -4z m104 -81 c34 -27 62 -54 62 -60 0 -6 -7 -5
-18 3 -57 42 -132 101 -132 104 0 14 34 -4 88 -47z m-9 -40 c50 -38 91 -75 91
-80 0 -6 -17 2 -38 18 -21 15 -66 48 -100 73 -58 42 -73 60 -53 60 5 0 50 -32
100 -71z m-7 -41 c94 -71 122 -98 103 -98 -10 0 -220 161 -223 171 -8 20 16 6
120 -73z m-12 -39 c60 -44 110 -83 110 -85 0 -9 -220 142 -224 154 -3 6 -3 12
-1 12 3 0 54 -36 115 -81z m25 -56 c44 -29 76 -53 72 -53 -16 0 -207 122 -207
132 0 11 6 7 135 -79z m-44 -8 c65 -40 120 -82 79 -60 -36 19 -160 97 -160
101 0 8 9 3 81 -41z m-6 -30 c32 -20 36 -25 18 -25 -12 0 -35 11 -50 25 -36
31 -19 31 32 0z m155 -54 c0 -16 -9 -21 -47 -26 -27 -3 -62 -7 -80 -10 -21 -2
-33 1 -37 11 -8 20 30 37 68 30 17 -3 38 -1 46 4 25 16 50 12 50 -9z"/>
<path d="M680 4377 c0 -65 20 -97 61 -97 16 0 38 9 48 19 19 19 20 19 26 -11
13 -59 126 -73 155 -18 37 69 -26 149 -83 106 -27 -20 -19 -70 11 -74 18 -3
22 1 22 22 0 17 -6 26 -16 26 -8 0 -12 5 -9 10 11 18 44 10 61 -14 33 -51 -32
-114 -90 -88 -28 13 -41 49 -32 87 8 31 60 65 101 65 101 0 126 -147 37 -219
-38 -32 -25 -44 17 -15 47 34 67 143 37 203 -20 37 -55 51 -131 51 -57 0 -68
-3 -98 -30 -44 -38 -63 -38 -85 0 -9 16 -20 30 -24 30 -5 0 -8 -24 -8 -53z
m158 16 c-14 -16 -33 -41 -43 -56 -35 -56 -76 -58 -94 -5 -12 35 -7 48 11 30
21 -21 55 -13 98 23 50 42 63 45 28 8z"/>
<path d="M833 3965 c-26 -18 -43 -72 -43 -135 0 -55 -25 -155 -47 -190 -8 -14
12 2 46 35 123 119 163 231 105 289 -19 20 -34 20 -61 1z"/>
<path d="M1360 3154 c0 -21 33 -120 57 -169 36 -74 106 -175 120 -175 18 0 17
5 -10 48 -53 83 -52 83 6 51 37 -20 66 -29 100 -29 136 0 107 73 -41 106 -42
9 -88 22 -102 29 -32 17 -93 81 -113 120 -9 17 -16 25 -17 19z"/>
</g>
</svg>
