<?xml version="1.0" standalone="no"?>
<!DOCTYPE svg PUBLIC "-//W3C//DTD SVG 20010904//EN"
 "http://www.w3.org/TR/2001/REC-SVG-20010904/DTD/svg10.dtd">
<svg version="1.0" xmlns="http://www.w3.org/2000/svg"
 width="308.000000pt" height="808.000000pt" viewBox="0 0 308.000000 808.000000"
 preserveAspectRatio="xMidYMid meet">

<g transform="translate(0.000000,808.000000) scale(0.100000,-0.100000)"
fill="#000000" stroke="none">
<path d="M629 7843 c93 -239 199 -435 288 -534 21 -23 72 -67 113 -97 41 -31
101 -83 134 -116 54 -56 146 -175 146 -190 0 -3 -12 -1 -26 4 -14 6 -41 10
-60 10 -21 0 -42 8 -54 20 -11 11 -31 22 -45 25 -14 3 -36 7 -50 10 -15 3 -34
20 -45 38 -14 22 -20 27 -20 14 0 -35 31 -77 76 -103 38 -22 43 -29 30 -36
-20 -11 -56 -80 -56 -107 0 -73 83 -118 130 -71 43 43 10 125 -47 118 -34 -4
-52 -32 -37 -55 16 -26 48 -23 52 5 3 17 -1 22 -19 22 -17 0 -20 3 -12 11 29
29 82 -28 67 -73 -12 -40 -81 -42 -106 -4 -17 25 -8 76 20 106 54 62 155 57
199 -9 24 -36 30 -71 12 -71 -28 0 -78 -34 -89 -61 -7 -17 -11 -56 -8 -94 l4
-65 -67 0 c-78 0 -111 -19 -129 -76 -14 -42 -9 -68 24 -117 l25 -37 -25 0
c-33 0 -94 -59 -94 -91 0 -40 37 -89 83 -109 33 -15 65 -20 146 -20 l104 0
-42 -45 c-42 -45 -111 -174 -111 -206 0 -11 -14 -20 -44 -28 -92 -23 -180
-136 -221 -286 -25 -90 -31 -303 -11 -388 42 -180 140 -287 263 -287 103 0
185 41 228 114 39 66 42 123 12 189 -74 161 -297 152 -297 -11 0 -56 32 -91
87 -99 35 -5 45 -2 67 20 36 36 36 93 2 108 -60 28 -106 -25 -74 -82 15 -25
14 -26 -3 -22 -73 19 -66 145 10 171 88 31 210 -98 182 -194 -32 -110 -97
-156 -221 -156 -146 2 -222 150 -164 324 31 95 137 178 226 178 43 0 121 -31
189 -76 74 -49 210 -186 284 -286 36 -49 52 -64 61 -57 10 8 1 28 -36 84 -79
122 -139 315 -157 505 -4 47 -7 189 -7 315 l2 230 46 158 c56 189 87 319 117
487 19 103 23 163 23 337 1 228 7 238 40 65 41 -217 33 -310 -61 -687 -84
-343 -103 -454 -103 -621 0 -147 25 -300 79 -495 28 -100 92 -284 108 -314 4
-7 8 104 8 248 0 291 10 374 66 549 37 118 105 236 238 412 189 252 488 573
668 720 93 76 123 117 123 170 0 72 -92 121 -176 93 l-43 -14 -23 36 c-13 19
-34 41 -48 48 -30 15 -92 17 -139 3 -30 -8 -36 -7 -48 10 -45 64 -166 68 -255
8 -26 -18 -28 -18 -60 2 -51 31 -130 27 -193 -9 -27 -16 -63 -43 -79 -60 l-29
-31 -23 55 c-25 64 -103 195 -114 195 -4 0 3 -31 16 -69 38 -110 50 -247 36
-414 -7 -78 -16 -155 -20 -172 l-9 -30 -7 28 c-16 65 -91 90 -133 45 -30 -33
-51 -80 -59 -127 -7 -43 -14 -50 -32 -28 -13 15 15 150 48 237 24 62 72 149
107 196 13 17 23 34 23 39 0 12 -87 -3 -123 -22 -24 -13 -28 -18 -15 -21 10
-2 28 4 40 12 12 9 33 16 45 16 21 0 22 -2 11 -20 -10 -15 -24 -20 -58 -20
-25 0 -50 4 -56 8 -6 4 -22 34 -36 67 -61 152 -192 293 -383 411 -18 11 -1
-13 46 -62 189 -200 289 -403 319 -644 19 -155 10 -157 -43 -10 -78 212 -155
368 -238 480 -26 36 -152 169 -279 295 -226 225 -231 229 -211 178z m331 -318
c50 -50 78 -85 68 -85 -8 0 -42 32 -74 71 -32 39 -60 66 -62 60 -2 -6 20 -38
48 -71 29 -34 49 -64 45 -68 -9 -9 -165 159 -159 170 16 25 55 2 134 -77z
m-98 0 c82 -90 92 -105 79 -118 -8 -8 -15 -6 -26 9 -40 58 -97 125 -102 120
-3 -3 19 -38 49 -78 50 -66 62 -98 37 -98 -14 0 -119 163 -119 186 0 22 8 34
22 34 5 0 32 -25 60 -55z m218 -125 c8 -14 3 -19 -30 -29 -24 -7 -51 -25 -67
-46 -25 -32 -29 -33 -45 -18 -10 9 -18 24 -18 33 0 24 54 71 92 79 39 9 55 5
68 -19z m1224 -80 c16 -6 35 -27 48 -54 l21 -45 51 26 c96 49 169 25 182 -59
4 -21 8 -38 11 -38 2 0 18 7 36 17 75 38 153 34 183 -12 14 -22 14 -27 -1 -58
-9 -19 -27 -45 -40 -57 l-24 -23 -35 31 c-45 39 -89 47 -160 29 -55 -14 -56
-14 -56 8 0 12 -10 37 -23 56 -19 29 -29 34 -68 37 -37 2 -49 -1 -68 -22 l-24
-25 -38 39 c-32 33 -46 40 -76 40 -41 0 -95 -28 -115 -59 -12 -19 -14 -18 -54
24 -55 57 -96 66 -158 35 -42 -20 -73 -49 -103 -96 -10 -16 -12 -13 -12 27 -1
43 2 49 54 98 60 57 107 81 157 81 36 0 81 -25 104 -59 l15 -22 32 27 c33 28
102 63 124 64 6 0 23 -4 37 -10z m-769 -220 c-12 -5 -14 -9 -6 -9 11 -1 11 -5
-2 -19 -10 -10 -14 -22 -10 -25 3 -4 1 -7 -5 -7 -7 0 -12 -7 -12 -15 0 -10 -9
-15 -27 -14 -25 0 -26 1 -8 9 15 7 16 9 4 9 -26 1 -22 51 5 52 20 2 20 2 -1 6
-43 8 -23 23 30 22 38 0 47 -3 32 -9z m-45 -110 c0 -5 -9 -10 -20 -10 -11 0
-20 5 -20 10 0 6 9 10 20 10 11 0 20 -4 20 -10z m483 -51 c25 -27 35 -31 90
-33 73 -2 118 -25 144 -73 10 -20 25 -33 37 -33 10 0 37 -6 60 -12 48 -15 123
-85 108 -100 -7 -7 -21 1 -44 24 -34 34 -93 58 -141 58 -16 0 -28 7 -31 18 -4
10 -20 32 -36 47 -27 26 -40 30 -103 33 -64 4 -75 8 -101 33 -33 34 -88 39
-137 13 l-30 -15 3 33 c3 30 7 34 48 44 57 14 97 3 133 -37z m-496 25 c-3 -3
-12 -4 -19 -1 -8 3 -5 6 6 6 11 1 17 -2 13 -5z m-168 -82 c28 -20 75 -92 86
-130 6 -21 5 -21 -18 -11 -15 7 -29 25 -36 49 -17 56 -47 88 -99 105 l-47 15
44 -4 c24 -3 56 -13 70 -24z m645 -133 c103 -26 205 -74 284 -133 66 -50 70
-57 49 -75 -11 -8 -27 0 -73 35 -110 86 -300 164 -399 164 -36 0 -46 6 -38 26
6 16 63 11 177 -17z m-350 -11 c24 -33 22 -180 -1 -204 -17 -17 -18 -14 -29
62 -12 90 -21 116 -38 111 -18 -6 -19 -95 -2 -145 18 -51 18 -49 -9 -54 -16
-2 -22 5 -32 42 -22 84 -13 151 24 192 23 25 68 23 87 -4z m361 -50 c128 -42
301 -152 289 -183 -9 -22 -21 -19 -63 14 -94 75 -243 135 -366 147 -58 6 -65
9 -65 29 0 12 3 25 7 29 12 12 103 -4 198 -36z m-569 -35 c31 -33 71 -160 57
-181 -19 -31 -31 -21 -48 40 -9 35 -24 71 -33 81 -34 39 -82 4 -62 -47 5 -14
28 -46 51 -71 28 -30 39 -49 32 -56 -12 -12 -97 61 -119 104 -19 35 -14 95 10
132 23 36 78 34 112 -2z m504 -18 c115 -28 213 -76 305 -150 19 -15 19 -15 -1
-35 -19 -20 -20 -20 -74 17 -108 72 -269 132 -357 133 -34 0 -40 11 -27 45 7
18 52 15 154 -10z m-293 -149 c-3 -8 -9 -31 -13 -50 -5 -28 -12 -38 -33 -42
-77 -19 -137 -92 -148 -182 -5 -44 -9 -51 -39 -66 l-34 -16 -1 33 c-8 166 56
271 194 318 64 22 81 23 74 5z m-362 -25 c46 -21 105 -73 105 -93 0 -7 -4 -19
-9 -27 -7 -11 -15 -9 -42 11 -79 59 -149 77 -149 38 0 -26 49 -56 117 -71 61
-14 73 -39 19 -39 -48 0 -116 26 -148 57 -35 34 -38 81 -5 110 40 37 58 39
112 14z m515 -80 c19 -36 10 -87 -33 -201 -39 -103 -67 -147 -67 -105 0 37 33
156 47 170 8 9 12 23 9 31 -14 36 -32 1 -54 -101 -12 -60 -25 -111 -27 -114
-25 -24 -10 108 24 220 32 102 76 146 101 100z m146 -37 c33 -32 28 -54 -36
-161 -28 -45 -54 -93 -60 -107 -10 -27 -24 -33 -35 -16 -9 15 34 138 52 149
10 5 14 15 10 26 -13 32 -29 9 -59 -83 -24 -72 -35 -92 -49 -92 -26 0 -24 11
20 133 44 121 63 154 94 167 33 13 36 12 63 -16z m134 -65 c10 -17 0 -37 -66
-142 -42 -67 -78 -123 -79 -125 -1 -1 -10 0 -19 4 -14 5 -11 15 20 75 20 38
43 69 50 69 8 0 14 9 14 20 0 42 -28 17 -71 -64 -33 -62 -48 -83 -58 -77 -10
7 -3 28 33 97 61 118 99 164 136 164 19 0 33 -7 40 -21z m-780 -20 c47 -10 50
-13 50 -41 0 -27 -3 -30 -22 -24 -55 14 -149 28 -163 22 -8 -3 -15 -14 -15
-25 0 -16 9 -21 45 -27 25 -3 70 -3 100 1 50 6 55 5 55 -13 0 -25 -18 -32 -89
-32 -103 0 -201 44 -201 91 0 10 12 27 26 38 31 24 127 29 214 10z m240 -211
l0 -32 -22 22 c-20 19 -21 24 -8 32 25 16 30 12 30 -22z m-22 -38 c37 -56 26
-70 -18 -21 -22 24 -37 48 -34 53 9 15 27 4 52 -32z m349 0 c49 -21 51 -23 42
-49 l-10 -28 -52 26 c-42 21 -66 26 -129 26 -43 0 -78 2 -78 5 0 3 3 16 7 29
6 23 8 23 87 19 52 -4 100 -13 133 -28z m-368 -43 c39 -45 52 -77 32 -77 -14
0 -101 111 -95 122 9 14 17 8 63 -45z m-16 -49 c40 -49 57 -78 57 -99 0 -16
-2 -29 -4 -29 -4 0 -117 146 -130 168 -7 12 0 32 12 31 4 0 33 -32 65 -71z
m360 23 c47 -23 54 -34 39 -59 -7 -10 -19 -8 -58 10 -34 15 -69 22 -116 22
-63 1 -68 3 -68 23 0 29 13 33 90 30 43 -2 81 -10 113 -26z m-379 -86 c56 -74
76 -107 76 -130 l0 -30 -20 25 c-65 84 -151 220 -145 230 4 6 8 10 10 8 2 -2
37 -48 79 -103z m-26 -42 c40 -58 71 -107 69 -110 -7 -6 -156 190 -157 205 0
27 18 7 88 -95z m372 64 c44 -18 54 -27 52 -42 -5 -28 -6 -28 -44 -9 -22 12
-57 18 -105 18 -73 1 -73 1 -73 29 0 26 1 27 58 27 36 -1 77 -9 112 -23z
m-391 -93 c59 -77 72 -100 65 -115 -8 -17 -20 -6 -87 86 -69 94 -83 125 -58
125 4 0 40 -43 80 -96z m-63 4 c20 -29 49 -68 63 -87 46 -60 -3 -31 -62 37
-38 44 -53 69 -50 83 3 10 7 19 8 19 2 0 20 -24 41 -52z m-1 -69 c69 -82 68
-91 -4 -34 -44 34 -61 55 -61 71 0 13 3 24 8 23 4 0 30 -27 57 -60z m20 -73
c52 -46 35 -46 -38 0 -38 24 -57 42 -57 55 0 20 0 20 28 0 15 -11 45 -36 67
-55z m153 32 c19 -19 15 -65 -7 -71 -22 -5 -36 30 -26 64 7 22 16 24 33 7z
m-216 -33 c25 -17 35 -30 31 -40 -5 -14 -9 -13 -37 3 -62 37 -76 47 -76 54 0
17 47 7 82 -17z m157 -14 l20 -28 -26 -12 c-29 -13 -43 -3 -43 35 0 42 21 45
49 5z m-189 -24 c50 -32 60 -42 44 -45 -22 -3 -157 71 -147 82 14 13 40 4 103
-37z m-48 -22 c42 -25 83 -43 90 -40 8 3 21 0 30 -7 16 -12 16 -15 -1 -38 -16
-20 -21 -22 -35 -11 -9 7 -16 23 -17 35 0 11 -3 15 -6 9 -3 -9 -28 0 -81 29
-93 50 -85 44 -77 57 9 16 14 15 97 -34z m174 11 c19 -15 19 -15 -2 -36 -25
-25 -54 -17 -54 14 0 39 22 47 56 22z m-207 -42 c97 -52 96 -52 89 -60 -7 -7
-198 76 -198 86 0 8 11 20 18 20 3 0 44 -21 91 -46z m341 27 c0 -14 -10 -20
-37 -25 -77 -12 -143 -77 -143 -139 0 -22 -4 -28 -17 -25 -24 5 -19 40 13 95
27 46 68 80 123 99 50 18 61 17 61 -5z m-371 -57 c78 -35 91 -46 72 -58 -12
-8 -192 75 -185 85 9 15 30 10 113 -27z m-21 -40 c102 -47 134 -74 87 -74 -37
0 -214 91 -208 107 7 19 11 18 121 -33z m-45 -36 c46 -23 75 -43 66 -45 -23
-5 -172 64 -164 77 9 14 6 15 98 -32z m214 24 c13 -8 3 -69 -10 -64 -4 1 -14
2 -22 2 -18 0 -38 37 -31 56 6 15 43 19 63 6z m-249 -49 c56 -23 62 -28 47
-39 -14 -11 -27 -8 -73 12 -65 29 -66 29 -57 43 9 15 12 15 83 -16z m9 -53 c3
0 0 -7 -7 -14 -9 -12 -18 -13 -38 -5 -15 6 -37 15 -49 20 -14 5 -21 14 -17 23
5 13 13 12 55 -4 27 -11 52 -20 56 -20z m-61 -26 c38 -10 22 -29 -21 -27 -45
3 -50 7 -41 29 4 10 12 14 22 10 9 -3 27 -9 40 -12z m-7 -50 c9 -8 -13 -24
-33 -24 -28 0 -36 8 -29 26 3 9 14 12 32 8 14 -4 28 -8 30 -10z m-19 -38 c0
-18 -15 -36 -31 -36 -12 0 -19 7 -19 20 0 15 7 20 25 20 14 0 25 -2 25 -4z
m-24 -62 c-3 -9 -6 -20 -6 -25 0 -6 -4 -7 -10 -4 -16 10 -12 45 6 45 11 0 14
-5 10 -16z"/>
<path d="M2722 6766 c-475 -365 -757 -776 -866 -1267 -30 -139 -50 -339 -40
-425 6 -64 7 -64 38 -64 58 0 108 -21 156 -66 40 -37 53 -44 74 -38 l26 6 0
227 c0 354 22 536 92 746 95 286 264 563 512 838 53 59 96 107 94 107 -2 0
-40 -29 -86 -64z m-232 -266 c13 -8 13 -11 0 -25 -14 -13 -19 -13 -34 -2 -33
24 -1 49 34 27z m-36 -52 c16 -26 0 -32 -28 -10 -14 10 -22 22 -19 26 11 11
35 2 47 -16z m-36 -29 c12 -11 20 -24 17 -29 -5 -8 -25 1 -64 26 -5 4 9 24 18
24 4 0 17 -9 29 -21z m-26 -37 c17 -11 24 -22 19 -30 -6 -10 -16 -8 -44 8 -21
12 -34 26 -31 31 8 14 26 11 56 -9z m-142 -208 c22 -9 40 -22 40 -30 0 -18 2
-18 -45 6 -22 11 -47 20 -57 20 -10 0 -18 5 -18 10 0 15 34 12 80 -6z m-12
-40 c17 -7 32 -19 32 -27 0 -11 -11 -9 -47 9 -25 13 -53 24 -60 24 -8 0 -11 5
-8 10 7 11 26 7 83 -16z m-34 -28 c34 -14 52 -33 42 -43 -3 -3 -11 -1 -18 5
-7 6 -35 16 -61 22 -25 7 -44 16 -41 21 8 13 40 11 78 -5z m-65 -237 c36 -13
45 -46 9 -34 -13 4 -53 9 -90 12 -64 5 -77 11 -61 26 10 11 107 8 142 -4z
m-11 -51 c20 -8 29 -17 24 -25 -5 -8 -29 -9 -92 -2 -46 5 -86 12 -88 14 -3 3
1 12 9 21 16 19 92 15 147 -8z m-44 -208 c14 -5 26 -15 26 -22 0 -10 -28 -13
-110 -13 -60 0 -110 3 -110 6 0 10 23 26 45 32 36 9 123 7 149 -3z m-18 -51
c33 -9 44 -16 44 -31 0 -15 -4 -18 -17 -13 -33 13 -138 17 -175 7 -34 -9 -38
-9 -38 9 0 11 9 20 23 23 12 3 31 7 42 9 38 8 76 7 121 -4z m8 -59 c18 -7 26
-17 26 -34 0 -25 0 -25 -37 -9 -29 12 -56 14 -116 9 -71 -6 -78 -5 -75 11 2 9
14 20 28 24 38 11 146 10 174 -1z m-77 -116 c3 -9 1 -36 -4 -60 l-10 -45 23
16 c50 33 90 5 42 -29 -22 -16 -22 -16 -2 -16 11 0 24 -3 27 -7 9 -9 -22 -43
-40 -43 -7 0 -13 -11 -13 -25 0 -19 8 -28 28 -36 26 -10 27 -11 7 -25 -16 -12
-17 -16 -6 -23 21 -13 4 -31 -30 -31 l-30 0 7 64 c8 78 -1 136 -22 136 -24 0
-36 -50 -30 -125 5 -66 4 -69 -11 -47 -8 12 -21 22 -28 22 -18 0 -48 37 -40
49 3 6 13 11 22 11 14 0 13 4 -5 23 -21 22 -30 57 -15 57 3 0 15 -7 24 -16 17
-16 19 -15 29 10 7 21 6 34 -5 56 -16 31 -20 80 -7 80 5 0 15 -12 22 -27 l13
-28 7 27 c14 50 35 64 47 32z m51 -356 c58 -14 53 -27 -8 -17 -28 4 -84 9
-125 11 -72 3 -94 11 -57 22 23 7 137 -3 190 -16z m30 -54 c15 -4 22 -14 22
-30 0 -35 -39 -31 -68 7 l-24 29 24 0 c13 0 33 -3 46 -6z"/>
<path d="M2743 6680 c-203 -173 -382 -445 -472 -720 -72 -218 -111 -510 -111
-834 0 -189 1 -204 18 -200 15 5 17 19 17 122 l0 117 42 85 c24 47 88 146 144
220 143 191 169 252 134 320 -15 28 -14 30 10 46 62 41 84 137 46 200 l-19 32
35 33 c67 65 78 110 38 157 l-25 30 41 41 c39 39 41 44 36 87 -4 38 -1 50 19
71 29 31 33 93 8 114 -15 12 -9 21 57 81 41 37 72 68 69 68 -3 0 -42 -32 -87
-70z m-35 -136 c4 -26 -42 -66 -65 -57 -12 5 -10 9 11 20 32 17 36 48 5 40
-17 -5 -18 -3 -8 9 18 21 53 13 57 -12z m-74 -97 c22 -16 16 -44 -21 -87 -19
-23 -33 -30 -61 -30 l-37 0 49 28 c27 15 51 33 54 39 7 25 -29 26 -61 3 l-31
-23 23 31 c20 29 47 51 62 52 3 0 13 -6 23 -13z m-84 -227 c25 -25 25 -44 -1
-86 -26 -43 -41 -51 -84 -46 l-35 4 44 28 c50 32 62 48 48 62 -15 15 -49 0
-95 -41 l-40 -36 18 35 c25 51 75 100 102 100 13 0 32 -9 43 -20z m-61 -234
c19 -20 22 -32 17 -58 -11 -59 -30 -76 -90 -80 -63 -4 -61 7 11 49 46 27 51
46 15 51 -14 2 -38 -12 -73 -45 l-52 -48 23 45 c29 58 78 110 105 110 12 0 32
-11 44 -24z m-65 -298 c13 -18 13 -25 1 -56 -16 -36 -83 -131 -70 -97 15 38
17 82 4 91 -19 11 -65 -50 -96 -129 -38 -98 -40 -67 -3 46 37 111 77 167 120
167 18 0 34 -8 44 -22z"/>
<path d="M1532 4954 c-43 -22 -81 -73 -103 -137 l-18 -52 -49 3 c-69 5 -127
-13 -172 -55 -46 -40 -64 -92 -54 -152 7 -43 7 -43 -48 -55 -41 -9 -87 -53
-98 -95 -14 -52 3 -104 50 -155 l39 -42 -30 -18 c-68 -40 -96 -170 -51 -233
34 -48 94 -66 196 -61 104 5 198 47 248 109 20 24 34 35 39 28 3 -6 16 21 28
60 41 133 140 245 261 293 75 29 184 29 260 -1 67 -25 63 -25 50 -1 -9 17 -3
27 44 74 139 139 202 303 143 371 -20 24 -30 27 -84 26 -34 0 -78 -7 -98 -15
-21 -9 -39 -16 -41 -16 -1 0 -15 23 -30 50 -37 68 -75 90 -154 90 -58 0 -64
-2 -98 -36 l-35 -35 -33 32 c-41 40 -110 49 -162 23z m105 -89 c57 -16 107
-128 101 -227 l-3 -53 -19 75 c-10 41 -22 79 -27 84 -4 5 1 -25 11 -65 11 -41
20 -80 20 -87 0 -31 -20 3 -46 79 -16 45 -30 77 -31 72 -2 -5 8 -40 22 -76 14
-37 25 -74 25 -82 0 -35 -18 -9 -55 75 -21 50 -42 93 -47 96 -4 3 1 -15 12
-40 11 -26 29 -67 40 -92 22 -51 24 -64 11 -64 -5 0 -32 39 -60 88 -28 48 -51
83 -51 78 0 -4 20 -44 45 -89 25 -44 44 -80 43 -81 -2 -1 -13 -7 -25 -13 -20
-11 -25 -9 -47 20 -39 51 -76 138 -76 180 0 60 38 119 85 130 21 5 34 3 72 -8z
m278 1 c35 -15 75 -67 75 -98 0 -19 -55 -174 -70 -198 -22 -36 -20 5 5 80 15
45 25 83 23 85 -2 3 -16 -34 -32 -80 -28 -88 -53 -116 -43 -47 15 91 15 120 1
50 -9 -43 -20 -78 -25 -78 -5 0 -10 26 -11 58 l-1 57 -6 -55 c-6 -52 -7 -55
-31 -51 -33 4 -40 17 -40 73 0 83 20 150 55 185 37 37 50 39 100 19z m274
-110 c55 -58 28 -154 -74 -264 -49 -53 -60 -61 -67 -47 -7 12 6 34 58 93 l68
77 -76 -74 c-42 -40 -78 -69 -81 -64 -4 6 17 36 45 69 82 94 87 106 10 24 -38
-41 -73 -72 -77 -68 -4 4 13 35 37 70 24 35 47 70 52 78 13 26 -44 -43 -72
-87 -26 -41 -42 -54 -42 -33 0 5 15 33 34 62 39 63 58 98 52 98 -2 0 -25 -34
-51 -75 -41 -67 -65 -91 -65 -67 0 19 102 179 130 205 39 35 88 37 119 3z
m-753 -98 c44 -31 124 -119 124 -136 0 -4 -10 -18 -23 -30 l-22 -21 -75 66
-75 67 69 -72 c39 -39 67 -74 64 -77 -3 -3 -42 24 -87 61 -45 36 -84 64 -86
62 -2 -2 34 -34 80 -72 76 -61 83 -69 72 -87 -6 -10 -16 -19 -21 -19 -4 0 -36
19 -70 43 -72 51 -86 60 -86 53 0 -2 37 -31 82 -62 96 -68 88 -84 -13 -24
-128 76 -172 139 -145 205 16 37 35 53 83 71 47 17 75 11 129 -28z m-165 -228
c35 -10 89 -35 119 -54 67 -43 59 -46 -18 -7 -31 15 -70 31 -87 34 -34 7 -42
12 88 -46 37 -17 65 -32 63 -35 -3 -2 -45 5 -94 17 -49 12 -100 20 -113 20
-20 -1 -21 -2 -4 -5 130 -27 205 -47 205 -55 0 -5 -10 -9 -22 -10 -22 -1 -22
-1 2 -9 25 -8 25 -8 -5 -10 -24 -2 -26 -4 -7 -7 12 -2 22 -9 22 -15 0 -14
-192 -4 -244 13 -135 45 -124 176 15 188 9 0 45 -8 80 -19z m152 -217 c4 -3 2
-12 -4 -20 -6 -7 -7 -13 -2 -13 5 0 9 -9 10 -20 1 -15 -7 -22 -35 -29 -84 -22
-106 -29 -92 -30 8 0 40 6 70 14 66 18 70 18 70 4 0 -12 -56 -37 -125 -56
l-50 -13 45 5 c24 3 64 15 89 26 35 15 46 17 53 7 12 -20 10 -24 -33 -62 -48
-41 -155 -86 -203 -86 -73 0 -121 81 -97 163 16 53 34 73 79 88 66 22 211 36
225 22z"/>
<path d="M1520 4676 c0 -10 73 -126 77 -123 2 3 -13 32 -33 66 -33 55 -44 69
-44 57z"/>
<path d="M1842 4740 c0 -14 2 -19 5 -12 2 6 2 18 0 25 -3 6 -5 1 -5 -13z"/>
<path d="M1793 4690 c0 -36 2 -50 4 -32 2 17 2 47 0 65 -2 17 -4 3 -4 -33z"/>
<path d="M1447 4575 c22 -27 51 -59 64 -70 l23 -20 -21 30 c-12 17 -41 48 -64
70 l-43 40 41 -50z"/>
<path d="M1310 4543 c1 -10 145 -123 156 -123 5 0 -1 8 -13 18 -12 9 -49 39
-82 65 -34 27 -61 45 -61 40z"/>
<path d="M1225 4309 c22 -4 51 -8 65 -7 16 0 11 3 -15 9 -22 4 -51 8 -65 7
-16 0 -11 -3 15 -9z"/>
<path d="M1333 4293 c9 -2 25 -2 35 0 9 3 1 5 -18 5 -19 0 -27 -2 -17 -5z"/>
<path d="M1192 4280 c10 -6 48 -13 85 -15 68 -4 68 -4 13 4 -30 5 -68 12 -85
15 -24 6 -27 5 -13 -4z"/>
<path d="M1293 4183 c9 -2 25 -2 35 0 9 3 1 5 -18 5 -19 0 -27 -2 -17 -5z"/>
<path d="M1348 4153 c12 -2 30 -2 40 0 9 3 -1 5 -23 4 -22 0 -30 -2 -17 -4z"/>
<path d="M1235 4140 c-13 -6 -2 -7 30 -3 28 3 52 7 54 9 9 8 -65 2 -84 -6z"/>
<path d="M1228 4093 c12 -2 30 -2 40 0 9 3 -1 5 -23 4 -22 0 -30 -2 -17 -4z"/>
<path d="M1400 4049 c-25 -16 -66 -33 -90 -38 -36 -7 -39 -9 -15 -10 34 -1
123 38 144 62 18 22 15 21 -39 -14z"/>
<path d="M1880 4356 c-6 -8 -10 -25 -8 -38 2 -18 10 -24 35 -26 28 -3 33 0 39
24 11 42 -39 72 -66 40z"/>
<path d="M2128 4315 c-13 -15 -32 -25 -49 -25 -39 0 -77 -19 -85 -42 -4 -14
-11 -17 -22 -12 -10 4 -36 9 -59 12 -37 3 -47 0 -74 -27 -18 -18 -41 -31 -55
-31 -28 0 -65 -17 -76 -34 -4 -6 -8 -26 -8 -43 0 -29 -3 -33 -25 -33 -74 0
-132 -55 -122 -116 5 -27 1 -40 -14 -55 -28 -28 -24 -78 10 -127 l30 -40 -27
-18 c-40 -26 -51 -45 -52 -86 0 -28 7 -42 31 -62 17 -14 35 -26 40 -26 4 0 6
-13 3 -29 -4 -19 0 -40 12 -61 19 -31 19 -32 -1 -43 -24 -14 -105 -45 -121
-46 -7 -1 -14 8 -17 19 -3 12 -14 20 -25 20 -27 0 -37 -17 -21 -37 10 -12 25
-14 64 -10 27 4 60 9 73 13 46 13 11 -22 -53 -54 -68 -33 -95 -39 -95 -21 0 6
-10 9 -22 7 -27 -4 -30 -26 -7 -41 13 -8 35 -2 93 26 55 26 76 32 76 22 0 -20
-34 -49 -99 -84 -51 -27 -58 -28 -67 -14 -13 21 -47 10 -42 -14 6 -30 36 -26
113 16 68 36 75 38 75 20 0 -20 -67 -93 -114 -124 -21 -14 -29 -15 -41 -5 -18
15 -45 6 -45 -15 0 -21 26 -30 53 -18 12 6 48 31 80 57 48 39 57 44 57 27 0
-20 -27 -58 -88 -123 -28 -30 -40 -36 -62 -31 -30 6 -43 -6 -34 -31 12 -30 39
-16 111 59 63 65 73 72 78 54 4 -13 -4 -36 -24 -67 -42 -65 -76 -96 -109 -97
-31 0 -44 -31 -17 -41 18 -7 57 26 116 99 32 40 39 44 44 28 7 -23 1 -41 -47
-123 -34 -60 -42 -68 -68 -68 -23 0 -30 -4 -30 -20 0 -26 27 -37 45 -19 8 8
37 52 65 99 45 74 51 81 47 50 -3 -19 -18 -73 -34 -119 -22 -63 -36 -87 -52
-93 -26 -9 -25 -41 2 -46 19 -4 20 0 62 131 15 48 31 87 36 87 13 0 21 -79 15
-138 -12 -103 -15 -112 -42 -112 -17 0 -24 -5 -24 -20 0 -11 7 -23 16 -27 29
-11 45 21 56 121 11 93 12 95 25 65 14 -33 17 -128 7 -191 -5 -28 -12 -38 -28
-40 -26 -4 -33 -33 -10 -42 32 -12 45 17 51 114 l6 94 20 -41 c17 -34 19 -52
13 -116 -6 -55 -11 -74 -20 -71 -16 6 -40 -21 -31 -36 7 -12 42 -13 49 -2 3 5
8 46 12 91 l7 82 23 -38 c18 -30 23 -53 24 -105 0 -61 -2 -67 -22 -70 -28 -4
-36 -36 -12 -45 28 -10 44 24 44 96 l0 66 20 -25 c15 -20 20 -41 20 -98 0 -68
-1 -73 -25 -82 -29 -11 -33 -35 -8 -44 28 -11 43 21 43 96 0 37 4 68 10 68 19
0 30 -40 30 -107 0 -61 -2 -69 -22 -78 -33 -14 -30 -40 5 -40 15 1 27 -5 27
-12 0 -7 11 -13 24 -13 26 0 36 27 36 99 l1 36 19 -24 c14 -16 20 -38 20 -71
0 -43 -3 -49 -22 -52 -27 -4 -36 -35 -14 -44 31 -12 46 15 46 79 0 59 0 60 19
43 39 -36 39 -156 0 -156 -15 0 -20 -6 -17 -22 4 -32 40 -30 49 2 4 14 7 50 8
80 1 51 2 53 18 37 12 -12 19 -38 21 -87 4 -65 3 -70 -16 -70 -25 0 -34 -12
-26 -35 4 -9 15 -15 28 -13 19 3 21 11 26 93 l5 90 23 -29 c17 -22 22 -42 22
-87 0 -52 -2 -58 -22 -61 -29 -4 -32 -41 -4 -46 27 -6 36 15 36 86 0 34 3 62
6 62 3 0 14 -10 25 -22 12 -16 18 -39 19 -75 0 -46 -2 -52 -22 -55 -28 -4 -36
-36 -12 -45 25 -10 44 23 44 79 0 26 3 48 6 48 3 0 14 -10 25 -22 13 -16 18
-39 19 -75 0 -46 -2 -53 -20 -53 -15 0 -20 -7 -20 -26 0 -21 4 -25 23 -22 20
3 23 10 27 68 l5 65 37 -65 c67 -119 71 -185 14 -245 -60 -63 -149 -64 -213
-2 -62 58 -68 144 -13 172 34 18 40 18 76 4 l28 -10 -24 -12 c-19 -10 -25 -20
-25 -47 0 -31 3 -35 28 -38 37 -4 57 13 57 50 0 68 -104 105 -164 57 -22 -17
-26 -28 -26 -70 0 -94 60 -159 154 -167 114 -9 198 85 199 224 1 50 -6 74 -35
135 -46 97 -100 164 -266 334 -128 131 -212 239 -286 369 l-29 49 34 -7 c19
-3 51 -9 71 -12 34 -6 38 -10 54 -58 9 -28 37 -91 62 -141 41 -78 63 -106 173
-215 144 -143 195 -207 240 -303 28 -60 31 -76 27 -130 -7 -79 -40 -150 -98
-208 -134 -134 -333 -95 -537 107 -59 58 -91 99 -112 144 l-30 64 -20 -45
c-12 -24 -21 -49 -21 -55 0 -7 -26 -9 -78 -6 -93 5 -132 -11 -251 -103 -84
-65 -125 -85 -174 -85 -40 0 -57 15 -57 50 0 33 28 60 61 60 21 -1 22 -2 7
-11 -32 -18 -16 -69 22 -69 23 0 50 32 50 58 0 28 -36 52 -78 52 -45 0 -92
-46 -92 -90 0 -44 39 -80 85 -80 52 0 97 22 188 93 97 75 111 83 168 96 30 7
58 7 88 -1 l43 -11 -6 -45 c-3 -25 -6 -57 -6 -71 0 -26 -3 -27 -87 -40 -180
-25 -476 -146 -528 -216 -50 -65 -22 -140 51 -138 47 1 118 46 287 181 141
112 194 144 253 157 27 5 32 3 37 -17 4 -12 5 -23 4 -24 -1 -1 -43 -22 -92
-47 -206 -102 -362 -230 -483 -395 l-62 -84 41 -34 c31 -26 50 -34 80 -34 42
0 46 -5 25 -32 -16 -22 -45 -23 -91 -4 -36 15 -71 59 -60 76 3 5 4 10 1 10
-10 0 -45 -76 -57 -124 -10 -39 -9 -50 5 -71 19 -29 53 -32 95 -10 51 26 116
111 182 235 35 67 90 159 123 203 69 96 205 232 264 265 l41 23 15 -30 16 -29
-54 -30 c-77 -44 -160 -141 -258 -303 -111 -185 -167 -263 -264 -374 -179
-203 -244 -292 -244 -334 0 -26 34 -45 66 -37 24 6 25 5 18 -29 -6 -36 7 -65
30 -65 6 0 3 5 -6 11 -22 12 -23 41 -2 81 15 29 15 30 -1 24 -66 -25 -101 -12
-90 33 4 14 38 68 77 119 58 75 73 90 81 77 7 -12 -3 -29 -42 -70 -61 -65 -68
-85 -9 -30 l41 40 -25 -35 c-34 -47 -43 -64 -32 -57 6 3 26 28 44 56 32 47 50
62 50 43 0 -4 -16 -31 -36 -60 -20 -30 -34 -56 -31 -58 3 -3 21 20 40 51 44
70 57 57 17 -16 -16 -30 -30 -58 -29 -64 0 -5 16 18 35 53 20 34 40 62 46 62
6 0 7 -8 3 -17 -20 -50 -45 -127 -41 -130 2 -2 13 25 26 59 38 107 61 110 30
5 -10 -37 -15 -65 -10 -62 5 3 14 30 21 59 6 30 15 60 20 67 13 22 19 5 10
-32 -17 -67 -22 -95 -12 -79 5 8 12 35 17 60 l8 45 7 -35 c6 -33 6 -32 4 7 -1
24 1 40 6 37 5 -3 9 -1 9 5 0 6 11 13 25 17 18 4 25 13 24 28 -1 16 -2 17 -6
4 -4 -17 -58 -38 -96 -38 -46 0 -107 58 -107 103 0 7 17 33 39 57 l39 43 7
-32 c9 -44 45 -65 95 -57 35 5 39 4 33 -11 -10 -26 -23 -33 -69 -33 -43 0 -65
16 -83 60 -10 25 -10 25 -10 2 -1 -13 10 -34 24 -48 23 -23 33 -25 83 -22 l57
3 22 100 c33 147 110 380 151 460 42 80 154 204 219 241 l42 26 46 -38 45 -38
-44 -16 c-109 -42 -194 -128 -261 -265 -56 -114 -72 -198 -85 -422 -16 -292
-40 -373 -138 -465 -52 -49 -101 -77 -167 -97 -69 -21 -71 -24 -20 -32 191
-28 470 13 664 99 195 86 390 249 510 427 30 44 55 81 57 83 1 2 29 -6 63 -18
33 -11 62 -20 64 -20 2 0 -7 32 -21 72 -40 119 -62 237 -69 358 -7 142 11 247
62 363 105 237 135 372 142 647 l5 205 -71 2 c-39 1 -87 7 -106 13 -35 11 -37
10 -80 -29 -50 -46 -64 -49 -88 -23 -16 17 -13 22 45 81 l61 63 36 -17 c41
-20 136 -31 176 -21 39 10 23 19 -57 33 -38 6 -93 23 -121 37 -29 14 -54 21
-55 16 -8 -22 -95 -131 -113 -140 -15 -9 -25 -2 -59 41 -41 53 -123 210 -136
262 -5 23 -3 27 15 27 18 0 21 -6 21 -45 0 -44 16 -95 31 -95 15 0 18 18 5 29
-16 14 -29 72 -21 94 4 8 14 13 24 10 23 -6 56 -110 47 -147 -5 -19 -3 -26 9
-26 20 0 20 41 -1 109 -8 29 -13 55 -10 58 18 19 79 -95 81 -152 0 -22 5 -38
11 -35 16 9 5 80 -21 131 -14 26 -25 50 -25 52 0 3 15 1 33 -2 26 -6 34 -14
45 -46 10 -29 10 -45 3 -57 -11 -18 1 -34 18 -24 8 5 -3 97 -14 116 -4 6 5 10
20 10 33 0 53 -39 37 -74 -6 -13 -8 -27 -5 -30 16 -16 23 -1 23 49 0 52 1 55
25 55 40 0 49 -33 23 -87 -6 -13 -8 -26 -5 -30 14 -14 30 17 35 66 5 53 25 69
37 30 8 -25 -2 -89 -17 -107 -8 -9 -8 -16 -1 -23 17 -17 25 6 31 82 4 63 7 69
27 69 15 0 25 -8 29 -22 10 -40 6 -92 -9 -122 -18 -35 -18 -36 -1 -36 19 0 36
83 29 138 -5 40 -4 42 21 42 24 0 26 3 26 43 l0 42 -228 0 c-218 1 -359 13
-514 46 -41 9 -68 32 -54 46 3 3 74 -5 158 -16 84 -12 205 -24 268 -26 l115
-4 -92 9 c-127 11 -228 43 -270 85 -47 47 -42 76 20 142 l30 32 -37 42 c-60
70 -81 124 -81 206 0 63 3 76 30 114 28 39 71 78 133 119 21 14 23 19 15 70
-16 101 8 164 78 205 28 16 52 20 136 20 93 0 100 1 87 16 -13 14 -12 26 8 95
31 112 32 262 1 321 -44 81 -112 107 -155 58z m119 -99 c25 -21 28 -31 31
-100 6 -105 -30 -263 -51 -229 -3 5 0 31 7 58 18 68 27 177 15 173 -5 -2 -11
-39 -13 -83 -2 -44 -9 -93 -17 -110 l-13 -30 -6 45 c-6 39 -7 41 -8 12 -2 -25
-6 -33 -18 -30 -12 2 -16 20 -17 90 -2 86 -13 118 -37 103 -8 -5 -5 -13 9 -26
17 -16 21 -32 21 -84 0 -37 -4 -65 -10 -65 -5 0 -10 24 -10 54 0 53 -20 91
-35 66 -8 -13 4 -32 16 -25 5 4 9 -14 9 -39 0 -25 -2 -46 -6 -46 -3 0 -19 29
-35 65 -37 78 -42 144 -15 174 20 22 51 28 61 11 4 -6 15 0 27 15 25 32 59 32
95 1z m-263 -61 c13 -14 35 -61 50 -105 28 -85 31 -100 18 -100 -5 0 -16 26
-25 58 -17 62 -52 116 -68 106 -14 -8 -5 -29 12 -29 30 0 70 -132 43 -142 -7
-2 -14 7 -18 20 -8 35 -81 114 -90 99 -4 -8 2 -15 16 -21 26 -10 77 -95 65
-108 -5 -4 -19 7 -33 25 -28 36 -79 66 -94 57 -15 -9 -1 -26 18 -24 33 3 41
-1 63 -32 14 -20 18 -34 12 -40 -12 -12 -118 72 -152 120 -43 60 -12 104 54
77 28 -12 35 -12 35 -2 0 20 39 66 56 66 8 0 25 -11 38 -25z m-217 -165 c68
-34 152 -104 140 -116 -4 -4 -20 4 -35 18 -34 32 -109 71 -123 63 -13 -9 0
-28 15 -22 17 7 67 -16 99 -46 42 -40 32 -49 -25 -22 -29 14 -60 25 -68 25 -9
0 -21 5 -27 11 -8 8 -13 8 -17 0 -11 -17 2 -30 24 -24 24 6 103 -22 120 -43
10 -12 8 -14 -16 -15 -25 0 -26 -2 -9 -8 17 -7 15 -9 -15 -16 -48 -10 -130 -9
-162 4 -41 16 -52 44 -27 75 l20 25 -21 21 c-11 11 -20 25 -20 31 0 16 56 69
73 69 7 0 41 -14 74 -30z m87 -256 c32 -12 14 -22 -51 -27 -116 -10 -132 -15
-118 -37 5 -8 13 -6 27 7 28 25 158 33 158 9 0 -12 -10 -16 -39 -16 -22 0 -52
-5 -68 -12 -15 -6 -31 -12 -35 -12 -13 -2 -20 -15 -12 -27 5 -9 10 -8 18 3 19
25 53 38 100 38 57 0 60 -16 6 -30 -52 -14 -112 -49 -104 -61 3 -5 19 2 35 15
39 33 109 53 120 34 16 -24 9 -36 -27 -48 -19 -7 -65 -32 -101 -56 -62 -42
-67 -43 -85 -28 -20 19 -23 55 -8 85 10 17 7 19 -25 19 -51 0 -75 15 -75 49 0
36 27 59 92 82 52 18 160 25 192 13z m-196 -321 c-48 -93 -61 -168 -56 -308 7
-143 29 -223 105 -374 97 -191 161 -279 335 -459 211 -218 298 -354 298 -460
0 -37 -1 -36 -25 23 -42 102 -113 194 -283 364 -274 275 -384 437 -465 686
-51 157 -60 320 -22 412 35 82 65 123 91 123 14 0 24 -3 22 -7z m202 -1081
c12 -46 13 -92 1 -92 -5 0 -16 -3 -25 -6 -18 -7 -21 20 -10 99 8 53 19 53 34
-1z m-206 -587 c3 -8 1 -15 -4 -15 -6 0 -10 7 -10 15 0 8 2 15 4 15 2 0 6 -7
10 -15z m30 -40 c4 -11 -1 -15 -19 -15 -16 0 -25 6 -25 15 0 8 9 15 19 15 10
0 21 -7 25 -15z m31 -35 c3 -6 -6 -15 -20 -20 -36 -14 -45 -13 -45 4 0 21 54
34 65 16z m50 -39 c6 -10 -54 -31 -87 -31 -27 0 -21 17 10 28 35 13 69 14 77
3z m39 -27 c29 -11 17 -21 -41 -34 -32 -7 -63 -14 -69 -17 -6 -2 -14 2 -17 11
-4 10 9 18 51 29 31 8 58 15 59 16 1 1 8 -2 17 -5z m71 -43 c6 -11 -152 -64
-166 -56 -24 15 -5 34 49 48 68 18 109 21 117 8z m-733 -39 c-40 -38 -52 -80
-27 -99 11 -7 25 -13 32 -13 34 0 -14 -47 -85 -84 -43 -22 -59 -16 -78 30 -17
39 -11 85 12 105 11 9 14 7 15 -12 1 -21 2 -21 6 -4 5 22 32 55 43 55 4 0 6
-12 4 -27 -3 -23 -2 -23 7 5 7 25 20 38 52 52 54 25 55 25 19 -8z m768 4 c0
-9 -30 -24 -77 -40 -62 -21 -79 -23 -91 -13 -13 10 -1 17 69 39 101 32 99 32
99 14z m58 -8 c7 -7 12 -35 12 -64 0 -70 25 -142 69 -200 28 -37 57 -59 116
-90 66 -34 81 -46 83 -68 4 -34 -13 -34 -84 1 -109 53 -186 157 -219 295 -26
111 -16 165 23 126z m62 -50 c33 -112 121 -228 184 -244 21 -5 26 -12 26 -39
l0 -34 -45 16 c-63 21 -147 100 -174 163 -28 66 -40 180 -19 180 9 0 20 -17
28 -42z m55 22 c7 0 17 -15 20 -32 15 -69 63 -136 118 -164 31 -16 38 -54 9
-54 -53 0 -138 97 -173 197 -23 68 -23 67 -3 59 9 -3 22 -6 29 -6z m-177 -11
c-6 -18 -108 -53 -120 -41 -6 6 10 17 49 30 69 24 76 25 71 11z m12 -39 c0
-13 -58 -42 -70 -35 -17 10 -11 21 18 32 36 14 52 15 52 3z m4 -51 c-3 -5 -23
-19 -46 -30 -37 -19 -39 -19 -36 -2 2 10 19 25 38 34 35 17 55 16 44 -2z
m-171 -96 l5 -83 -40 -10 c-22 -6 -54 -8 -71 -5 -41 9 -117 44 -117 55 0 28
194 151 211 133 3 -5 9 -45 12 -90z m172 57 c-10 -16 -85 -52 -85 -40 0 5 17
18 38 29 42 23 56 26 47 11z m22 -36 c3 -9 -77 -54 -97 -54 -23 0 -7 20 33 43
43 26 58 28 64 11z m16 -38 c6 -15 -80 -79 -95 -70 -20 13 -4 36 40 58 26 14
48 25 48 26 1 0 4 -6 7 -14z m25 -52 c-5 -25 -74 -62 -89 -47 -8 8 -2 17 27
37 45 29 67 33 62 10z m12 -59 c-13 -14 -29 -21 -41 -18 -26 7 -24 10 13 33
40 24 56 15 28 -15z m-427 -30 c47 -14 74 -49 55 -73 -46 -55 -151 -53 -197 2
-15 18 -9 48 19 94 l20 33 31 -22 c17 -12 50 -27 72 -34z m466 -11 c-11 -21
-15 -23 -17 -11 -2 10 -8 17 -14 17 -6 0 -3 9 7 20 26 29 43 9 24 -26z m-223
5 c10 -12 41 -34 68 -49 43 -25 46 -29 30 -38 -65 -34 -144 -20 -201 35 l-38
36 55 18 c30 9 58 17 61 18 3 1 14 -9 25 -20z m264 -4 c0 -15 -34 -85 -41 -85
-14 0 -11 28 6 60 13 25 35 41 35 25z m32 -36 c-2 -8 -13 -40 -24 -73 -19 -52
-23 -56 -30 -35 -10 27 28 132 46 126 6 -3 10 -11 8 -18z m7 -100 c-14 -48
-26 -76 -32 -70 -6 6 2 42 19 93 34 103 44 86 13 -23z m31 -23 c-13 -57 -26
-94 -32 -90 -10 7 -7 24 24 127 11 37 22 66 25 63 3 -2 -5 -48 -17 -100z m43
-18 c-18 -132 -20 -138 -38 -115 -11 15 -10 32 7 105 24 112 28 123 37 118 4
-3 1 -51 -6 -108z m43 15 c-12 -165 -16 -185 -33 -171 -16 13 -16 14 8 181 16
107 33 100 25 -10z m-520 32 c20 -14 43 -25 51 -25 24 0 -13 -56 -47 -70 -37
-15 -91 -3 -134 31 l-27 22 38 17 c21 10 47 25 58 34 25 19 18 20 61 -9z
m-705 -59 l43 -13 -44 -42 c-32 -31 -49 -40 -64 -35 -33 10 -66 45 -66 72 l0
24 30 -25 c32 -28 68 -42 77 -33 4 3 -1 6 -10 6 -25 0 -77 50 -77 74 0 35 11
38 41 10 14 -14 46 -31 70 -38z m432 39 c83 -39 88 -89 10 -122 -39 -16 -93
-17 -93 -2 0 15 23 149 25 149 2 0 27 -11 58 -25z m545 -21 l23 -46 -22 -24
c-29 -31 -75 -43 -119 -31 -57 15 -61 23 -37 71 17 36 27 44 71 58 28 9 53 16
56 17 3 0 15 -20 28 -45z m284 -101 c4 -73 3 -93 -8 -93 -23 0 -26 20 -19 123
9 119 20 106 27 -30z m-459 -28 c20 -10 37 -24 37 -30 0 -19 -61 -57 -101 -62
-34 -5 -43 -1 -74 30 -50 50 -47 67 13 67 26 0 54 5 62 10 8 5 17 9 20 7 3 -1
22 -11 43 -22z m217 -48 c0 -69 -56 -115 -127 -104 -51 9 -61 22 -36 49 11 13
25 31 30 42 13 24 115 66 125 51 4 -5 8 -23 8 -38z m-424 -8 l38 -52 -28 -23
c-15 -13 -39 -24 -54 -25 -77 -3 -113 12 -162 68 l-33 38 78 13 c43 7 85 17
94 22 25 15 27 13 67 -41z m537 7 c20 -16 37 -35 37 -41 0 -24 -48 -57 -84
-58 -43 -1 -51 5 -38 30 6 10 13 39 17 65 8 52 8 52 68 4z m173 -34 c-12 -12
-26 13 -25 46 l0 37 15 -39 c8 -22 12 -41 10 -44z m-944 -118 c-14 -18 -27
-32 -27 -31 -1 1 1 26 3 55 l4 54 23 -22 24 -22 -27 -34z m396 56 c35 -1 54
-7 75 -25 27 -24 27 -26 12 -55 -8 -16 -24 -34 -34 -40 -49 -26 -150 -1 -194
48 -18 20 -18 20 1 26 10 4 29 18 42 31 13 14 30 23 38 20 7 -3 35 -5 60 -5z
m271 -49 c17 -11 7 -63 -17 -84 -32 -30 -70 -38 -117 -26 l-45 11 19 27 c10
14 20 33 23 41 2 8 24 20 49 26 55 15 71 16 88 5z m-529 -18 c20 -3 46 -18 61
-34 l27 -28 -22 -20 c-48 -45 -122 -50 -150 -9 -14 20 -14 27 6 81 8 20 15 26
27 22 9 -4 32 -9 51 -12z m210 -103 c30 -5 35 -9 32 -30 -2 -14 -15 -36 -28
-50 -34 -35 -113 -36 -146 -2 -23 23 -23 23 -3 34 11 7 31 24 45 39 17 18 32
25 45 21 11 -3 36 -8 55 -12z m-374 -16 c-4 -9 -9 -15 -11 -12 -3 3 -3 13 1
22 4 9 9 15 11 12 3 -3 3 -13 -1 -22z m521 -1 c48 -20 52 -29 23 -65 -24 -32
-72 -52 -104 -44 l-24 6 19 37 c10 20 19 48 19 60 0 28 11 29 67 6z m-338 -85
c22 -27 22 -31 8 -45 -8 -9 -37 -18 -64 -20 -73 -7 -101 23 -95 103 2 20 4 20
65 5 46 -10 68 -22 86 -43z m441 58 c0 -3 -4 -8 -10 -11 -5 -3 -10 -1 -10 4 0
6 5 11 10 11 6 0 10 -2 10 -4z m-640 -78 c0 -7 11 -26 24 -43 23 -28 23 -31 8
-57 -17 -29 -51 -48 -87 -48 -22 0 -24 2 -14 24 8 17 19 24 37 23 31 -2 42 22
12 30 -13 4 -19 11 -16 20 4 8 9 26 12 39 6 25 24 33 24 12z m411 -35 c23 -23
-39 -83 -85 -83 -22 0 -64 42 -71 70 l-6 25 76 -1 c42 0 81 -6 86 -11z m-191
-69 c0 -6 12 -21 26 -35 l25 -24 -38 -17 c-60 -26 -100 -23 -134 11 -16 16
-29 40 -29 53 0 22 3 23 75 23 47 0 75 -4 75 -11z m-176 -99 c19 -30 18 -30
-65 -43 -52 -8 -55 -7 -55 12 1 15 -5 21 -19 21 -15 0 -19 -6 -18 -22 3 -21
-2 -23 -40 -23 l-42 0 31 19 c18 11 35 24 38 30 4 6 31 11 59 11 29 0 59 5 67
10 22 14 26 13 44 -15z"/>
<path d="M2170 4116 c0 -9 4 -16 9 -16 5 0 12 -10 14 -22 3 -13 4 -8 4 11 -2
33 -27 59 -27 27z"/>
<path d="M2201 4024 c0 -11 3 -14 6 -6 3 7 2 16 -1 19 -3 4 -6 -2 -5 -13z"/>
<path d="M1742 3830 c2 -6 7 -11 11 -11 4 1 21 1 39 1 40 0 34 5 -16 14 -27 5
-37 4 -34 -4z"/>
<path d="M1060 1409 c0 -17 30 -49 46 -49 5 0 2 6 -7 13 -8 7 -21 21 -27 32
-9 16 -11 16 -12 4z"/>
<path d="M1011 1395 c-1 -24 25 -65 41 -65 6 0 2 10 -9 23 -12 12 -23 31 -26
42 -5 20 -5 20 -6 0z"/>
<path d="M1633 1264 c-8 -21 13 -42 28 -27 13 13 5 43 -11 43 -6 0 -13 -7 -17
-16z"/>
<path d="M1490 1100 c0 -13 7 -20 20 -20 13 0 20 7 20 20 0 13 -7 20 -20 20
-13 0 -20 -7 -20 -20z"/>
<path d="M1785 1090 c-4 -7 -3 -16 3 -22 14 -14 45 -2 40 15 -6 16 -34 21 -43
7z"/>
<path d="M1642 948 c2 -12 10 -23 18 -23 22 0 19 39 -3 43 -15 3 -18 -1 -15
-20z"/>
<path d="M1413 914 c-7 -18 11 -39 26 -30 17 11 13 46 -4 46 -9 0 -18 -7 -22
-16z"/>
<path d="M1894 915 c-7 -18 3 -35 21 -35 21 0 28 19 15 35 -16 19 -29 19 -36
0z"/>
<path d="M1733 784 c-7 -18 11 -39 26 -30 17 11 13 46 -4 46 -9 0 -18 -7 -22
-16z"/>
<path d="M1945 740 c-4 -7 -3 -16 3 -22 14 -14 45 -2 40 15 -6 16 -34 21 -43
7z"/>
<path d="M1492 738 c2 -13 10 -23 18 -23 8 0 16 10 18 23 3 17 -2 22 -18 22
-16 0 -21 -5 -18 -22z"/>
<path d="M2100 730 c0 -13 7 -20 20 -20 13 0 20 7 20 20 0 13 -7 20 -20 20
-13 0 -20 -7 -20 -20z"/>
<path d="M1713 634 c-8 -21 13 -42 28 -27 13 13 5 43 -11 43 -6 0 -13 -7 -17
-16z"/>
<path d="M1940 560 c0 -13 7 -20 20 -20 13 0 20 7 20 20 0 13 -7 20 -20 20
-13 0 -20 -7 -20 -20z"/>
<path d="M1472 558 c2 -12 10 -23 18 -23 22 0 19 39 -3 43 -15 3 -18 -1 -15
-20z"/>
<path d="M1645 470 c-4 -7 -3 -16 3 -22 14 -14 45 -2 40 15 -6 16 -34 21 -43
7z"/>
<path d="M1810 440 c0 -13 7 -20 20 -20 13 0 20 7 20 20 0 13 -7 20 -20 20
-13 0 -20 -7 -20 -20z"/>
<path d="M1445 410 c-4 -7 -3 -16 3 -22 14 -14 45 -2 40 15 -6 16 -34 21 -43
7z"/>
<path d="M1650 309 c0 -14 5 -19 17 -17 26 5 29 38 4 38 -15 0 -21 -6 -21 -21z"/>
<path d="M1464 259 c-3 -6 0 -17 8 -25 13 -13 16 -13 27 0 7 8 10 20 6 26 -8
13 -32 13 -41 -1z"/>
<path d="M1737 4313 c-12 -12 -7 -50 8 -63 32 -27 82 23 55 55 -13 15 -51 20
-63 8z"/>
<path d="M1597 4213 c-26 -26 12 -80 47 -67 21 8 30 42 16 59 -13 15 -51 20
-63 8z"/>
<path d="M944 3897 c-24 -21 -26 -28 -20 -61 9 -50 79 -119 154 -154 67 -30
183 -41 251 -22 53 14 50 22 -4 10 -52 -12 -133 10 -178 50 -18 16 -46 53 -61
82 -65 120 -92 138 -142 95z"/>
<path d="M1135 3800 c-8 -26 16 -65 58 -91 28 -18 44 -20 121 -16 58 3 84 1
75 -5 -11 -7 -11 -9 -1 -6 31 8 9 23 -40 28 -63 7 -81 16 -133 69 -43 45 -70
52 -80 21z"/>
<path d="M2075 3786 c-60 -26 -90 -85 -79 -151 l7 -40 17 53 c10 29 28 64 41
78 23 24 100 53 148 55 l26 1 -25 8 c-39 12 -102 11 -135 -4z"/>
<path d="M2112 3718 c-19 -19 -14 -56 8 -63 24 -8 50 10 50 34 0 19 -19 41
-35 41 -6 0 -16 -5 -23 -12z"/>
<path d="M2327 3709 c-27 -16 -57 -87 -57 -136 l0 -43 -32 20 c-18 11 -55 25
-83 31 -72 16 -119 -4 -134 -58 -14 -49 -13 -69 3 -116 l14 -38 -44 7 c-60 9
-129 -17 -149 -56 -39 -75 1 -148 112 -203 63 -32 64 -33 40 -46 -49 -26 -61
-93 -27 -149 39 -63 132 -78 208 -32 40 25 42 25 42 0 0 -28 26 -77 47 -89 16
-9 15 -11 -7 -11 -23 -1 -23 -2 -5 -9 34 -13 225 -1 225 14 0 10 -11 12 -42 7
l-42 -5 27 29 c37 40 58 105 64 204 5 70 10 90 29 113 30 36 33 104 5 138 -15
19 -17 29 -8 58 5 20 10 83 11 141 1 118 -15 164 -74 214 -34 28 -89 35 -123
15z m127 -100 c36 -29 60 -115 53 -194 -7 -76 -15 -97 -36 -93 -13 3 -16 19
-16 104 0 102 -10 134 -41 134 -34 0 -41 -74 -18 -198 6 -29 4 -33 -12 -30
-23 4 -74 143 -74 201 0 78 84 123 144 76z m-227 -118 c50 -36 128 -150 114
-164 -6 -6 -12 -9 -14 -6 -2 2 -18 28 -37 58 -19 30 -43 62 -54 72 -24 23 -59
24 -76 4 -21 -25 10 -76 74 -126 68 -53 60 -76 -11 -31 -60 38 -119 98 -132
134 -9 23 -6 32 15 58 33 39 69 39 121 1z m233 -186 c35 -18 70 -61 70 -87 0
-32 -29 -77 -60 -93 -16 -8 -50 -15 -76 -15 -39 0 -51 5 -80 34 -56 56 -42
130 30 162 41 18 80 17 116 -1z m-355 -9 c84 -22 155 -57 155 -75 0 -16 -4
-16 -67 0 -69 18 -158 24 -187 13 -25 -10 -19 -43 10 -54 14 -6 78 -10 142
-11 141 0 123 -17 -28 -26 -115 -7 -163 8 -184 58 -17 40 -11 64 22 89 29 23
67 25 137 6z m115 -205 c-83 -43 -114 -70 -108 -98 8 -45 82 -17 163 63 31 31
57 49 61 43 10 -17 -151 -166 -200 -184 -39 -15 -46 -15 -79 -1 -64 26 -61 89
7 141 41 31 157 74 201 74 25 0 19 -6 -45 -38z m236 -43 c-10 -80 -25 -120
-59 -155 -34 -37 -70 -42 -99 -16 -25 23 -23 75 7 131 48 91 76 111 45 32 -21
-54 -26 -125 -10 -135 17 -11 46 4 58 30 6 14 14 54 18 89 5 48 11 66 23 69 9
3 18 5 20 6 2 0 1 -23 -3 -51z"/>
<path d="M2365 3268 c-27 -15 -35 -28 -35 -60 0 -50 98 -78 148 -42 22 15 30
57 14 80 -21 32 -89 44 -127 22z"/>
<path d="M1162 555 c0 -16 2 -22 5 -12 2 9 2 23 0 30 -3 6 -5 -1 -5 -18z"/>
<path d="M1151 509 c-3 -40 -34 -121 -57 -149 -32 -37 -55 -38 -86 -2 l-24 29
-26 -29 c-27 -30 -24 -37 7 -14 17 12 23 11 48 -10 36 -31 52 -30 82 2 27 29
69 145 62 171 -4 14 -5 15 -6 2z"/>
</g>
</svg>
