<?xml version="1.0" standalone="no"?>
<!DOCTYPE svg PUBLIC "-//W3C//DTD SVG 20010904//EN"
 "http://www.w3.org/TR/2001/REC-SVG-20010904/DTD/svg10.dtd">
<svg version="1.0" xmlns="http://www.w3.org/2000/svg"
 width="304.000000pt" height="791.000000pt" viewBox="0 0 304.000000 791.000000"
 preserveAspectRatio="xMidYMid meet">

<g transform="translate(0.000000,791.000000) scale(0.100000,-0.100000)"
fill="#000000" stroke="none">
<path d="M1578 7845 c-15 -9 -38 -39 -55 -72 -37 -77 -36 -164 5 -328 30 -119
30 -134 -4 -135 -6 0 -21 28 -34 63 -51 142 -132 256 -212 298 -25 13 -58 19
-98 19 -154 0 -199 -82 -118 -217 41 -68 142 -171 220 -222 32 -22 54 -42 50
-45 -5 -3 -47 14 -94 38 -125 63 -190 81 -285 81 -80 0 -84 -1 -115 -33 -28
-27 -33 -40 -33 -80 0 -68 32 -114 103 -149 74 -36 209 -44 332 -19 72 15 85
15 97 3 12 -12 4 -16 -59 -26 -121 -19 -218 -74 -254 -143 -20 -38 -18 -58 6
-58 40 0 92 30 153 88 64 61 105 92 120 92 5 0 -2 -13 -15 -28 -13 -16 -37
-53 -53 -83 -23 -45 -38 -61 -80 -82 -116 -61 -185 -146 -185 -229 0 -35 4
-48 14 -48 30 0 76 53 115 133 38 77 112 179 96 132 -4 -11 -9 -48 -12 -82 -5
-57 -9 -66 -54 -113 -62 -66 -99 -141 -99 -199 0 -59 13 -80 37 -65 32 20 60
72 76 141 9 38 21 82 27 98 12 29 13 28 31 -49 l19 -79 -49 -52 c-77 -81 -110
-165 -93 -230 21 -77 78 -12 113 127 31 127 38 133 73 59 l29 -59 -27 -44
c-14 -23 -45 -68 -67 -99 -30 -40 -43 -70 -46 -103 -5 -41 -4 -46 15 -46 51 0
123 101 137 193 4 26 10 47 14 47 3 0 14 -12 24 -25 17 -23 17 -27 1 -57 -9
-18 -34 -57 -56 -86 -64 -86 -95 -170 -68 -187 17 -10 69 24 99 65 27 37 39
71 58 165 l9 40 33 -58 c30 -53 32 -60 20 -95 -6 -20 -32 -72 -57 -116 -36
-60 -46 -88 -46 -124 -1 -25 4 -47 10 -49 18 -6 73 46 96 91 13 24 23 68 26
109 3 37 8 67 12 67 11 0 50 -95 50 -122 0 -13 -17 -52 -37 -88 -19 -36 -44
-81 -54 -100 -11 -19 -19 -54 -19 -77 0 -35 3 -43 19 -43 49 0 105 94 117 196
l7 59 18 -50 c10 -28 18 -68 18 -89 1 -35 -5 -45 -68 -105 -120 -117 -140
-206 -31 -140 38 24 53 41 87 103 21 38 22 38 17 11 -22 -112 -82 -202 -157
-235 -47 -21 -70 -17 -102 22 -41 48 -58 126 -53 244 l3 103 -28 -27 c-65 -61
-84 -152 -48 -222 10 -19 45 -53 77 -75 75 -52 79 -65 20 -65 -112 0 -184 76
-220 231 -8 33 -17 63 -20 66 -2 3 -12 -9 -20 -26 -22 -42 -20 -129 4 -194 16
-43 18 -60 10 -81 -22 -60 1 -146 52 -193 l24 -23 12 59 c10 47 20 66 48 90
19 17 39 31 44 31 4 0 17 3 27 7 17 6 17 5 2 -13 -31 -37 -62 -102 -56 -118 8
-21 46 -21 54 0 3 9 1 25 -6 36 -24 38 40 107 99 108 34 0 34 0 12 -16 -26
-18 -62 -84 -62 -114 0 -15 7 -20 25 -20 32 0 43 25 21 49 -16 17 -15 20 10
50 31 37 73 61 106 61 13 0 52 14 87 31 224 105 439 364 538 649 50 141 58
204 57 440 0 199 -2 222 -26 311 -15 53 -42 131 -61 172 l-36 77 -35 -15
c-117 -49 -356 -56 -526 -15 -158 38 -171 46 -127 74 20 14 27 13 74 -9 80
-39 166 -55 293 -55 128 0 214 17 289 55 l49 24 40 -43 c43 -47 74 -118 102
-241 50 -212 52 -418 5 -620 -58 -257 -91 -352 -188 -545 l-92 -185 -110 -98
c-150 -134 -317 -263 -384 -297 -128 -64 -311 -115 -533 -150 -141 -22 -199
-39 -271 -78 -113 -61 -79 -156 50 -138 l46 6 -41 -38 c-35 -32 -42 -45 -42
-75 0 -51 31 -58 124 -26 121 41 287 160 898 646 119 94 215 167 213 160 -2
-7 -9 -31 -15 -53 -10 -40 -24 -52 -313 -265 -326 -242 -369 -277 -423 -350
-27 -37 -42 -48 -67 -51 -21 -2 -35 -10 -41 -24 -5 -11 -22 -26 -38 -32 -21
-8 -28 -17 -28 -36 0 -18 -5 -26 -18 -26 -23 0 -42 -19 -42 -42 0 -11 -7 -18
-18 -18 -23 0 -42 -19 -42 -42 0 -11 -11 -23 -25 -28 -19 -7 -25 -17 -25 -40
0 -19 -5 -30 -14 -30 -22 0 -48 -31 -43 -50 3 -12 -4 -22 -19 -29 -17 -7 -24
-19 -24 -38 0 -17 -8 -33 -20 -41 -11 -7 -20 -23 -20 -37 0 -14 -9 -34 -21
-46 -13 -13 -18 -27 -14 -40 4 -11 1 -26 -5 -34 -6 -8 -10 -27 -9 -43 2 -16
-3 -37 -10 -46 -7 -9 -11 -28 -8 -43 3 -15 0 -37 -6 -51 -8 -17 -8 -28 1 -42
6 -11 9 -33 6 -50 -4 -17 -2 -36 5 -44 8 -10 9 -16 1 -21 -13 -8 -13 -48 1
-62 8 -8 8 -13 0 -17 -15 -10 -14 -66 2 -72 8 -3 12 -16 9 -34 -3 -20 2 -34
17 -46 12 -10 21 -28 21 -40 0 -12 7 -27 15 -34 9 -7 13 -21 10 -31 -8 -23 11
-59 30 -59 8 0 15 -13 17 -32 2 -28 8 -34 31 -36 16 -2 35 2 42 8 29 24 75
-57 51 -87 -1 -1 -29 5 -61 14 -35 10 -99 17 -155 17 -79 0 -102 -4 -138 -22
-114 -60 -108 -188 13 -251 28 -14 52 -27 54 -28 2 -2 -3 -11 -11 -20 -51 -59
-60 -125 -25 -193 31 -61 65 -83 137 -88 l60 -4 0 -48 c0 -64 35 -128 84 -153
75 -39 195 -19 250 42 26 28 36 26 36 -6 0 -34 31 -103 53 -122 10 -7 17 -17
17 -22 0 -21 -86 -50 -192 -64 -144 -19 -231 -58 -265 -120 -13 -22 -23 -53
-23 -68 0 -15 -7 -30 -15 -33 -26 -10 -58 -72 -51 -100 9 -33 30 -26 34 12 2
16 8 42 14 57 l11 28 29 -35 c26 -32 53 -45 118 -60 22 -5 28 -15 43 -78 9
-41 29 -91 45 -113 35 -50 113 -103 163 -111 34 -6 39 -10 39 -33 0 -44 51
-113 111 -148 30 -17 126 -57 214 -88 312 -111 461 -209 550 -362 77 -131 107
-334 66 -443 -24 -65 -70 -124 -114 -147 -21 -11 -56 -17 -103 -17 -61 0 -79
4 -138 34 -162 83 -227 195 -185 321 22 66 92 119 156 119 78 -1 173 -87 173
-157 0 -49 -26 -92 -66 -109 -32 -13 -39 -13 -79 5 -46 20 -75 61 -75 105 0
29 42 66 74 66 19 -1 18 -2 -6 -16 -55 -29 -30 -114 34 -114 67 0 91 79 39
131 -52 51 -133 36 -161 -30 -34 -84 40 -181 138 -181 81 0 138 70 126 155
-16 112 -87 178 -194 179 -48 1 -66 -4 -109 -32 l-53 -32 -74 72 c-41 39 -76
69 -77 67 -2 -2 -22 -38 -45 -80 l-42 -76 55 0 c52 0 142 -19 149 -32 2 -3 -2
-23 -8 -44 l-11 -38 -49 26 c-49 26 -50 26 -87 9 -21 -9 -62 -22 -90 -28 l-52
-12 47 -28 c26 -15 62 -41 82 -58 32 -28 36 -29 52 -15 18 16 92 51 97 45 1
-2 9 -25 18 -51 l16 -48 -77 6 c-42 4 -87 8 -99 11 -13 2 -23 2 -23 -1 0 -15
84 -205 90 -203 5 2 101 113 127 147 2 3 8 0 15 -7 8 -8 1 -23 -32 -58 -40
-43 -42 -49 -38 -94 3 -26 14 -61 26 -77 42 -59 125 -69 138 -16 10 36 -6 56
-57 73 -62 21 -69 27 -69 60 0 19 10 38 27 54 25 23 29 24 48 11 106 -78 174
-105 267 -105 78 0 151 32 199 85 19 21 58 63 87 94 86 90 103 134 144 360 20
110 -14 239 -89 339 -21 28 -25 45 -27 125 -3 108 -24 163 -88 227 l-41 40 -2
88 c-4 154 -68 264 -193 330 -51 27 -70 32 -131 32 -94 0 -152 -26 -186 -85
-35 -58 -34 -117 1 -144 15 -12 21 -21 15 -21 -22 0 -60 48 -67 85 -19 102 31
208 164 346 53 55 131 127 174 159 43 32 74 61 70 64 -5 3 -42 -20 -82 -51
-66 -49 -76 -53 -85 -38 -24 40 -28 42 -112 36 l-82 -6 -70 -69 c-39 -38 -74
-65 -80 -62 -17 11 -13 20 19 38 34 19 80 106 80 151 0 15 3 27 7 27 3 0 31
-12 61 -27 102 -50 226 -41 288 21 50 50 63 122 38 221 -5 19 0 20 83 20 98 0
148 19 170 66 16 33 1 90 -38 144 l-29 39 41 20 c51 24 79 68 79 122 0 51 -24
84 -79 109 -45 20 -48 25 -26 59 28 42 30 109 6 160 -59 120 -238 113 -369
-14 l-47 -45 0 101 0 102 31 11 c68 25 100 96 54 121 -12 6 -20 21 -20 36 0
19 -7 29 -28 36 -16 6 -33 21 -38 32 -5 12 -19 22 -30 24 -12 2 -30 12 -40 23
-18 20 -78 27 -89 9 -4 -7 -14 -5 -28 5 -27 19 -58 19 -83 0 -10 -8 -37 -15
-60 -15 -48 0 -74 -23 -74 -66 0 -16 7 -40 16 -52 14 -21 14 -24 -16 -48 -17
-15 -37 -39 -45 -55 -23 -44 -19 -126 10 -186 27 -58 22 -68 -29 -59 -121 23
-179 255 -111 447 38 106 125 215 246 309 143 111 196 167 236 246 23 48 38
95 42 136 6 47 21 92 64 178 31 63 57 108 57 100 0 -44 -42 -287 -59 -334 -10
-29 -37 -80 -59 -112 -36 -54 -162 -185 -221 -232 l-24 -19 45 -21 c63 -31
105 -28 182 12 l66 35 15 -35 c16 -39 52 -59 89 -50 21 5 29 16 38 51 l12 44
33 -30 c60 -52 123 -27 123 50 l0 38 48 -5 c44 -4 51 -1 70 23 27 34 37 86 23
113 -6 11 -36 30 -66 41 -153 57 -212 120 -245 260 -17 70 -15 247 4 341 15
79 73 270 82 270 3 0 2 -37 -2 -82 -6 -85 8 -277 28 -358 16 -69 72 -179 120
-237 51 -61 133 -129 203 -168 l50 -28 -36 39 c-85 92 -164 245 -228 441 -50
151 -71 262 -71 372 l0 86 20 -31 c24 -37 65 -57 106 -52 31 3 40 23 30 63
-10 39 -66 44 -66 5 0 -21 23 -32 46 -23 12 4 15 2 12 -8 -8 -25 -63 -22 -94
5 -27 22 -29 30 -29 93 0 45 7 81 19 108 l19 40 8 -38 c20 -87 62 -131 121
-125 31 3 33 5 33 43 0 36 -2 40 -28 43 -25 3 -28 0 -25 -20 2 -17 9 -23 26
-22 32 1 21 -20 -12 -24 -47 -6 -87 45 -101 125 -6 36 -2 52 22 99 l28 56 7
-48 c9 -60 35 -96 81 -111 52 -18 87 -3 87 36 0 36 -23 61 -56 61 -17 0 -24
-5 -24 -20 0 -25 25 -37 44 -21 20 17 31 -18 12 -37 -21 -21 -71 -6 -101 30
-20 24 -25 40 -25 88 0 32 5 71 11 87 l10 27 19 -41 c32 -73 112 -95 169 -47
45 37 41 83 -10 109 -35 18 -50 19 -73 2 -27 -20 -13 -57 21 -57 22 0 25 4 21
25 -6 30 11 33 35 7 24 -26 21 -57 -8 -76 -50 -33 -110 -14 -141 46 -21 40
-12 69 32 108 40 35 40 51 0 25 l-26 -17 18 47 c14 40 18 44 27 29 42 -75 117
-96 174 -48 47 39 37 91 -22 113 -32 12 -77 -1 -77 -23 0 -19 29 -48 44 -43 6
2 11 16 11 30 -1 31 3 32 33 11 48 -33 9 -97 -59 -97 -45 0 -93 51 -93 99 0
31 7 43 39 71 21 18 35 36 32 40 -4 3 -16 -2 -27 -12 -27 -24 -31 -17 -18 33
l10 42 39 -35 c44 -39 81 -45 129 -20 76 39 28 150 -56 129 -28 -7 -33 -44 -8
-64 12 -11 18 -10 31 3 13 13 14 19 3 31 -10 13 -10 16 3 16 9 0 25 -12 36
-26 25 -32 14 -59 -32 -79 -60 -25 -127 24 -127 93 0 27 8 42 36 69 42 39 41
54 -1 21 l-28 -22 6 25 c3 13 9 46 13 72 l7 49 18 -28 c38 -59 107 -71 158
-28 35 29 40 61 14 93 -38 45 -124 32 -109 -16 13 -42 61 -39 53 3 -5 29 13
32 36 6 37 -41 5 -92 -58 -92 -38 0 -70 22 -90 61 -20 38 -11 72 31 109 19 16
34 32 34 35 0 13 -20 3 -49 -24 l-31 -29 0 73 c0 40 -3 93 -6 119 l-7 47 38
-25 c63 -43 150 -30 189 28 32 49 15 99 -41 122 -39 17 -97 5 -107 -22 -12
-32 36 -76 64 -59 16 10 11 53 -7 64 -16 9 -14 10 8 11 67 0 102 -75 56 -118
-42 -39 -80 -46 -131 -24 -50 23 -74 53 -76 97 -4 55 0 65 35 104 20 22 31 42
26 45 -5 4 -25 -12 -43 -34 l-32 -41 -28 83 c-15 46 -27 84 -28 84 0 1 26 -9
57 -22 159 -64 346 -25 367 77 6 33 -13 91 -42 122 -49 55 -191 93 -306 82
l-61 -5 73 20 c148 41 248 108 278 185 40 106 -21 175 -154 175 -79 0 -162
-25 -233 -70 -47 -31 -136 -118 -156 -155 -7 -11 -14 -17 -17 -14 -3 3 14 32
39 64 113 145 175 271 175 354 0 134 -132 144 -232 17 -59 -74 -126 -218 -146
-314 -16 -80 -17 -82 -45 -82 -26 0 -29 3 -23 23 23 77 46 230 46 300 0 99
-23 157 -72 187 -39 24 -111 26 -150 5z m99 -127 c39 -43 54 -162 34 -263 -9
-39 -9 -39 -10 18 -1 38 -5 56 -11 52 -6 -4 -8 -15 -5 -26 8 -25 -5 -159 -16
-159 -5 0 -10 62 -11 138 l-2 137 -6 -145 c-5 -135 -6 -142 -18 -105 -7 22
-15 66 -19 98 -3 31 -10 57 -14 57 -13 0 -11 -35 6 -114 21 -98 12 -93 -13 6
-41 168 -38 253 13 304 30 30 46 30 72 2z m423 -43 c8 -9 10 -29 7 -52 -7 -41
-75 -189 -83 -180 -3 3 2 19 10 36 18 35 20 51 6 51 -5 0 -10 -6 -10 -12 0
-29 -106 -215 -117 -205 -2 3 17 51 42 108 65 145 62 136 43 121 -9 -7 -35
-58 -59 -113 -23 -54 -44 -98 -46 -96 -3 3 23 81 42 130 4 9 3 17 -3 17 -6 0
-20 -24 -31 -52 -11 -29 -20 -48 -20 -41 -2 25 60 177 90 225 44 69 101 97
129 63z m-844 -126 c53 -25 149 -127 187 -198 35 -64 29 -79 -9 -19 -45 72
-85 118 -96 112 -6 -4 -19 4 -29 17 -10 13 -20 21 -23 19 -3 -3 24 -50 59
-105 35 -55 61 -104 58 -109 -6 -9 -24 8 -95 94 -22 26 -38 38 -38 29 0 -8 23
-40 50 -71 47 -53 61 -78 41 -78 -16 0 -187 185 -204 222 -45 95 0 135 99 87z
m1189 -113 c35 -54 -25 -132 -147 -189 -81 -39 -147 -61 -93 -31 59 32 105 67
99 75 -3 5 -20 -2 -37 -15 -36 -27 -100 -60 -137 -71 -14 -4 15 17 63 46 91
55 172 118 163 126 -3 3 -33 -16 -67 -41 -64 -48 -187 -121 -194 -115 -2 2 26
28 61 57 36 29 62 57 58 63 -3 6 -27 -9 -53 -34 -53 -49 -89 -72 -99 -62 -13
13 147 153 209 184 81 40 151 43 174 7z m-1027 -115 c41 -72 9 -44 -41 37 -41
67 -43 72 -15 41 18 -20 43 -55 56 -78z m595 94 c-3 -9 -8 -14 -10 -11 -3 3
-2 9 2 15 9 16 15 13 8 -4z m-136 -67 c-3 -8 -6 -5 -6 6 -1 11 2 17 5 13 3 -3
4 -12 1 -19z m12 -93 c72 -22 134 -80 134 -124 0 -100 -220 -177 -408 -142
-118 22 -206 85 -204 146 0 18 1 18 10 -3 11 -28 52 -27 57 2 5 23 -16 38 -41
30 -16 -5 -17 -3 -8 15 15 28 84 67 151 86 69 19 233 14 309 -10z m-664 -66
c89 -29 57 -37 -45 -10 -72 18 -99 19 -71 2 8 -5 41 -14 75 -21 115 -23 116
-30 4 -27 -60 2 -108 0 -108 -5 0 -4 49 -8 109 -8 102 0 143 -9 105 -24 -26
-10 -189 -7 -243 5 -57 12 -114 47 -119 72 -10 50 161 60 293 16z m958 -46
c-7 -2 -21 -2 -30 0 -10 3 -4 5 12 5 17 0 24 -2 18 -5z m119 -64 c65 -14 123
-43 132 -64 12 -32 6 -55 -20 -71 -22 -15 -32 -15 -78 -5 -29 6 -84 27 -122
47 -38 19 -60 32 -49 29 113 -34 165 -42 165 -25 0 6 -11 10 -24 10 -29 0
-190 49 -183 56 2 3 24 0 48 -5 24 -6 73 -10 109 -9 36 0 52 3 35 5 -85 10
-162 25 -175 33 -22 14 96 13 162 -1z m-1176 -156 c19 -26 18 -29 -20 -52 -37
-23 -76 -28 -76 -9 0 14 60 78 73 78 6 0 16 -8 23 -17z m249 -85 c61 -13 146
-21 260 -25 161 -5 243 2 386 33 19 4 28 1 33 -12 9 -24 -4 -30 -103 -49 -125
-23 -290 -30 -408 -16 -94 11 -287 52 -299 63 -11 12 9 39 25 33 9 -4 57 -16
106 -27z m-82 -40 l43 -11 -23 -23 c-28 -28 -29 -44 -3 -77 17 -22 19 -29 9
-45 -16 -25 -6 -48 30 -70 22 -13 27 -22 20 -32 -5 -8 -9 -30 -9 -48 0 -32 16
-45 83 -66 9 -3 17 -14 17 -25 0 -23 28 -41 63 -41 15 0 28 -9 37 -25 16 -30
53 -42 90 -28 20 7 34 7 51 -3 37 -21 65 -16 102 15 19 17 47 31 67 33 29 2
38 9 53 41 14 27 25 37 43 37 36 0 58 40 46 84 -9 32 -8 37 15 51 21 14 24 22
19 53 -3 21 -6 42 -6 47 1 6 2 28 3 50 2 32 -2 41 -21 51 l-23 11 23 7 c51 13
56 9 82 -74 14 -44 31 -121 37 -172 l11 -92 -44 -38 c-61 -54 -189 -116 -278
-134 -144 -30 -324 -4 -485 70 -68 32 -72 35 -92 89 -34 86 -46 169 -40 260 5
85 13 117 28 117 5 0 28 -5 52 -12z m265 -48 c36 0 40 -10 16 -35 -13 -13 -27
-15 -67 -10 -35 5 -48 4 -43 -4 4 -6 29 -11 57 -11 35 0 49 -4 49 -14 0 -15
-91 -33 -110 -21 -5 3 -10 1 -10 -4 0 -7 26 -11 63 -12 l62 -1 -75 -25 c-50
-16 -86 -22 -107 -18 -38 7 -41 20 -12 51 l22 23 -26 12 c-14 6 -28 18 -31 26
-14 36 29 55 114 48 36 -3 80 -5 98 -5z m412 -9 c37 -10 37 -37 0 -59 l-31
-19 27 -20 c39 -29 27 -53 -28 -53 -60 0 -158 29 -158 47 0 10 6 13 17 9 9 -4
37 -10 62 -13 32 -4 42 -3 37 5 -4 7 -17 12 -30 12 -31 0 -86 20 -86 31 0 5
25 9 55 9 30 0 55 4 55 8 0 4 -15 6 -32 4 -36 -4 -88 12 -88 27 0 15 155 25
200 12z m-214 -18 c18 -24 17 -79 -2 -108 -20 -31 -73 -49 -106 -36 -42 16
-71 61 -64 99 8 54 21 62 94 62 50 0 68 -4 78 -17z m-703 -103 c-17 -29 -51
-60 -64 -60 -15 0 -10 39 11 81 21 39 21 39 45 22 22 -17 23 -20 8 -43z m531
-9 c4 -5 -15 -28 -41 -50 -59 -50 -42 -54 21 -6 53 40 57 36 20 -19 -15 -22
-21 -37 -13 -34 8 3 24 19 37 38 30 45 28 21 -4 -43 -49 -98 -95 -125 -117
-67 -7 19 -20 31 -38 35 -74 17 -55 63 48 118 74 40 79 41 87 28z m263 -22
c121 -45 161 -106 78 -121 -11 -1 -25 -15 -32 -31 -26 -60 -65 -41 -114 55
-16 32 -29 60 -29 63 0 4 15 -10 34 -29 18 -20 39 -36 46 -36 7 0 -6 20 -29
45 -22 24 -41 47 -41 50 0 2 21 -9 47 -25 26 -16 49 -27 52 -24 3 4 -3 11 -13
18 -28 16 -72 55 -64 56 4 0 33 -10 65 -21z m-99 -72 c35 -94 44 -135 32 -157
-14 -26 -50 -26 -83 0 -22 18 -26 18 -38 4 -7 -9 -24 -14 -43 -12 -45 4 -46
42 -2 134 19 41 36 74 38 74 2 0 1 -22 0 -49 -2 -27 1 -58 7 -68 8 -14 10 -3
11 50 0 37 4 67 8 67 5 0 14 -28 20 -61 12 -63 17 -77 28 -66 4 3 1 20 -5 38
-13 39 -15 99 -2 99 5 0 18 -24 29 -53z m-654 -51 l26 -13 -23 -44 c-24 -45
-49 -57 -55 -27 -3 16 15 98 22 98 2 0 15 -6 30 -14z m1056 -141 c0 -39 -181
-133 -309 -161 -170 -36 -458 12 -489 81 l-12 25 38 -16 c172 -75 381 -88 542
-34 64 21 193 91 205 110 9 15 25 12 25 -5z m-990 -77 c0 -5 -6 -21 -14 -37
-46 -87 -81 -51 -45 46 7 20 11 22 34 11 14 -6 25 -15 25 -20z m983 -69 c-4
-4 -6 18 -3 49 l5 57 3 -49 c2 -27 0 -52 -5 -57z m-32 -32 c-8 -8 -11 5 -11
44 0 72 14 86 18 18 2 -28 -2 -57 -7 -62z m-31 33 c0 -33 -4 -60 -10 -60 -11
0 -14 103 -3 113 12 12 13 8 13 -53z m-32 -22 c-4 -74 -28 -77 -28 -4 0 44 3
56 16 56 12 0 14 -10 12 -52z m-46 -60 c-9 -9 -12 1 -11 43 l1 54 11 -43 c7
-31 7 -46 -1 -54z m-579 57 c-7 -21 -13 -19 -13 6 0 11 4 18 10 14 5 -3 7 -12
3 -20z m547 -25 c0 -27 -4 -50 -10 -50 -5 0 -10 23 -10 50 0 28 5 50 10 50 6
0 10 -22 10 -50z m-510 18 c0 -13 -5 -30 -10 -38 -7 -11 -10 -5 -10 23 0 20 5
37 10 37 6 0 10 -10 10 -22z m472 -80 c-11 -11 -25 79 -15 96 4 6 11 -11 16
-38 4 -28 4 -53 -1 -58z m-442 57 c0 -19 -4 -35 -10 -35 -5 0 -10 16 -10 35 0
19 5 35 10 35 6 0 10 -16 10 -35z m410 -17 c0 -38 -3 -49 -10 -38 -13 20 -13
90 0 90 6 0 10 -24 10 -52z m-370 7 c0 -24 -5 -35 -15 -35 -10 0 -15 11 -15
35 0 24 5 35 15 35 10 0 15 -11 15 -35z m334 19 c12 -32 7 -84 -9 -84 -11 0
-15 12 -15 50 0 49 12 66 24 34z m-298 -26 c-7 -34 -13 -44 -21 -36 -9 8 7 68
18 68 5 0 7 -13 3 -32z m34 -8 c0 -22 -4 -40 -10 -40 -11 0 -14 63 -3 73 11
12 13 8 13 -33z m35 -14 c-4 -20 -12 -36 -17 -36 -6 0 -8 13 -4 31 3 17 6 39
6 47 0 11 3 13 11 5 6 -6 8 -25 4 -47z m153 -1 c-4 -56 -28 -58 -28 -2 0 24 3
47 7 50 13 14 24 -11 21 -48z m32 5 c0 -27 -4 -50 -10 -50 -5 0 -10 23 -10 50
0 28 5 50 10 50 6 0 10 -22 10 -50z m308 13 c-18 -22 -119 -67 -199 -89 -139
-38 -408 -15 -456 38 -18 21 -18 21 7 14 225 -62 439 -49 596 38 57 33 80 32
52 -1z m-882 17 c23 0 16 -24 -20 -66 -27 -31 -37 -36 -47 -27 -17 17 17 107
38 99 8 -3 21 -6 29 -6z m432 -32 c-2 -24 -7 -43 -13 -43 -5 0 -11 19 -13 43
-3 33 0 42 13 42 13 0 16 -9 13 -42z m32 -3 c0 -25 -4 -45 -10 -45 -5 0 -10
20 -10 45 0 25 5 45 10 45 6 0 10 -20 10 -45z m40 0 c0 -25 -4 -45 -10 -45 -5
0 -10 20 -10 45 0 25 5 45 10 45 6 0 10 -20 10 -45z m-432 -86 c9 -3 4 -17
-17 -47 -51 -69 -80 -47 -46 34 12 29 18 33 32 26 10 -5 24 -11 31 -13z m786
-22 c-4 -20 -18 -31 -57 -45 -96 -36 -161 -46 -287 -47 -132 0 -214 15 -225
43 -8 21 -4 22 40 12 143 -34 352 -17 468 38 34 16 63 28 65 27 2 -2 0 -14 -4
-28z m-30 -79 c-3 -13 -20 -50 -37 -83 -28 -55 -31 -58 -37 -35 -5 18 -1 30
12 43 23 23 23 33 -4 51 -25 18 -25 19 22 33 50 16 52 15 44 -9z m-446 -33 c3
-3 0 -5 -7 -5 -7 0 -11 -11 -10 -27 5 -61 -1 -69 -20 -27 -10 23 -22 51 -25
62 -7 19 -5 20 25 12 17 -5 34 -12 37 -15z m362 -5 c13 -9 11 -14 -13 -34 -24
-19 -26 -24 -13 -29 9 -4 16 -13 16 -22 0 -19 -42 -20 -79 -1 -23 13 -27 20
-23 46 3 20 12 35 26 40 29 12 68 12 86 0z m-300 -21 c0 -11 5 -29 11 -41 13
-25 10 -27 -35 -35 -32 -5 -36 -3 -36 15 0 11 5 24 11 27 6 5 4 12 -8 21 -16
12 -16 15 -3 24 27 18 60 12 60 -11z m53 -9 c11 -55 87 -50 87 6 0 17 6 24 20
24 30 0 25 -36 -10 -72 -26 -25 -36 -29 -63 -24 -38 7 -67 39 -67 72 0 34 26
30 33 -6z m-308 0 c5 -7 -42 -81 -59 -92 -27 -18 -26 56 0 103 4 8 53 -1 59
-11z m467 -77 c46 -44 31 -81 -23 -53 -16 9 -19 7 -19 -8 0 -11 -6 -25 -14
-31 -12 -10 -19 -8 -35 8 -27 27 -29 81 -3 81 10 0 27 7 38 15 25 19 24 19 56
-12z m-167 7 c3 -5 15 -10 26 -10 22 0 24 -18 7 -55 -12 -26 -27 -31 -56 -16
-9 5 -25 12 -34 15 -25 7 -22 22 7 51 26 27 40 31 50 15z m-90 -31 c-10 -32 4
-59 31 -59 13 0 24 -4 24 -10 0 -15 43 -12 65 4 17 12 21 12 33 -6 18 -24 53
-20 67 9 9 16 15 19 29 11 26 -15 46 -2 46 31 0 24 5 29 29 33 l30 4 -17 -30
c-27 -47 -97 -116 -118 -116 -11 0 -37 9 -57 19 -35 18 -40 18 -77 4 -54 -22
-86 -8 -98 44 -24 92 -24 92 -2 86 15 -4 19 -11 15 -24z m-126 -64 c2 -2 -8
-23 -21 -47 -42 -76 -76 -54 -47 31 10 29 15 32 38 26 14 -4 28 -8 30 -10z
m-452 -167 c-3 -8 -6 -5 -6 6 -1 11 2 17 5 13 3 -3 4 -12 1 -19z m473 -19 c0
-4 -16 -21 -36 -39 -28 -24 -39 -29 -45 -19 -8 14 3 42 28 71 12 14 19 15 34
5 10 -6 19 -15 19 -18z m-460 -19 c0 -5 -4 -10 -9 -10 -6 0 -13 5 -16 10 -3 6
1 10 9 10 9 0 16 -4 16 -10z m18 -38 c3 -9 -2 -13 -14 -10 -9 1 -19 9 -22 16
-3 9 2 13 14 10 9 -1 19 -9 22 -16z m20 -45 c3 -14 -1 -18 -20 -15 -12 2 -24
11 -26 21 -3 14 1 18 20 15 12 -2 24 -11 26 -21z m27 -37 c8 -13 -20 -24 -41
-16 -20 8 -9 26 16 26 10 0 22 -5 25 -10z m-15 -55 c0 -16 -27 -32 -37 -22 -3
4 -3 13 0 22 8 20 37 20 37 0z m13 -50 c-3 -16 -63 -25 -63 -10 0 8 6 16 13
19 19 8 52 2 50 -9z m12 -34 c-16 -15 -65 -25 -65 -13 0 6 10 13 23 15 41 8
51 7 42 -2z m-25 -41 c-20 -13 -33 -13 -25 0 3 6 14 10 23 10 15 0 15 -2 2
-10z m665 -50 c-3 -5 -12 -10 -18 -10 -7 0 -6 4 3 10 19 12 23 12 15 0z m-18
-36 c-3 -3 -12 -4 -19 -1 -8 3 -5 6 6 6 11 1 17 -2 13 -5z m-24 -21 c-7 -2
-19 -2 -25 0 -7 3 -2 5 12 5 14 0 19 -2 13 -5z m-13 -23 c12 -8 12 -10 -5 -9
-11 0 -29 4 -40 9 -18 8 -18 9 5 9 14 0 32 -4 40 -9z m-15 -33 c7 -7 4 -8 -8
-3 -10 3 -30 6 -43 6 -13 0 -24 4 -24 10 0 12 61 1 75 -13z m-30 -17 c27 -7
26 -8 -15 -9 -25 0 -52 4 -60 9 -11 7 -8 9 15 9 17 -1 44 -5 60 -9z m-20 -30
c13 -6 -2 -7 -40 -3 -33 3 -62 7 -64 9 -9 8 85 2 104 -6z m-1 -31 c-3 -5 -20
-9 -37 -9 -48 0 -110 12 -99 19 16 9 143 0 136 -10z m-61 -26 c-24 -2 -62 -2
-85 0 -24 2 -5 4 42 4 47 0 66 -2 43 -4z m16 -29 c2 -2 -35 -4 -83 -4 -57 0
-85 4 -81 10 6 10 153 4 164 -6z m70 -44 l-1 -25 -8 25 c-4 14 -8 32 -9 40 -1
13 0 13 9 0 5 -8 9 -26 9 -40z m-104 20 c25 -11 -33 -11 -120 0 l-60 7 80 1
c44 0 89 -3 100 -8z m-601 -50 c4 -23 19 -54 37 -74 30 -34 30 -35 9 -46 -18
-10 -26 -6 -55 23 -30 30 -35 42 -35 80 0 41 7 53 31 56 4 1 9 -17 13 -39z
m695 -39 c2 -31 -18 6 -23 44 l-6 40 14 -35 c8 -19 15 -42 15 -49z m-759 35
c0 -47 15 -82 46 -111 25 -23 25 -45 0 -45 -32 0 -96 100 -96 149 0 18 23 40
43 41 4 0 7 -15 7 -34z m660 24 c0 -6 -40 -10 -99 -10 -56 0 -103 4 -106 10
-4 6 32 10 99 10 64 0 106 -4 106 -10z m-16 -67 c-113 -154 -211 -270 -326
-385 -65 -65 -124 -118 -131 -118 -8 0 47 62 122 138 75 75 192 206 260 290
68 83 126 152 128 152 2 0 -22 -35 -53 -77z m-704 23 c0 -45 30 -102 73 -136
l21 -17 -21 -11 c-17 -9 -25 -6 -56 26 -42 43 -57 78 -57 132 0 34 8 47 33 49
4 1 7 -19 7 -43z m787 -16 c6 -28 7 -53 3 -55 -4 -3 -10 8 -13 24 -3 16 -9 40
-13 55 -3 15 -2 26 4 26 5 0 14 -23 19 -50z m-847 26 c0 -8 -15 -16 -35 -19
-67 -11 -155 -42 -155 -54 0 -7 9 -13 20 -13 11 0 20 4 20 10 0 11 92 40 127
40 47 0 22 -25 -39 -40 -44 -11 -64 -20 -66 -33 -4 -21 21 -23 38 -2 15 18 82
37 93 26 4 -4 2 -13 -5 -19 -19 -15 -133 -52 -163 -52 -31 0 -77 43 -69 64 9
22 63 53 141 81 81 28 93 29 93 11z m750 4 c0 -6 -45 -10 -116 -10 -74 0 -113
4 -109 10 4 6 53 10 116 10 66 0 109 -4 109 -10z m79 -120 c0 -17 -7 -7 -20
29 -10 29 -15 59 -12 65 8 13 31 -57 32 -94z m-104 80 c-7 -12 -175 -12 -220
0 -19 5 17 8 98 9 83 1 126 -3 122 -9z m70 -66 c9 -31 13 -64 9 -73 -8 -20
-45 94 -37 115 8 22 10 18 28 -42z m-100 37 c-11 -10 -255 -20 -255 -10 0 16
23 19 139 19 75 0 121 -4 116 -9z m-27 -33 c-3 -9 -42 -14 -139 -16 -88 -2
-130 1 -124 7 6 6 60 12 120 14 61 1 118 4 128 5 11 1 17 -3 15 -10z m108
-100 c4 -24 3 -39 -2 -35 -13 13 -43 120 -37 131 9 13 31 -41 39 -96z m-753
68 c4 -9 -18 -29 -59 -57 -35 -24 -64 -49 -64 -56 0 -23 18 -22 34 2 20 30 90
79 106 73 11 -3 -64 -58 -80 -58 -10 0 -20 -26 -13 -34 12 -11 33 -6 33 9 0
18 85 69 100 60 38 -24 -160 -125 -217 -110 -58 14 -5 99 97 155 30 16 56 30
56 30 1 0 4 -6 7 -14z m617 -5 c-21 -12 -285 -22 -274 -11 9 9 79 14 219 18
42 1 64 -2 55 -7z m112 -148 c-6 -10 -15 8 -29 59 -27 98 -15 123 14 30 14
-45 20 -79 15 -89z m-137 118 c-15 -13 -283 -25 -270 -12 6 6 55 12 110 14 55
1 116 4 135 5 20 1 30 -2 25 -7z m96 -81 c15 -51 18 -75 10 -83 -12 -12 -12
-12 -36 76 -9 32 -14 65 -11 74 9 23 15 14 37 -67z m-121 51 c0 -11 -51 -18
-185 -27 -78 -5 -97 -4 -88 6 6 7 59 15 130 20 65 4 124 8 131 9 6 0 12 -3 12
-8z m-320 -26 c0 -4 -7 -20 -16 -36 -12 -25 -18 -28 -30 -18 -17 14 -18 31 -2
47 12 12 48 17 48 7z m407 -67 c19 -69 20 -98 3 -98 -4 0 -14 34 -23 75 -19
87 -20 95 -9 95 5 0 18 -33 29 -72z m-124 51 c-16 -16 -253 -38 -253 -23 0 8
23 15 63 18 34 3 78 8 97 9 81 8 104 7 93 -4z m90 -91 c19 -82 21 -107 8 -92
-15 16 -53 143 -46 154 13 21 22 7 38 -62z m-126 48 c-10 -8 -58 -17 -110 -21
-51 -3 -100 -9 -111 -12 -12 -3 -17 -1 -14 8 4 13 134 35 223 37 27 1 28 0 12
-12z m-300 -13 c9 -23 -34 -58 -53 -42 -15 12 -19 41 -7 52 13 13 54 7 60 -10z
m413 -145 c0 -10 -4 -18 -8 -18 -11 0 -51 142 -44 154 6 10 52 -110 52 -136z
m-151 118 c-5 -5 -161 -26 -191 -26 -10 0 -18 4 -18 9 0 4 46 12 103 17 99 9
115 9 106 0z m-265 -57 c-34 -68 -44 -195 -23 -302 27 -146 5 -412 -39 -460
-23 -26 -66 -47 -96 -47 -39 0 -92 54 -115 116 -26 67 -44 222 -35 289 6 46
50 152 59 143 2 -2 -2 -44 -10 -93 -19 -117 -19 -258 0 -323 18 -58 53 -92 97
-92 42 0 65 16 88 59 33 66 42 159 34 376 -8 226 4 334 39 372 31 34 31 21 1
-38z m365 -18 c23 -75 25 -91 13 -91 -11 0 -54 138 -47 150 10 16 12 13 34
-59z m-435 53 c22 -8 20 -27 -4 -49 -16 -15 -22 -15 -35 -5 -18 15 -19 32 -3
48 14 14 20 14 42 6z m301 -13 c-11 -10 -193 -26 -183 -16 3 3 37 10 75 14 99
12 118 12 108 2z m104 -81 c12 -38 17 -68 11 -74 -9 -9 -26 40 -36 109 -9 56
2 41 25 -35z m-135 41 c-14 -15 -154 -26 -154 -13 0 12 39 20 110 24 51 3 58
2 44 -11z m102 -52 c16 -62 18 -89 5 -89 -13 0 -19 21 -27 92 -8 74 1 72 22
-3z m-432 45 c22 -8 20 -27 -4 -49 -16 -15 -22 -15 -35 -5 -18 15 -19 32 -3
48 14 14 20 14 42 6z m906 -37 c0 -14 -68 -37 -107 -37 -46 0 -66 11 -57 33 4
12 16 15 52 11 29 -3 56 0 72 9 24 13 39 7 40 -16z m-632 6 c-15 -2 -42 -2
-60 0 -18 2 -6 4 27 4 33 0 48 -2 33 -4z m127 -68 c4 -41 3 -55 -4 -44 -14 22
-26 127 -13 114 6 -5 13 -37 17 -70z m-31 -17 c6 -39 4 -48 -7 -48 -17 0 -34
91 -21 111 10 17 20 -6 28 -63z m-124 52 c-20 -13 -57 -13 -65 0 -4 6 11 10
37 10 31 0 39 -3 28 -10z m690 -4 c27 -34 -132 -80 -193 -57 -50 19 -27 36 49
36 50 0 77 5 95 17 30 21 34 21 49 4z m-980 -14 c0 -28 -33 -55 -48 -40 -13
13 -16 41 -5 51 3 4 17 7 30 7 16 0 23 -6 23 -18z m115 -9 c-4 -16 -7 -28 -8
-29 -50 -31 -140 -75 -144 -70 -13 13 48 79 93 101 64 30 67 30 59 -2z m145
-3 c0 -5 -4 -10 -10 -10 -5 0 -10 5 -10 10 0 6 5 10 10 10 6 0 10 -4 10 -10z
m112 -37 c1 -18 -2 -34 -7 -35 -6 -2 -11 17 -13 42 -4 52 14 45 20 -7z m762
-22 c48 -40 -19 -109 -80 -80 -34 17 -101 102 -84 107 6 2 21 -5 33 -15 58
-51 97 -62 97 -27 0 9 -10 14 -29 14 -30 0 -85 36 -76 50 6 9 115 -29 139 -49z
m-805 7 c-1 -31 -1 -31 -8 -8 -5 14 -6 28 -4 33 9 15 13 6 12 -25z m-384 -3
c0 -19 -33 -57 -44 -50 -15 9 -14 52 2 58 18 8 42 3 42 -8z m355 -1 c0 -8 -5
-12 -10 -9 -6 4 -8 11 -5 16 9 14 15 11 15 -7z m678 -39 c48 -65 56 -94 36
-116 -24 -26 -61 -24 -88 6 -29 31 -60 125 -46 139 12 12 11 13 44 -56 15 -32
33 -58 41 -58 21 0 18 27 -4 39 -17 9 -41 58 -41 82 0 22 28 4 58 -36z m-884
14 c-3 -5 -10 -7 -15 -3 -5 3 -7 10 -3 15 3 5 10 7 15 3 5 -3 7 -10 3 -15z
m617 -27 c-11 -21 -27 -44 -35 -51 -22 -18 -20 -43 2 -39 9 2 17 8 17 13 1 6
14 35 30 65 26 49 30 52 33 30 7 -41 -18 -128 -45 -160 -20 -25 -32 -30 -67
-30 -23 0 -51 6 -62 14 -18 14 -16 18 47 83 36 37 71 78 78 91 6 12 14 22 17
22 2 0 -4 -17 -15 -38z m103 -35 c0 -57 2 -67 15 -64 9 2 14 10 12 18 -3 8 -7
38 -9 68 -3 41 -1 52 9 49 18 -6 27 -41 28 -114 1 -49 -3 -64 -19 -79 -25 -23
-48 -13 -65 30 -15 35 -21 146 -8 159 4 4 14 5 23 4 12 -3 15 -18 14 -71z
m-774 39 c0 -11 -19 -15 -25 -6 -3 5 1 10 9 10 9 0 16 -2 16 -4z m-145 -15 c8
-14 -16 -61 -32 -61 -7 0 -13 2 -13 4 0 2 -3 11 -6 19 -3 8 2 22 11 31 19 18
31 20 40 7z m215 -10 c0 -13 -24 -29 -87 -59 -49 -22 -89 -39 -91 -38 -12 13
23 43 87 76 88 45 91 46 91 21z m-126 -12 c-3 -5 -10 -7 -15 -3 -5 3 -7 10 -3
15 3 5 10 7 15 3 5 -3 7 -10 3 -15z m-129 -76 c-9 -39 -21 -49 -40 -33 -27 23
-10 60 28 60 16 0 18 -5 12 -27z m229 6 c-3 -5 -10 -7 -15 -3 -5 3 -7 10 -3
15 3 5 10 7 15 3 5 -3 7 -10 3 -15z m-64 -23 c0 -3 -4 -8 -10 -11 -5 -3 -10
-1 -10 4 0 6 5 11 10 11 6 0 10 -2 10 -4z m100 -15 c0 -14 -26 -33 -94 -70
-52 -28 -97 -51 -100 -51 -3 0 -6 10 -6 23 0 18 17 31 93 69 50 26 95 47 100
47 4 1 7 -8 7 -18z m-160 -11 c0 -5 -4 -10 -10 -10 -5 0 -10 5 -10 10 0 6 5
10 10 10 6 0 10 -4 10 -10z m-134 -24 c7 -19 -14 -58 -28 -54 -19 7 -32 34
-25 52 8 20 46 21 53 2z m270 -37 c10 -17 -13 -36 -27 -22 -12 12 -4 33 11 33
5 0 12 -5 16 -11z m-291 -56 c-9 -39 -21 -49 -40 -33 -15 13 -20 42 -8 53 3 4
17 7 31 7 21 0 23 -3 17 -27z m65 -168 c7 -22 24 -62 37 -88 30 -60 24 -70
-12 -22 -37 48 -65 153 -64 240 l1 70 12 -80 c7 -44 19 -98 26 -120z m148 178
c-5 -25 -28 -28 -28 -4 0 12 6 21 16 21 9 0 14 -7 12 -17z m102 0 c-1 -12 -35
-37 -100 -75 -95 -54 -100 -56 -100 -34 0 19 17 33 93 74 106 57 107 58 107
35z m-164 -34 c10 -17 -13 -36 -27 -22 -12 12 -4 33 11 33 5 0 12 -5 16 -11z
m-166 -51 c0 -33 -15 -52 -34 -45 -38 15 -26 67 15 67 13 0 19 -7 19 -22z
m307 1 c16 -16 5 -39 -18 -39 -12 0 -19 7 -19 18 0 31 17 41 37 21z m-69 -52
c4 -21 -25 -34 -40 -19 -8 8 -8 16 2 27 16 19 34 15 38 -8z m-250 -45 c3 -26
0 -32 -15 -32 -19 0 -43 18 -43 31 0 14 32 40 44 36 6 -2 12 -18 14 -35z m332
28 c0 -12 -120 -89 -138 -90 -27 0 -6 21 58 60 69 42 80 46 80 30z m450 -39
c11 -22 13 -61 4 -85 -10 -25 -44 -20 -45 7 l-2 22 -4 -22 c-6 -31 -27 -29
-40 5 -11 27 -11 27 -6 -5 7 -41 -10 -43 -32 -5 -9 15 -13 18 -10 7 11 -34 10
-39 -6 -42 -24 -6 -50 54 -36 84 14 32 57 35 90 6 13 -12 17 -13 17 -3 0 18
30 50 46 50 7 0 18 -9 24 -19z m-689 -117 c38 -46 133 -57 207 -24 58 26 51 3
-8 -27 -55 -29 -123 -30 -167 -4 -38 24 -82 96 -89 148 -5 35 -4 34 19 -20 14
-32 31 -64 38 -73z m803 101 c0 -17 5 -20 33 -17 47 6 52 -18 17 -69 -29 -42
-49 -57 -62 -45 -3 4 -1 16 6 26 19 30 14 38 -7 11 -22 -29 -47 -21 -30 10 6
12 8 23 6 26 -3 2 -10 -5 -17 -16 -6 -12 -18 -21 -26 -21 -12 0 -14 7 -9 33
14 62 34 89 63 85 20 -2 27 -9 26 -23z m-894 -54 c0 -36 -11 -45 -35 -27 -23
16 -12 56 16 56 14 0 19 -7 19 -29z m1028 -50 c-3 -23 1 -32 19 -40 13 -6 23
-17 23 -25 0 -27 -82 -78 -98 -61 -4 3 4 15 18 25 14 11 20 20 13 20 -6 0 -15
-4 -18 -10 -3 -5 -13 -10 -22 -10 -14 0 -14 3 2 20 10 11 16 22 13 25 -3 3
-11 -1 -18 -10 -12 -14 -15 -14 -32 2 -18 16 -17 18 19 55 23 23 46 38 61 38
21 0 24 -4 20 -29z m-1028 -37 c0 -28 -4 -35 -16 -32 -27 5 -40 34 -25 52 23
28 41 19 41 -20z m83 -26 c-9 -15 -23 -8 -23 12 0 17 2 19 14 8 8 -7 12 -16 9
-20z m686 -8 l4 -35 6 32 c4 22 10 30 18 25 9 -6 9 -18 0 -55 -12 -46 -13 -47
-29 -28 -9 10 -19 29 -23 42 -17 62 -17 61 2 57 12 -2 19 -14 22 -38z m-40 -1
c14 -40 14 -39 -4 -39 -18 0 -66 51 -58 62 2 5 15 8 28 8 17 0 26 -8 34 -31z
m-389 -9 c0 -21 -16 -26 -39 -11 -11 7 -10 11 5 20 27 15 34 14 34 -9z m330
-5 c20 -21 21 -25 7 -30 -8 -4 -27 1 -41 11 -21 13 -24 19 -15 30 16 19 22 18
49 -11z m190 -1 c0 -9 -52 -94 -57 -94 -7 0 4 97 12 110 6 10 45 -4 45 -16z
m-735 0 c32 -21 31 -35 -1 -84 -30 -45 -44 -51 -44 -18 0 12 -5 36 -12 54 -9
26 -9 36 1 48 17 20 26 20 56 0z m-111 -27 c10 -40 -35 -51 -58 -14 -9 14 -7
21 7 32 24 17 43 10 51 -18z m296 8 c17 -9 30 -22 30 -30 0 -19 -3 -19 -51 6
-23 11 -43 19 -45 16 -2 -2 19 -14 46 -27 45 -21 64 -40 41 -40 -24 0 -131 54
-131 66 0 8 6 11 14 8 8 -3 23 -1 33 5 24 14 29 14 63 -4z m314 -6 c33 -15 24
-29 -20 -29 -36 0 -42 8 -22 28 15 15 12 15 42 1z m264 -10 c12 -19 10 -24
-25 -54 -21 -18 -41 -31 -46 -28 -7 4 43 103 53 103 3 0 11 -9 18 -21z m-155
-30 c24 -18 57 -93 45 -104 -2 -3 -22 4 -43 15 -38 19 -37 22 10 34 11 3 -2 3
-30 0 l-50 -5 33 31 c18 16 28 30 23 30 -5 0 -22 -13 -38 -30 -34 -36 -57 -40
-48 -7 8 25 41 57 60 57 7 0 24 -9 38 -21z m-583 -73 c-32 -58 -38 -63 -48
-35 -8 19 -3 33 21 68 26 38 31 41 40 26 7 -13 3 -28 -13 -59z m134 49 c50
-22 73 -45 46 -45 -20 0 -120 49 -120 59 0 16 11 14 74 -14z m346 15 c0 -5 -9
-10 -19 -10 -11 0 -26 -3 -35 -6 -11 -4 -16 -1 -16 10 0 12 10 16 35 16 19 0
35 -4 35 -10z m-594 -33 c7 -23 -19 -49 -42 -40 -23 8 -29 45 -9 59 21 16 42
8 51 -19z m880 9 c3 -14 3 -30 -1 -35 -3 -6 -2 -11 3 -11 5 0 12 -9 15 -19 4
-16 -1 -21 -24 -25 -16 -3 -42 -9 -59 -12 -23 -4 -30 -2 -30 10 0 9 6 16 13
17 10 0 10 2 0 6 -23 9 -14 30 25 62 45 37 50 38 58 7z m-286 -1 c0 -2 -12
-12 -26 -21 -22 -15 -27 -15 -34 -3 -6 8 -4 16 3 21 13 8 57 11 57 3z m-292
-52 c19 -8 14 -25 -5 -19 -10 3 -37 10 -60 16 -24 6 -43 12 -43 15 0 2 -3 11
-6 20 -6 16 -6 16 114 -32z m-173 -53 c-9 -28 -18 -50 -20 -50 -3 0 -9 9 -15
20 -11 20 4 62 34 99 19 24 20 -13 1 -69z m445 55 c-7 -8 -17 -12 -22 -9 -5 3
-1 12 9 19 22 17 30 11 13 -10z m-549 -32 c11 -30 -1 -49 -26 -40 -22 9 -29
35 -15 52 18 22 29 19 41 -12z m301 -16 c5 -8 -6 -14 -35 -18 l-42 -6 46 -1
c27 -1 52 -8 58 -16 10 -12 6 -15 -26 -19 -38 -4 -38 -4 7 -5 51 -3 85 -17 60
-26 -8 -3 -26 -10 -40 -15 -19 -6 -31 -5 -46 8 -25 20 -104 120 -104 131 0 12
113 -20 122 -33z m415 -3 c12 -31 -14 -36 -34 -7 -37 53 -37 56 -4 38 18 -9
35 -23 38 -31z m515 20 c38 -20 68 -62 68 -98 0 -68 -73 -130 -199 -170 -75
-24 -99 -22 -88 7 8 22 115 59 149 52 24 -6 28 -3 28 14 0 12 -4 21 -9 21 -9
0 -135 -42 -163 -54 -13 -6 -18 -4 -18 8 0 25 88 70 140 71 34 1 46 5 48 18 2
10 -3 17 -11 17 -25 0 -127 -39 -156 -60 -35 -24 -41 -25 -41 -4 0 34 96 87
148 82 29 -2 37 1 40 16 4 16 0 18 -35 12 -51 -10 -123 -42 -150 -68 -13 -12
-23 -17 -23 -11 0 13 35 44 89 79 31 20 57 29 90 29 33 1 46 5 46 16 0 10 -9
13 -30 11 -54 -5 -94 -23 -155 -68 -73 -53 -79 -38 -10 27 75 73 163 92 242
53z m-1096 -46 c-9 -68 -18 -85 -36 -63 -9 11 -10 22 -1 42 6 16 15 41 21 57
16 42 23 25 16 -36z m564 -29 c0 -9 -6 -22 -13 -28 -11 -8 -17 -3 -30 24 -9
19 -14 42 -10 50 5 14 9 13 29 -6 13 -12 24 -30 24 -40z m172 31 c-3 -22 -10
-30 -26 -31 -17 -1 -18 -2 -3 -6 13 -3 16 -10 11 -26 -3 -12 -8 -24 -10 -26
-6 -7 -113 43 -108 51 3 4 24 9 47 10 l42 1 -37 4 c-78 8 -30 40 78 52 6 1 9
-11 6 -29z m-688 -23 c14 -21 27 -48 27 -60 1 -18 2 -18 6 -4 4 14 8 16 19 6
9 -8 14 -33 14 -77 0 -64 0 -65 -20 -47 -13 12 -20 32 -21 59 l-2 41 -6 -34
c-5 -30 -8 -32 -19 -18 -10 11 -12 32 -8 69 l5 53 -12 -48 c-10 -39 -14 -46
-24 -36 -7 7 -13 19 -13 26 0 20 22 115 25 111 2 -2 15 -20 29 -41z m-156 1
c15 -15 16 -45 2 -53 -19 -12 -50 6 -50 29 0 36 24 48 48 24z m633 -71 c-7 -7
-15 0 -26 27 -21 51 -7 69 17 21 14 -26 17 -40 9 -48z m-31 12 c11 -26 11 -32
-1 -40 -23 -14 -28 -11 -32 24 l-4 32 -1 -37 c-2 -42 -4 -44 -55 -53 -32 -6
-37 -5 -38 11 -1 17 -2 17 -6 2 -5 -20 -33 -25 -33 -5 0 6 3 22 6 35 7 26 34
30 35 5 0 -14 2 -13 9 5 10 24 35 30 43 10 4 -8 6 -7 6 3 1 17 41 50 52 43 4
-2 12 -18 19 -35z m154 1 c44 -19 56 -33 37 -44 -8 -5 -98 27 -109 39 -6 6 8
25 18 25 4 0 29 -9 54 -20z m-374 -6 c-24 -28 -48 -36 -72 -23 l-23 12 30 13
c17 7 41 13 54 14 20 0 22 -2 11 -16z m557 -71 c142 -304 -161 -636 -500 -548
-86 22 -135 51 -203 119 -89 90 -128 207 -109 331 5 37 9 44 20 35 8 -7 14
-41 17 -98 2 -72 8 -97 32 -145 143 -282 569 -282 708 1 31 62 33 74 33 167 0
90 -3 105 -28 152 -15 29 -27 58 -27 65 1 20 29 -20 57 -79z m-893 55 c19 -26
4 -51 -28 -46 -24 4 -33 33 -16 53 17 20 26 19 44 -7z m381 12 c7 -12 -5 -60
-15 -60 -5 0 -21 5 -37 11 l-28 11 30 24 c33 26 41 29 50 14z m344 -48 c3 -1
-2 -10 -11 -18 -14 -14 -19 -13 -58 11 -23 14 -44 24 -47 22 -2 -3 14 -15 37
-28 22 -13 39 -28 37 -33 -7 -21 -34 -16 -69 12 l-37 29 26 26 26 25 46 -21
c25 -12 48 -23 50 -25z m-509 -44 c0 -43 -3 -59 -12 -56 -8 3 -14 29 -16 73
-3 61 -1 67 13 55 10 -9 15 -30 15 -72z m630 29 c0 -5 -7 -4 -15 3 -8 7 -15
20 -15 29 1 13 3 13 15 -3 8 -11 15 -24 15 -29z m-592 11 c7 -7 13 -26 13 -42
2 -31 2 -31 8 4 6 32 7 33 18 15 18 -32 43 -125 33 -125 -26 0 -40 15 -41 44
-2 30 -2 30 -6 4 -5 -30 -21 -36 -41 -16 -13 13 -17 128 -4 128 4 0 13 -5 20
-12z m560 -29 c-17 -10 -28 -2 -21 17 4 11 8 12 20 3 11 -10 11 -14 1 -20z
m-203 -12 c32 -28 35 -34 23 -45 -12 -9 -23 -5 -57 25 -32 27 -39 38 -29 44
19 13 21 12 63 -24z m-244 -43 c24 -61 24 -76 2 -72 -12 2 -26 25 -40 63 -27
75 -27 76 -2 66 13 -4 29 -26 40 -57z m200 19 l40 -37 -23 -13 c-21 -12 -26
-9 -60 30 -42 46 -53 42 -13 -5 23 -27 26 -48 6 -48 -8 0 -71 84 -71 95 0 4 9
5 19 2 10 -2 25 -1 32 4 21 13 26 12 70 -28z m-149 -29 c33 -59 34 -66 7 -62
-15 2 -27 18 -40 53 -22 59 -23 68 -6 63 6 -3 24 -27 39 -54z m42 7 c42 -56
43 -61 16 -61 -14 0 -27 15 -45 50 -28 55 -29 60 -16 60 5 0 25 -22 45 -49z
m397 33 c10 -13 10 -17 -2 -25 -8 -5 -19 -9 -25 -9 -18 0 -27 32 -12 42 18 11
24 10 39 -8z m-61 -38 c-15 -15 -34 9 -26 31 7 17 8 17 22 -1 9 -13 11 -23 4
-30z m483 -15 c45 -44 45 -101 0 -142 -18 -15 -52 -33 -75 -40 -74 -20 -275 6
-265 34 6 20 115 21 144 2 18 -12 28 -14 36 -6 20 20 -7 31 -92 38 -53 4 -80
10 -78 17 6 17 174 10 203 -9 31 -20 44 -19 44 4 0 15 -11 19 -61 25 -34 3
-91 6 -126 6 -71 0 -83 17 -23 33 38 10 166 5 193 -7 13 -6 17 -4 17 13 0 20
-5 21 -82 21 -46 -1 -102 -5 -125 -9 -66 -13 -51 4 20 23 167 45 224 44 270
-3z m-523 14 c0 -8 -7 -15 -15 -15 -8 0 -15 7 -15 15 0 8 7 15 15 15 8 0 15
-7 15 -15z m120 -15 c0 -11 0 -23 1 -27 0 -5 -7 -9 -15 -11 -20 -4 -32 38 -15
49 22 14 29 11 29 -11z m-871 -2 c32 -7 51 -17 51 -26 0 -12 -13 -13 -67 -9
-38 3 -81 9 -96 13 -25 6 -28 4 -25 -12 2 -15 12 -19 43 -19 117 -2 145 -5
145 -19 0 -19 -75 -31 -146 -22 -42 5 -54 3 -54 -7 0 -11 21 -13 105 -9 71 3
105 1 105 -6 0 -19 -20 -24 -113 -27 -74 -3 -93 -7 -95 -19 -4 -17 18 -22 34
-7 5 5 46 11 91 13 66 4 83 2 88 -10 3 -8 4 -16 2 -18 -2 -2 -49 -9 -104 -16
-156 -18 -244 6 -277 77 -18 36 -11 70 19 95 43 36 197 51 294 28z m155 -21
c8 -13 7 -20 -4 -27 -20 -12 -30 -3 -30 26 0 28 17 28 34 1z m666 3 c9 -16 8
-22 -6 -27 -16 -6 -34 11 -34 35 0 19 28 14 40 -8z m-53 -6 c3 -8 1 -20 -6
-27 -13 -13 -16 -10 -25 21 -6 16 -3 22 9 22 8 0 18 -7 22 -16z m-44 -13 c3
-12 -1 -22 -11 -26 -16 -6 -32 10 -32 33 0 20 37 14 43 -7z m-528 -1 c3 -5 -1
-10 -9 -10 -9 0 -16 5 -16 10 0 6 4 10 9 10 6 0 13 -4 16 -10z m478 -10 c3
-11 1 -20 -3 -20 -5 0 -15 -3 -23 -6 -17 -6 -31 33 -13 40 23 9 34 5 39 -14z
m-55 -18 c2 -7 -6 -12 -17 -12 -21 0 -27 11 -14 24 9 9 26 2 31 -12z m262 3
c0 -8 -4 -15 -10 -15 -5 0 -10 7 -10 15 0 8 5 15 10 15 6 0 10 -7 10 -15z
m-677 -1 c9 -10 -4 -34 -19 -34 -8 0 -14 9 -14 20 0 19 19 27 33 14z m47 -8
c0 -8 -7 -16 -15 -20 -10 -4 -15 1 -15 14 0 11 7 20 15 20 8 0 15 -6 15 -14z
m600 -5 c8 -16 6 -21 -11 -26 -22 -7 -39 7 -39 33 0 19 38 14 50 -7z m-690 2
c0 -17 -19 -35 -29 -29 -18 12 -12 36 9 36 11 0 20 -3 20 -7z m130 -3 c0 -5
-7 -10 -15 -10 -8 0 -15 5 -15 10 0 6 7 10 15 10 8 0 15 -4 15 -10z m280 0 c0
-5 -7 -10 -15 -10 -8 0 -15 5 -15 10 0 6 7 10 15 10 8 0 15 -4 15 -10z m223
-9 c7 -26 -20 -35 -33 -11 -14 26 -13 30 9 30 10 0 21 -9 24 -19z m-322 -14
c-13 -13 -26 -3 -16 12 3 6 11 8 17 5 6 -4 6 -10 -1 -17z m54 13 c-3 -5 -13
-10 -21 -10 -8 0 -14 5 -14 10 0 6 9 10 21 10 11 0 17 -4 14 -10z m168 -19 c6
-23 -32 -38 -45 -18 -13 20 -9 35 10 40 23 5 29 1 35 -22z m50 10 c3 -12 -1
-22 -11 -26 -16 -6 -32 10 -32 33 0 20 37 14 43 -7z m-403 -11 c0 -13 -7 -20
-20 -20 -19 0 -27 20 -13 33 13 14 33 6 33 -13z m50 6 c0 -15 -24 -28 -34 -19
-13 14 -5 33 14 33 11 0 20 -6 20 -14z m50 5 c0 -5 -7 -12 -16 -15 -22 -9 -24
-8 -24 9 0 8 9 15 20 15 11 0 20 -4 20 -9z m193 -20 c6 -23 -22 -38 -35 -19
-11 19 -10 36 5 41 17 6 24 1 30 -22z m-343 -1 c0 -11 -7 -20 -15 -20 -8 0
-15 9 -15 20 0 11 7 20 15 20 8 0 15 -9 15 -20z m288 -7 c4 -28 -24 -38 -32
-11 -3 12 -3 25 0 30 9 15 29 3 32 -19z m-380 -5 c-4 -29 -38 -38 -38 -10 0
19 11 29 33 31 5 1 7 -9 5 -21z m52 2 c0 -13 -7 -20 -20 -20 -13 0 -20 7 -20
20 0 13 7 20 20 20 13 0 20 -7 20 -20z m282 -4 c6 -32 -28 -44 -36 -13 -6 24
0 37 18 37 8 0 16 -11 18 -24z m-382 -8 c0 -19 -2 -20 -10 -8 -13 19 -13 30 0
30 6 0 10 -10 10 -22z m330 -3 c0 -16 -6 -25 -15 -25 -9 0 -15 9 -15 25 0 16
6 25 15 25 9 0 15 -9 15 -25z m382 0 c-4 -23 -32 -37 -32 -16 0 5 -3 16 -6 25
-5 12 0 16 19 16 20 0 24 -4 19 -25z m-422 -10 c0 -18 -5 -25 -20 -25 -15 0
-20 7 -20 25 0 18 5 25 20 25 15 0 20 -7 20 -25z m374 9 c10 -26 7 -34 -14
-34 -11 0 -20 4 -20 9 0 5 -3 16 -6 25 -4 11 0 16 14 16 11 0 23 -7 26 -16z
m-466 -30 c-2 -10 -11 -20 -21 -22 -12 -3 -17 3 -17 21 0 26 18 41 33 27 5 -4
7 -16 5 -26z m42 11 c0 -16 -6 -25 -15 -25 -9 0 -15 9 -15 25 0 16 6 25 15 25
9 0 15 -9 15 -25z m325 -13 c6 -21 4 -23 -22 -20 -33 4 -46 44 -16 50 22 5 29
0 38 -30z m49 22 c10 -26 7 -34 -13 -34 -17 0 -31 18 -31 41 0 16 38 10 44 -7z
m-470 -16 c6 -25 -7 -44 -23 -34 -12 8 -15 39 -4 49 12 12 21 7 27 -15z m-44
-13 c0 -14 -2 -25 -4 -25 -2 0 -11 -3 -20 -6 -12 -5 -16 0 -16 18 0 28 7 38
27 38 7 0 13 -11 13 -25z m398 -2 c3 -18 -2 -23 -17 -23 -12 0 -21 4 -21 9 0
5 -3 17 -6 26 -5 13 -2 16 17 13 16 -2 25 -11 27 -25z m-448 -8 c0 -18 -5 -25
-20 -25 -20 0 -28 28 -13 43 15 16 33 6 33 -18z m390 16 c0 -5 3 -16 6 -25 4
-11 0 -16 -14 -16 -18 0 -32 18 -32 41 0 5 9 9 20 9 11 0 20 -4 20 -9z m-100
-31 c0 -20 -5 -30 -15 -30 -15 0 -21 40 -8 53 14 15 23 6 23 -23z m50 5 c0
-28 -24 -34 -34 -9 -10 26 -7 34 14 34 15 0 20 -7 20 -25z m508 5 c139 -33
202 -78 202 -145 0 -45 -29 -67 -94 -73 -67 -5 -160 24 -234 73 -51 35 -61 48
-43 60 14 8 144 -42 158 -61 7 -10 19 -14 29 -10 27 11 2 29 -85 61 -83 31
-106 49 -48 38 88 -16 182 -45 199 -60 14 -13 21 -14 30 -5 8 8 8 15 3 21 -11
10 -208 61 -236 61 -11 0 -19 5 -19 10 0 18 193 -21 206 -41 10 -17 34 -9 34
11 0 14 -6 19 -22 19 -13 -1 -52 6 -88 15 -36 8 -77 16 -92 16 -18 0 -28 5
-28 15 0 20 28 19 128 -5z m-603 -21 c0 -33 -31 -38 -37 -5 -5 24 6 37 27 32
6 -2 10 -13 10 -27z m383 9 c-2 -13 -7 -23 -13 -23 -5 0 -11 10 -13 23 -2 15
2 22 13 22 11 0 15 -7 13 -22z m-438 -8 c0 -11 0 -23 1 -27 0 -4 -4 -9 -10
-11 -14 -5 -25 23 -17 43 8 22 26 18 26 -5z m394 4 c11 -28 6 -44 -13 -44 -18
0 -35 35 -25 52 9 14 31 9 38 -8z m-700 -9 c8 -21 -35 -37 -96 -37 -33 0 -48
-4 -48 -14 0 -18 17 -27 33 -17 16 11 120 32 130 26 19 -11 2 -24 -59 -43 -36
-11 -79 -20 -95 -20 -19 0 -29 -5 -29 -15 0 -8 5 -15 11 -15 12 0 98 26 152
46 45 17 47 17 47 4 0 -18 -83 -65 -114 -65 -21 0 -32 -5 -34 -17 -2 -10 1
-18 6 -18 16 0 93 36 130 60 51 35 37 6 -25 -49 -115 -103 -204 -126 -268 -70
-64 57 -69 144 -10 183 40 26 187 71 246 75 9 1 20 -6 23 -14z m266 -9 c0 -20
-16 -36 -36 -36 -2 0 -4 14 -4 30 0 23 4 30 20 30 14 0 20 -7 20 -24z m383 2
c6 -22 -6 -38 -30 -38 -14 0 -27 36 -18 50 11 18 43 11 48 -12z m-433 -12 c0
-27 -28 -43 -36 -21 -9 21 3 45 21 45 9 0 15 -9 15 -24z m365 4 c8 -24 -1 -40
-21 -40 -17 0 -28 24 -20 45 8 22 34 18 41 -5z m-415 -15 c0 -18 -5 -25 -18
-25 -25 0 -31 7 -25 31 8 29 43 25 43 -6z m358 0 c4 -16 -12 -34 -30 -35 -14
0 -20 43 -7 51 19 12 33 6 37 -16z m-58 -10 c0 -18 -5 -25 -20 -25 -20 0 -28
28 -13 43 15 16 33 6 33 -18z m-50 -10 c0 -18 -5 -25 -20 -25 -20 0 -28 28
-13 43 15 16 33 6 33 -18z m-50 -10 c0 -18 -5 -25 -20 -25 -15 0 -20 7 -20 25
0 18 5 25 20 25 15 0 20 -7 20 -25z m-52 -7 c-4 -28 -24 -34 -31 -9 -6 22 0
31 20 31 9 0 13 -8 11 -22z m387 12 c-3 -5 -10 -10 -16 -10 -5 0 -9 5 -9 10 0
6 7 10 16 10 8 0 12 -4 9 -10z m-435 -19 c0 -19 -23 -35 -34 -24 -14 15 -5 43
14 43 13 0 20 -7 20 -19z m403 5 c7 -19 -1 -26 -30 -26 -16 0 -23 6 -23 20 0
14 7 20 24 20 13 0 26 -6 29 -14z m-503 -12 c0 -8 -5 -12 -10 -9 -6 4 -8 11
-5 16 9 14 15 11 15 -7z m50 -4 c0 -21 -24 -28 -35 -10 -8 14 3 30 21 30 8 0
14 -9 14 -20z m388 -1 c4 -22 -45 -32 -52 -12 -11 27 -6 34 21 31 16 -2 29
-10 31 -19z m-128 -20 c0 -12 -7 -19 -20 -19 -22 0 -29 35 -7 43 18 6 27 -2
27 -24z m60 11 c0 -15 -7 -20 -25 -20 -18 0 -25 5 -25 20 0 15 7 20 25 20 18
0 25 -5 25 -20z m-112 -18 c3 -16 -2 -22 -16 -22 -24 0 -38 30 -20 42 19 12
33 4 36 -20z m-58 -7 c0 -18 -5 -25 -20 -25 -20 0 -28 28 -13 43 15 16 33 6
33 -18z m461 -22 c134 -125 123 -260 -24 -309 -68 -23 -118 -21 -160 5 -70 43
-118 200 -66 214 15 4 25 -2 40 -26 19 -32 22 -42 23 -87 1 -15 8 -26 19 -28
28 -6 20 27 -29 122 -21 40 -2 58 25 25 34 -39 63 -107 56 -128 -6 -21 11 -39
26 -24 11 11 -25 108 -57 150 -30 40 -14 55 23 22 37 -35 83 -109 83 -136 0
-16 6 -23 20 -23 11 0 20 7 20 15 0 8 -4 15 -8 15 -5 0 -16 17 -26 37 -10 21
-35 58 -57 84 -35 42 -40 59 -17 59 19 0 98 -84 108 -116 12 -35 27 -44 36
-20 6 15 -20 50 -85 113 -43 42 -43 44 -26 63 10 11 20 20 22 20 2 0 27 -21
54 -47z m-511 12 c0 -16 -6 -25 -15 -25 -9 0 -15 9 -15 25 0 16 6 25 15 25 9
0 15 -9 15 -25z m-40 -6 c0 -15 -4 -19 -16 -15 -9 3 -18 6 -20 6 -2 0 -4 7 -4
15 0 8 9 15 20 15 14 0 20 -7 20 -21z m340 13 c0 -15 -48 -33 -56 -21 -4 6 0
15 7 20 18 11 49 12 49 1z m-70 -22 c0 -11 -4 -20 -9 -20 -5 0 -16 -3 -25 -6
-11 -4 -16 0 -16 14 0 20 12 30 38 31 6 1 12 -8 12 -19z m-431 -9 l24 -18 -38
-42 c-23 -26 -46 -41 -61 -41 -27 0 -41 -17 -26 -32 12 -12 91 39 120 78 17
24 42 27 42 4 0 -14 -90 -109 -110 -115 -21 -7 -28 -35 -9 -35 15 0 87 69 110
108 24 38 54 45 44 10 -12 -39 -56 -100 -76 -105 -21 -6 -27 -43 -6 -43 13 1
97 118 97 138 0 6 7 12 16 12 20 0 16 -28 -16 -112 -57 -154 -196 -214 -286
-124 -70 70 -50 149 68 267 38 38 72 69 76 69 4 0 18 -9 31 -19z m366 -7 c0
-10 -8 -20 -17 -22 -18 -3 -26 27 -11 42 12 11 28 0 28 -20z m-47 -7 c3 -12
-3 -17 -22 -17 -25 0 -35 18 -19 34 12 12 38 2 41 -17z m-60 1 c-3 -7 -11 -13
-18 -13 -7 0 -15 6 -17 13 -3 7 4 12 17 12 13 0 20 -5 18 -12z m-59 -87 c20
-13 10 -124 -14 -151 -13 -15 -15 -24 -8 -31 6 -6 16 -8 21 -5 11 7 35 134 30
161 -2 10 3 20 10 22 18 7 16 -117 -3 -143 -20 -26 -19 -44 4 -44 15 0 19 10
25 53 3 28 6 69 6 90 0 31 3 38 17 35 28 -5 40 -88 19 -129 -20 -40 -20 -49
-2 -49 18 0 31 73 23 136 -6 59 17 59 32 0 14 -56 14 -103 1 -111 -8 -5 -7
-11 1 -21 7 -8 16 -11 20 -7 9 9 -5 166 -16 183 -3 6 5 10 18 10 23 0 26 -6
36 -63 14 -80 14 -121 0 -172 -21 -76 -104 -129 -174 -111 -14 4 -42 21 -61
39 -44 41 -57 102 -43 207 14 112 21 124 58 101z m488 -368 c-14 -19 -24 -16
-31 11 -5 22 -10 24 -48 19 -40 -5 -42 -4 -23 10 36 27 78 25 96 -3 11 -17 13
-29 6 -37z m-51 -19 c5 -19 1 -31 -14 -46 l-20 -20 -7 32 c-7 31 -8 32 -46 26
-45 -7 -55 10 -11 20 15 3 32 7 37 9 33 11 55 4 61 -21z m-375 -40 c7 -8 9
-17 6 -20 -8 -8 -60 18 -64 32 -5 16 43 5 58 -12z m89 -28 c-12 -12 -61 3 -67
21 -2 6 6 13 19 15 28 5 63 -21 48 -36z m224 9 c6 -23 -11 -65 -25 -65 -4 0
-12 13 -17 29 -10 28 -13 30 -47 24 -36 -6 -37 -5 -26 16 10 17 21 21 60 21
44 0 49 -3 55 -25z m-351 -22 c9 -9 17 -19 17 -23 0 -16 -50 4 -72 27 l-23 26
30 -7 c17 -4 38 -15 48 -23z m-73 2 c11 -13 8 -15 -20 -15 -28 0 -31 2 -20 15
7 8 16 15 20 15 4 0 13 -7 20 -15z m144 -11 c9 -8 16 -19 16 -24 0 -13 -37 0
-56 21 -16 18 -16 19 4 19 11 0 28 -7 36 -16z m36 -4 c0 -5 -2 -10 -4 -10 -3
0 -8 5 -11 10 -3 6 -1 10 4 10 6 0 11 -4 11 -10z m190 -31 c11 -26 11 -33 -3
-46 -14 -15 -17 -13 -33 20 -15 31 -20 34 -41 26 -38 -14 -48 -11 -28 11 12
13 31 20 55 20 32 0 39 -4 50 -31z m-414 -17 c-24 -5 -51 19 -34 29 7 5 20 1
31 -9 17 -15 17 -17 3 -20z m84 12 c12 -12 10 -14 -16 -14 -29 0 -54 15 -54
32 0 12 52 -2 70 -18z m78 -11 c5 -18 -20 -16 -44 2 -18 15 -18 15 10 13 16
-2 31 -9 34 -15z m218 -79 c-8 -21 -21 -17 -36 11 -16 29 -21 30 -60 10 -17
-9 -30 -12 -30 -7 0 19 27 41 60 50 32 8 36 6 53 -21 10 -16 16 -36 13 -43z
m-408 48 c3 -9 -3 -13 -19 -10 -12 1 -24 9 -27 16 -3 9 3 13 19 10 12 -1 24
-9 27 -16z m72 3 c11 -13 9 -15 -13 -15 -13 0 -30 7 -37 15 -11 13 -9 15 13
15 13 0 30 -7 37 -15z m70 0 c11 -13 9 -15 -13 -15 -13 0 -30 7 -37 15 -11 13
-9 15 13 15 13 0 30 -7 37 -15z m52 -7 c-9 -9 -15 -9 -24 0 -9 9 -7 12 12 12
19 0 21 -3 12 -12z m-147 -38 c18 -20 17 -20 -17 -20 -21 0 -46 8 -59 20 l-24
19 41 1 c29 0 46 -6 59 -20z m60 0 c18 -19 17 -20 -2 -20 -11 0 -28 9 -38 20
-18 19 -17 20 2 20 11 0 28 -9 38 -20z m56 10 c5 0 9 -7 9 -15 0 -18 -21 -20
-38 -3 -17 17 -15 31 4 24 9 -3 20 -6 25 -6z m201 -37 c18 -16 25 -53 10 -53
-5 0 -17 9 -26 19 -16 18 -21 18 -58 5 -36 -12 -39 -12 -36 4 2 9 19 22 38 29
47 16 50 16 72 -4z m-371 -20 c12 -15 12 -16 -4 -10 -10 4 -23 7 -28 7 -5 0
-9 5 -9 10 0 16 26 12 41 -7z m89 2 c11 -13 8 -15 -16 -15 -16 0 -38 7 -48 15
-19 14 -18 15 16 15 19 0 41 -7 48 -15z m70 -4 c0 -18 -17 -20 -36 -6 -18 14
-18 14 9 15 15 0 27 -4 27 -9z m483 -8 c11 -10 -13 -33 -35 -33 -16 0 -17 3
-8 20 11 20 31 26 43 13z m-63 -17 c-14 -13 -90 -30 -90 -20 0 7 64 32 85 33
17 1 17 -1 5 -13z m125 4 c-3 -5 -15 -10 -26 -10 -10 0 -19 5 -19 10 0 6 12
10 26 10 14 0 23 -4 19 -10z m-671 -6 c22 -9 20 -24 -3 -24 -26 0 -51 10 -51
21 0 10 31 12 54 3z m84 -4 c6 0 12 -4 12 -10 0 -15 -34 -12 -56 6 -18 15 -18
15 6 10 14 -3 31 -6 38 -6z m262 -39 c0 -3 -5 -13 -10 -21 -7 -12 -13 -11 -34
9 -22 21 -29 23 -51 13 -35 -16 -47 -15 -43 5 2 9 20 21 43 28 35 10 43 9 68
-9 15 -11 27 -22 27 -25z m304 14 c-4 -8 -18 -15 -32 -15 -29 0 -20 15 13 23
11 3 21 5 22 6 1 0 0 -6 -3 -14z m76 6 c0 -11 -25 -21 -52 -21 -17 0 -18 3 -8
15 13 16 60 21 60 6z m-755 -21 c3 -5 1 -10 -4 -10 -6 0 -11 5 -11 10 0 6 2
10 4 10 3 0 8 -4 11 -10z m80 0 c8 -13 -35 -13 -55 0 -11 7 -7 10 17 10 17 0
35 -4 38 -10z m55 0 c0 -5 -6 -10 -14 -10 -8 0 -18 5 -21 10 -3 6 3 10 14 10
12 0 21 -4 21 -10z m420 -16 c7 -19 7 -31 -1 -40 -15 -18 -30 -18 -23 -1 2 7
-5 22 -16 32 -16 14 -17 20 -8 27 23 14 38 8 48 -18z m235 -4 c0 -8 -12 -17
-27 -21 -32 -8 -35 -3 -11 23 18 20 38 19 38 -2z m-427 -49 c6 -8 12 -19 12
-24 0 -11 -41 2 -61 19 -14 12 -19 12 -42 -6 -38 -30 -61 -27 -52 7 8 33 3 28
45 46 33 13 37 13 60 -7 14 -11 31 -27 38 -35z m366 44 c-7 -17 -48 -30 -64
-20 -18 11 9 35 41 35 21 0 27 -4 23 -15z m-664 -20 c13 -13 11 -15 -12 -15
-14 0 -36 9 -49 21 l-24 20 35 -5 c19 -4 41 -13 50 -21z m440 -37 c0 -22 -18
-24 -27 -2 -5 13 -9 12 -29 -7 l-24 -22 0 24 c0 14 7 35 16 48 l16 22 24 -22
c13 -12 24 -31 24 -41z m140 -4 c0 -32 -21 -35 -55 -8 -29 23 -29 24 -6 24 20
0 22 3 16 28 l-7 27 26 -24 c14 -14 26 -34 26 -47z m-525 45 c11 -17 2 -18
-25 -4 -24 14 -24 14 -3 15 12 0 25 -5 28 -11z m708 -16 c11 -10 -13 -33 -34
-33 -22 0 -24 11 -7 28 13 13 31 16 41 5z m-128 -13 c-3 -5 -10 -10 -16 -10
-5 0 -9 5 -9 10 0 6 7 10 16 10 8 0 12 -4 9 -10z m55 -5 c-7 -8 -19 -15 -26
-15 -8 0 -14 7 -14 15 0 10 10 15 26 15 22 0 25 -2 14 -15z m-720 -5 c0 -5 -9
-10 -19 -10 -11 0 -23 5 -26 10 -4 6 5 10 19 10 14 0 26 -4 26 -10z m63 3 c-7
-2 -19 -2 -25 0 -7 3 -2 5 12 5 14 0 19 -2 13 -5z m37 -23 c8 -5 12 -11 9 -14
-3 -3 -14 1 -25 9 -21 16 -8 20 16 5z m247 -33 c10 -11 -46 -8 -66 2 -14 8
-21 4 -35 -20 -9 -16 -21 -29 -26 -29 -13 0 -35 43 -24 47 5 2 23 11 39 21 28
18 32 18 68 2 20 -9 40 -20 44 -23z m-287 23 c12 -8 9 -10 -12 -10 -14 0 -32
-2 -40 -5 -7 -3 -22 1 -33 9 -19 14 -17 15 25 16 25 0 52 -5 60 -10z m640 1
c0 -5 -7 -14 -15 -21 -18 -15 -42 1 -31 19 8 13 46 15 46 2z m70 1 c0 -14 -23
-32 -42 -32 -18 0 -25 20 -11 33 9 10 53 9 53 -1z m55 -12 c0 -8 -10 -16 -22
-18 -22 -3 -32 16 -16 32 12 11 38 2 38 -14z m-365 -10 c0 -11 -30 -21 -41
-14 -15 9 10 34 27 27 8 -3 14 -9 14 -13z m-350 -10 c8 -5 11 -12 8 -16 -10
-9 -78 5 -78 16 0 13 50 13 70 0z m490 -5 c24 22 26 8 6 -40 -19 -44 -46 -47
-46 -6 0 16 -3 38 -6 48 -5 17 -4 17 10 -1 15 -19 16 -19 36 -1z m-565 -15
c19 -7 19 -8 2 -15 -12 -5 -24 -2 -35 9 -13 13 -14 16 -2 15 8 0 24 -4 35 -9z
m635 6 c0 -3 -4 -8 -10 -11 -5 -3 -10 -1 -10 4 0 6 5 11 10 11 6 0 10 -2 10
-4z m68 -8 c-5 -15 -58 -24 -58 -10 0 15 12 22 38 22 14 0 22 -5 20 -12z m66
-3 c-6 -16 -54 -21 -54 -7 0 15 12 22 36 22 17 0 22 -4 18 -15z m35 -14 c-15
-5 -22 6 -14 19 6 9 10 9 16 -1 5 -8 4 -15 -2 -18z m-461 7 c-3 -7 -21 -14
-41 -16 -32 -3 -37 -7 -37 -28 0 -28 -16 -31 -49 -8 l-22 16 22 24 c18 20 32
24 77 24 38 0 53 -4 50 -12z m162 -35 c0 -12 5 -25 12 -29 14 -9 -18 -34 -44
-34 -22 0 -22 8 -3 34 8 11 15 34 15 50 0 24 3 27 10 16 5 -8 10 -25 10 -37z
m-415 18 c6 -11 -30 -18 -63 -12 -18 3 -20 6 -10 12 18 12 65 11 73 0z m305
-11 c0 -6 -14 -19 -30 -28 -17 -9 -28 -23 -25 -29 6 -17 -26 -17 -50 1 -26 18
-13 46 22 46 15 0 35 5 43 10 20 13 40 13 40 0z m48 -35 c-19 -36 -28 -45 -50
-45 -16 0 -28 4 -28 8 0 17 65 81 83 81 16 1 15 -3 -5 -44z m232 30 c-13 -16
-60 -21 -60 -7 0 15 13 22 43 22 25 0 28 -2 17 -15z m70 6 c0 -15 -27 -32 -43
-25 -23 8 -9 34 19 34 13 0 24 -4 24 -9z m60 1 c0 -14 -24 -32 -42 -32 -16 0
-17 3 -8 20 10 19 50 29 50 12z m-685 -12 c3 -6 -4 -10 -17 -10 -18 0 -20 2
-8 10 19 12 18 12 25 0z m705 -10 c0 -5 -5 -10 -11 -10 -5 0 -7 5 -4 10 3 6 8
10 11 10 2 0 4 -4 4 -10z m-722 -15 c2 -1 -4 -5 -12 -8 -8 -3 -22 1 -33 9 -17
13 -16 14 12 8 17 -4 31 -8 33 -9z m542 -16 c-7 -12 -17 -18 -27 -15 -8 3 -19
6 -24 6 -4 0 -6 7 -3 15 4 9 19 15 35 15 27 0 29 -2 19 -21z m63 -5 c-3 -8
-16 -14 -29 -14 -21 0 -23 3 -14 19 11 22 52 18 43 -5z m-559 8 c3 -5 -2 -19
-12 -33 l-16 -23 -7 24 c-3 14 -4 28 -2 33 6 10 31 9 37 -1z m626 -1 c0 -5 -6
-13 -13 -19 -15 -13 -42 1 -33 17 8 13 46 15 46 2z m38 -13 c-3 -7 -12 -14
-21 -16 -12 -2 -15 1 -11 12 7 19 38 22 32 4z m-619 -12 c14 -17 -11 -41 -34
-32 -13 4 -14 10 -5 26 13 23 23 25 39 6z m420 -27 c-6 -12 -21 -19 -40 -19
-30 0 -31 5 -7 36 4 6 19 9 33 6 21 -3 23 -7 14 -23z m71 15 c0 -18 -24 -44
-40 -44 -22 0 -26 20 -8 38 12 12 48 17 48 6z m-447 -10 c11 -11 -3 -24 -18
-18 -8 4 -12 10 -9 15 6 11 18 12 27 3z m497 -13 c-14 -27 -30 -35 -42 -23
-15 15 8 42 34 42 15 0 17 -3 8 -19z m50 -2 c-11 -20 -37 -36 -45 -27 -8 8 26
48 41 48 12 0 12 -4 4 -21z m33 -9 c-6 -22 -21 -35 -29 -27 -7 7 15 47 25 47
5 0 7 -9 4 -20z m-530 3 c-7 -2 -19 -2 -25 0 -7 3 -2 5 12 5 14 0 19 -2 13 -5z
m-123 -18 c-10 -12 -16 -13 -26 -4 -20 16 -18 19 12 19 22 0 25 -2 14 -15z
m53 -11 c-6 -16 -6 -16 -27 -8 -13 5 -14 10 -6 20 14 16 41 7 33 -12z m147 17
c0 -4 -11 -6 -25 -3 -14 2 -25 6 -25 8 0 2 11 4 25 4 14 0 25 -4 25 -9z m88
-3 c-3 -7 -10 -13 -16 -12 -59 5 -58 5 -37 14 30 13 57 12 53 -2z m53 -3 c0
-5 -9 -11 -21 -13 -20 -3 -27 8 -13 22 10 9 34 3 34 -9z m-237 -1 c20 -8 11
-24 -15 -24 -19 0 -25 11 -12 23 8 8 8 8 27 1z m316 -2 c0 -16 -22 -30 -41
-25 -20 5 -24 15 -12 26 9 10 53 9 53 -1z m-246 -8 c28 -11 17 -24 -19 -24
-26 0 -33 3 -29 15 6 16 22 19 48 9z m304 -6 c-5 -15 -48 -24 -48 -10 0 14 12
22 33 22 10 0 17 -5 15 -12z m-228 -8 c12 -8 13 -11 1 -19 -14 -9 -51 -3 -51
8 0 21 26 27 50 11z m288 -2 c-3 -7 -17 -15 -33 -16 -25 -3 -27 -2 -16 12 16
19 55 22 49 4z m52 4 c0 -13 -23 -32 -37 -32 -11 0 -11 5 -3 20 10 19 40 28
40 12z m-558 -24 c-11 -11 -32 -3 -32 12 0 4 9 6 21 3 13 -4 17 -9 11 -15z
m286 5 c2 -8 -6 -13 -22 -13 -25 0 -33 10 -19 24 10 10 36 3 41 -11z m312 3
c0 -18 -16 -29 -30 -21 -13 8 -1 35 16 35 8 0 14 -6 14 -14z m-547 -2 c11 -11
-5 -34 -24 -34 -21 0 -22 1 -13 24 6 16 25 21 37 10z m301 0 c26 -10 1 -32
-29 -26 -25 4 -31 13 -18 25 8 9 27 9 47 1z m-229 -24 c0 -10 -12 -16 -32 -18
-35 -3 -41 6 -21 26 17 17 53 11 53 -8z m293 3 c2 -8 -6 -13 -22 -13 -19 0
-24 4 -19 15 6 18 34 16 41 -2z m-224 1 c25 -10 0 -34 -36 -34 -26 0 -28 2
-18 20 11 21 27 25 54 14z m286 -9 c0 -9 -9 -15 -25 -15 -24 0 -32 10 -18 23
12 13 43 7 43 -8z m-226 -1 c21 -8 2 -34 -25 -34 -21 0 -22 1 -13 24 7 17 14
19 38 10z m276 -4 c0 -12 -28 -25 -36 -17 -9 9 6 27 22 27 8 0 14 -5 14 -10z
m-206 -6 c24 -9 6 -34 -25 -34 -31 0 -32 1 -23 24 6 17 22 20 48 10z m254 -6
c-7 -19 -38 -22 -38 -4 0 10 9 16 21 16 12 0 19 -5 17 -12z m51 3 c13 -8 8
-31 -7 -31 -17 1 -34 19 -28 29 9 13 16 14 35 2z m-236 -8 c11 -10 -13 -33
-34 -33 -22 0 -24 11 -7 28 13 13 31 16 41 5z m-293 -10 c0 -5 -5 -15 -10 -23
-8 -13 -13 -12 -32 8 l-22 22 32 0 c18 0 32 -3 32 -7z m353 0 c11 -10 -13 -33
-34 -33 -21 0 -22 1 -13 24 6 16 35 22 47 9z m222 -3 c3 -5 -1 -10 -9 -10 -9
0 -16 5 -16 10 0 6 4 10 9 10 6 0 13 -4 16 -10z m-505 -6 c0 -18 -23 -44 -40
-44 -25 0 -35 17 -20 35 12 14 60 21 60 9z m330 -8 c0 -18 -16 -29 -30 -21
-13 8 -1 35 16 35 8 0 14 -6 14 -14z m-272 -12 c-5 -25 -35 -41 -49 -27 -9 9
-9 16 1 28 17 21 52 20 48 -1z m326 1 c-6 -16 -44 -21 -44 -7 0 14 12 22 31
22 12 0 16 -5 13 -15z m59 -11 c-3 -8 -16 -14 -29 -14 -26 0 -30 10 -13 27 15
15 49 5 42 -13z m-303 9 c-1 -24 -29 -44 -54 -37 -21 5 -24 9 -15 25 9 18 69
28 69 12z m353 1 c11 -11 -5 -34 -24 -34 -22 0 -24 11 -7 28 13 13 22 15 31 6z
m-303 -23 c-13 -26 -23 -31 -38 -22 -20 12 -2 41 24 41 21 0 23 -3 14 -19z
m358 -4 c2 -11 -3 -17 -16 -17 -24 0 -32 8 -25 26 7 20 37 13 41 -9z m-288 5
c0 -16 -24 -32 -47 -32 -21 0 -22 3 -13 20 10 19 60 29 60 12z m38 -22 c-11
-17 -38 -28 -38 -16 0 18 15 36 31 36 17 0 18 -3 7 -20z m55 14 c10 -10 -12
-44 -28 -44 -16 0 -18 9 -9 34 6 16 25 21 37 10z m67 -10 c0 -11 -21 -44 -28
-44 -4 0 -13 4 -21 9 -12 8 -12 12 -2 25 13 15 51 23 51 10z m-397 -15 c-8 -8
-16 -8 -30 0 -16 9 -14 10 12 11 21 0 26 -3 18 -11z m77 -8 c0 -3 -4 -12 -9
-20 -7 -10 -13 -11 -30 -2 -21 12 -26 23 -16 33 7 7 55 -2 55 -11z m370 15 c0
-18 -15 -36 -31 -36 -22 0 -24 11 -7 28 11 11 38 17 38 8z m-310 -25 c0 -13
-24 -31 -42 -31 -22 0 -23 8 -2 31 15 16 44 16 44 0z m370 -1 c-10 -19 -60
-29 -60 -12 0 16 24 32 47 32 21 0 22 -3 13 -20z m-316 1 c11 -18 -6 -41 -30
-41 -27 0 -28 3 -14 31 11 20 35 25 44 10z m364 -14 c2 -12 -3 -17 -17 -17
-12 0 -21 6 -21 13 0 31 32 34 38 4z m-308 7 c0 -16 -23 -44 -35 -44 -18 0
-18 5 -5 31 10 17 40 27 40 13z m60 -11 c-1 -14 -27 -43 -38 -43 -18 0 -24 20
-12 35 13 15 50 21 50 8z m48 -29 c-12 -25 -17 -28 -42 -18 -14 5 -14 8 0 29
10 15 21 21 34 18 16 -4 17 -9 8 -29z m59 10 c2 -5 -3 -18 -10 -28 -10 -14
-18 -16 -30 -10 -16 9 -16 12 -1 32 16 23 35 25 41 6z m73 -2 c0 -11 -30 -52
-38 -52 -4 0 -13 4 -21 9 -21 13 4 51 34 51 14 0 25 -3 25 -8z m60 -7 c0 -12
-24 -55 -31 -55 -4 0 -14 3 -23 6 -24 9 1 54 31 54 12 0 23 -2 23 -5z m-380
-15 c0 -13 -11 -13 -30 0 -12 8 -11 10 8 10 12 0 22 -4 22 -10z m44 -15 c-4
-8 -12 -15 -20 -15 -8 0 -14 7 -14 15 0 8 9 15 20 15 13 0 18 -5 14 -15z m356
-5 c0 -11 -7 -20 -15 -20 -13 0 -14 4 -5 20 6 11 13 20 15 20 3 0 5 -9 5 -20z
m-300 -4 c0 -20 -24 -36 -39 -26 -8 4 -11 15 -8 24 8 20 47 21 47 2z m60 0 c0
-20 -16 -36 -36 -36 -22 0 -23 3 -14 20 9 17 50 30 50 16z m60 -14 c0 -14 -23
-32 -42 -32 -20 0 -21 1 -12 24 6 16 54 23 54 8z m60 -7 c0 -19 -17 -35 -36
-35 -27 0 -28 3 -14 30 6 12 17 16 30 13 11 -3 20 -7 20 -8z m60 -25 c-10 -19
-60 -29 -60 -12 0 16 24 32 47 32 21 0 22 -3 13 -20z m50 6 c0 -18 -15 -36
-31 -36 -17 0 -18 3 -9 20 9 17 40 29 40 16z m-271 -15 c8 -5 9 -11 3 -15 -5
-3 -15 1 -22 9 -14 16 -3 20 19 6z m58 -9 c20 -13 -2 -35 -26 -27 -18 5 -20 9
-10 21 13 16 19 17 36 6z m71 -19 c4 -16 -22 -27 -43 -19 -22 8 -6 38 18 34
11 -2 22 -9 25 -15z m60 -10 c-2 -11 -14 -19 -31 -21 -26 -3 -28 -2 -17 17 13
26 53 29 48 4z m50 -10 c-2 -10 -14 -19 -26 -21 -21 -3 -22 -1 -12 17 13 26
43 28 38 4z m-135 -20 c4 -3 2 -12 -4 -20 -9 -10 -15 -10 -25 -2 -8 6 -14 15
-14 20 0 10 34 12 43 2z m162 -3 c3 -5 -1 -10 -10 -10 -9 0 -13 5 -10 10 3 6
8 10 10 10 2 0 7 -4 10 -10z m-101 -8 c2 -4 1 -14 -3 -21 -12 -18 -52 -5 -44
15 5 15 38 19 47 6z m50 -11 c8 -12 -21 -34 -33 -27 -6 4 -8 13 -4 21 6 17 29
20 37 6z m41 -11 c9 -15 -3 -30 -20 -24 -7 3 -11 12 -8 20 6 16 19 18 28 4z
m54 -9 c13 -8 8 -31 -7 -31 -17 1 -34 19 -28 29 9 13 16 14 35 2z m-169 -21
c0 -5 -4 -10 -9 -10 -6 0 -13 5 -16 10 -3 6 1 10 9 10 9 0 16 -4 16 -10z m50
-10 c0 -12 -28 -25 -36 -17 -9 9 6 27 22 27 8 0 14 -5 14 -10z m50 -11 c0 -12
-29 -24 -37 -16 -3 4 -3 13 0 21 6 16 37 11 37 -5z m60 -9 c0 -15 -26 -29 -39
-20 -21 12 -6 39 18 33 12 -3 21 -9 21 -13z m38 -12 c-3 -7 -12 -14 -21 -16
-12 -2 -15 1 -11 12 7 19 38 22 32 4z m38 -35 c-10 -10 -34 11 -29 24 5 14 8
13 20 -2 7 -10 11 -20 9 -22z m-156 19 c0 -5 -6 -16 -13 -26 -12 -16 -14 -16
-26 -2 -7 8 -10 20 -6 26 7 12 45 14 45 2z m46 -13 c9 -15 -18 -40 -34 -30
-15 9 -5 41 13 41 8 0 17 -5 21 -11z m44 -29 c-6 -11 -17 -17 -25 -14 -19 8
-7 34 16 34 16 0 18 -3 9 -20z m70 1 c0 -16 -27 -31 -44 -25 -30 11 -16 34 21
34 13 0 23 -4 23 -9z m-145 -29 c0 -18 -20 -15 -23 4 -3 10 1 15 10 12 7 -3
13 -10 13 -16z m50 -2 c9 -15 -3 -30 -20 -24 -7 3 -11 12 -8 20 6 16 19 18 28
4z m115 0 c0 -5 -2 -10 -4 -10 -3 0 -8 5 -11 10 -3 6 -1 10 4 10 6 0 11 -4 11
-10z m-61 -9 c13 -8 8 -31 -7 -31 -17 1 -34 19 -28 29 9 13 16 14 35 2z m71
-26 c0 -16 -9 -19 -34 -9 -20 8 -11 24 15 24 10 0 19 -7 19 -15z m-140 -14 c0
-3 -4 -12 -9 -20 -7 -11 -11 -10 -20 6 -5 11 -8 23 -5 26 7 7 34 -3 34 -12z
m60 -6 c0 -19 -17 -35 -36 -35 -27 0 -28 3 -14 30 6 12 17 16 30 13 11 -3 20
-7 20 -8z m70 -19 c0 -21 -24 -36 -48 -29 -25 6 -24 5 -16 27 8 20 64 22 64 2z
m20 -26 c0 -5 -5 -10 -11 -10 -5 0 -7 5 -4 10 3 6 8 10 11 10 2 0 4 -4 4 -10z
m-124 -11 c3 -6 1 -16 -5 -22 -9 -9 -14 -8 -21 3 -5 8 -10 18 -10 23 0 11 28
8 36 -4z m65 -9 c11 0 11 -11 0 -28 -5 -9 -17 -11 -34 -7 -23 6 -25 10 -16 27
6 12 17 17 26 14 8 -3 19 -6 24 -6z m57 -27 c-2 -10 -13 -19 -26 -21 -24 -4
-25 -2 -16 22 9 23 46 21 42 -1z m-79 -29 c8 -7 -12 -24 -30 -24 -13 0 -19 7
-19 21 0 16 4 19 23 13 12 -3 24 -8 26 -10z m54 -11 c4 -3 2 -12 -3 -19 -14
-16 -50 -6 -43 12 5 14 35 19 46 7z m-83 -38 c0 -8 -2 -15 -4 -15 -2 0 -6 7
-10 15 -3 8 -1 15 4 15 6 0 10 -7 10 -15z m44 -1 c14 -5 12 -34 -3 -34 -16 1
-33 19 -27 29 8 13 9 13 30 5z m54 -32 c2 -7 -6 -12 -17 -12 -21 0 -27 11 -14
24 9 9 26 2 31 -12z m-71 -25 c-6 -20 -27 -19 -27 2 0 14 5 19 15 14 9 -3 14
-10 12 -16z m51 -6 c10 -6 10 -10 -1 -20 -18 -14 -48 -4 -40 15 6 16 21 18 41
5z m-39 -40 c12 -8 12 -12 2 -25 -16 -19 -31 -12 -31 15 0 21 7 23 29 10z m35
-35 c-3 -9 -13 -16 -22 -16 -13 0 -12 3 3 20 20 23 29 21 19 -4z m-24 -40 c0
-8 -4 -17 -9 -21 -12 -7 -24 12 -16 25 9 15 25 12 25 -4z m-26 -35 c3 -5 -3
-20 -14 -32 -20 -25 -24 -20 -14 19 7 23 19 29 28 13z"/>
<path d="M1787 7246 c-10 -26 4 -47 27 -44 15 2 21 10 21 28 0 29 -38 41 -48
16z"/>
<path d="M1654 7236 c-10 -26 4 -48 28 -44 17 2 23 10 23 28 0 18 -6 26 -23
28 -13 2 -25 -3 -28 -12z"/>
<path d="M1503 7194 c-8 -21 19 -46 40 -38 9 3 17 17 17 30 0 19 -5 24 -25 24
-14 0 -28 -7 -32 -16z"/>
<path d="M1866 7193 c-8 -21 17 -48 38 -40 9 4 16 18 16 32 0 20 -5 25 -24 25
-13 0 -27 -8 -30 -17z"/>
<path d="M1583 7184 c-8 -20 21 -49 41 -41 9 4 16 18 16 32 0 20 -5 25 -25 25
-14 0 -28 -7 -32 -16z"/>
<path d="M1721 7187 c-17 -21 -3 -47 26 -47 21 0 24 4 21 27 -3 31 -29 41 -47
20z"/>
<path d="M1804 7155 c-8 -21 2 -45 19 -45 21 0 38 25 31 44 -8 20 -43 21 -50
1z"/>
<path d="M1924 7126 c-10 -26 4 -48 28 -44 17 2 23 10 23 28 0 18 -6 26 -23
28 -13 2 -25 -3 -28 -12z"/>
<path d="M1493 7114 c-8 -20 21 -49 41 -41 9 4 16 18 16 32 0 20 -5 25 -25 25
-14 0 -28 -7 -32 -16z"/>
<path d="M1581 7097 c-17 -21 -3 -47 26 -47 21 0 24 4 21 27 -3 31 -29 41 -47
20z"/>
<path d="M1664 7096 c-10 -26 4 -48 28 -44 17 2 23 10 23 28 0 18 -6 26 -23
28 -13 2 -25 -3 -28 -12z"/>
<path d="M1757 7093 c-13 -12 -7 -41 10 -47 21 -8 48 17 40 38 -6 16 -38 22
-50 9z"/>
<path d="M1834 7086 c-10 -26 4 -48 28 -44 17 2 23 10 23 28 0 18 -6 26 -23
28 -13 2 -25 -3 -28 -12z"/>
<path d="M1640 6700 c-11 -11 -20 -26 -20 -33 0 -24 31 -57 55 -57 50 0 73 60
37 93 -25 22 -48 21 -72 -3z"/>
<path d="M726 3484 c-10 -14 -16 -28 -13 -30 2 -3 12 7 21 22 10 14 16 28 13
30 -2 3 -12 -7 -21 -22z"/>
<path d="M1732 5348 c-29 -29 -3 -72 40 -66 19 2 23 9 23 38 0 30 -4 35 -25
38 -14 2 -31 -3 -38 -10z"/>
<path d="M1627 5263 c-11 -11 -8 -48 5 -61 30 -30 75 0 64 43 -5 19 -13 25
-35 25 -15 0 -31 -3 -34 -7z"/>
<path d="M1510 5190 c-24 -44 38 -83 70 -45 10 12 10 21 2 40 -14 31 -56 34
-72 5z"/>
<path d="M1930 5023 c0 -49 32 -177 60 -241 30 -67 82 -152 91 -146 4 2 -8 30
-27 61 -46 76 -72 149 -96 263 -11 52 -21 97 -24 99 -2 2 -4 -14 -4 -36z"/>
<path d="M1990 5005 c0 -62 76 -265 100 -265 5 0 -6 29 -25 64 -18 35 -41 98
-50 140 -16 72 -25 94 -25 61z"/>
<path d="M691 1755 c-32 -36 -39 -68 -21 -95 9 -13 11 -13 20 0 5 8 10 28 10
43 0 15 7 41 15 57 20 39 14 38 -24 -5z"/>
<path d="M756 1679 c-19 -22 -26 -41 -24 -62 5 -47 25 -44 33 5 4 24 12 51 17
61 16 32 2 29 -26 -4z"/>
<path d="M817 1597 c-4 -10 -7 -38 -7 -62 0 -35 5 -47 21 -55 30 -17 34 -6 16
42 -9 24 -17 54 -19 68 -3 22 -4 22 -11 7z"/>
<path d="M896 1479 c-9 -49 7 -88 37 -89 12 0 6 43 -12 85 l-18 40 -7 -36z"/>
<path d="M986 1449 c-12 -41 -3 -101 16 -113 24 -15 30 -3 17 30 -7 16 -15 47
-19 69 -6 37 -7 38 -14 14z"/>
<path d="M1056 1356 c-4 -18 -2 -45 3 -58 11 -30 41 -45 41 -22 0 16 -30 114
-35 114 -2 0 -6 -15 -9 -34z"/>
<path d="M1136 1289 c-11 -49 -4 -90 16 -103 27 -16 33 0 15 41 -9 21 -18 52
-20 68 l-3 30 -8 -36z"/>
<path d="M1210 1227 c0 -40 21 -86 42 -93 31 -10 33 3 4 46 -14 22 -26 44 -26
49 0 5 -4 13 -10 16 -6 3 -10 -4 -10 -18z"/>
<path d="M1311 1172 c-1 -52 13 -82 39 -82 26 0 25 16 -4 54 -13 18 -26 40
-29 51 -2 11 -5 1 -6 -23z"/>
<path d="M1403 1145 c8 -54 21 -75 48 -75 25 0 24 9 -6 50 -14 19 -25 39 -25
46 0 7 -5 16 -12 20 -8 5 -9 -6 -5 -41z"/>
<path d="M1524 1128 c0 -18 -4 -50 -8 -70 -7 -31 -5 -38 8 -38 26 0 38 35 26
78 -15 55 -27 68 -26 30z"/>
<path d="M1625 1098 c3 -15 0 -47 -7 -72 -14 -53 -4 -70 22 -38 21 26 18 67
-7 112 l-14 25 6 -27z"/>
<path d="M1700 1054 c0 -12 -3 -42 -6 -68 -6 -37 -4 -46 9 -46 29 0 37 67 12
110 -13 23 -14 24 -15 4z"/>
<path d="M1775 993 c0 -21 -4 -53 -9 -71 -7 -29 -6 -33 9 -30 10 1 22 10 28
19 11 18 2 78 -16 102 -10 15 -12 12 -12 -20z"/>
<path d="M1856 925 c-5 -16 -15 -43 -23 -59 -17 -33 -5 -52 21 -33 14 10 17
24 14 67 -3 50 -4 52 -12 25z"/>
<path d="M1907 825 c-28 -79 -30 -85 -20 -85 5 0 17 6 27 13 13 10 17 24 14
67 l-3 55 -18 -50z"/>
<path d="M1960 763 c0 -10 -9 -31 -20 -48 -11 -16 -20 -36 -20 -42 0 -18 25
-16 40 2 17 20 25 91 11 99 -6 4 -11 0 -11 -11z"/>
<path d="M889 737 c-27 -18 -34 -29 -34 -56 0 -54 20 -59 125 -32 111 29 172
25 230 -13 37 -24 40 -25 30 -6 -14 27 -82 76 -145 106 -69 33 -159 33 -206 1z
m66 3 c-10 -17 4 -46 28 -57 21 -10 19 -11 -18 -23 -57 -17 -89 -11 -93 18 -4
26 13 50 43 62 28 12 47 12 40 0z"/>
<path d="M1991 640 c-1 -8 -15 -31 -31 -50 -33 -38 -39 -63 -14 -58 30 5 56
52 51 89 -2 19 -5 27 -6 19z"/>
<path d="M1990 535 c-8 -9 -31 -25 -52 -36 -45 -23 -49 -39 -10 -39 30 0 50
17 72 58 14 29 8 39 -10 17z"/>
<path d="M1925 406 c-54 -12 -66 -29 -24 -34 17 -2 37 6 55 22 16 14 27 25 24
25 -3 -1 -27 -6 -55 -13z"/>
<path d="M1957 343 c-4 -3 -35 -9 -69 -12 -47 -4 -63 -10 -63 -21 0 -26 52
-23 100 5 25 14 45 28 45 30 0 7 -6 6 -13 -2z"/>
</g>
</svg>
